{
.appVersion = "3108";
.formatVersion = 3;
axes = (
{
name = Weight;
tag = wght;
}
);
customParameters = (
{
name = "Variable Font Origin";
value = m01;
}
);
date = "2022-03-16 02:33:55 +0000";
familyName = "VIC WA NT Print";
fontMaster = (
{
axesValues = (
300
);
guides = (
{
pos = (46,650);
},
{
locked = 1;
pos = (557,569);
}
);
iconName = SemiLight;
id = m01;
metricValues = (
{
over = 4;
pos = 700;
},
{
over = 4;
pos = 650;
},
{
over = 4;
pos = 350;
},
{
over = -4;
},
{
over = -4;
pos = -300;
},
{
over = -16;
pos = 10;
}
);
name = Regular;
stemValues = (
46,
50
);
visible = 1;
},
{
axesValues = (
800
);
guides = (
{
pos = (456,650);
}
);
iconName = Bold;
id = "140DECC1-64C4-40C0-9C07-503DBC3F4160";
metricValues = (
{
over = 4;
pos = 700;
},
{
over = 4;
pos = 650;
},
{
over = 4;
pos = 350;
},
{
over = -4;
},
{
over = -4;
pos = -300;
},
{
pos = 10;
}
);
name = ExtraBold;
stemValues = (
90,
100
);
userData = {
GSOffsetHorizontal = 25;
GSOffsetVertical = 25;
};
}
);
glyphs = (
{
glyphname = A;
lastChange = "2022-03-17 10:50:53 +0000";
layers = (
{
layerId = m01;
name = "QBeginners Light";
shapes = (
{
closed = 1;
nodes = (
(19,0,o),
(24,7,o),
(33,25,cs),
(278,504,l),
(329,619,l),
(344,625,l),
(348,638,o),
(340,650,o),
(321,650,cs),
(299,650,o),
(298,639,o),
(291,625,cs),
(-18,32,ls),
(-28,12,o),
(-16,0,o),
(-1,0,cs)
);
},
{
closed = 1;
nodes = (
(349,304,l),
(344,347,l),
(175,347,l),
(153,304,l)
);
},
{
closed = 1;
nodes = (
(392,0,o),
(398,11,o),
(397,26,cs),
(345,631,l),
(310,613,l),
(310,500,l),
(348,24,ls),
(349,14,o),
(352,0,o),
(374,0,c)
);
}
);
width = 479;
},
{
layerId = "140DECC1-64C4-40C0-9C07-503DBC3F4160";
name = "QBeginners Light";
shapes = (
{
closed = 1;
nodes = (
(58,0,o),
(73,8,o),
(86,33,cs),
(297,449,l),
(358,603,l),
(403,603,l),
(400,634,o),
(378,650,o),
(347,650,cs),
(314,650,o),
(294,635,o),
(284,616,cs),
(-6,60,ls),
(-25,24,o),
(1,0,o),
(31,0,cs)
);
},
{
closed = 1;
nodes = (
(384,249,l),
(376,329,l),
(178,329,l),
(135,249,l)
);
},
{
closed = 1;
nodes = (
(434,0,o),
(454,15,o),
(451,46,cs),
(403,603,l),
(329,591,l),
(323,448,l),
(357,40,ls),
(359,16,o),
(375,0,o),
(406,0,cs)
);
}
);
width = 530;
}
);
unicode = 65;
},
{
glyphname = B;
lastChange = "2022-03-17 13:46:25 +0000";
layers = (
{
layerId = m01;
shapes = (
{
closed = 1;
nodes = (
(382,327,o),
(435,373,o),
(449,477,cs),
(465,595,o),
(362,650,o),
(147,650,c),
(156,604,l),
(314,604,o),
(410,570,o),
(399,479,cs),
(389,399,o),
(353,359,o),
(112,359,c),
(104,327,l)
);
},
{
closed = 1;
nodes = (
(315,0,o),
(396,53,o),
(412,163,cs),
(429,279,o),
(318,359,o),
(108,359,c),
(104,320,l),
(294,320,o),
(374,248,o),
(363,169,cs),
(350,71,o),
(240,46,o),
(58,46,c),
(33,0,l)
);
},
{
closed = 1;
nodes = (
(64,29,l),
(168,619,l),
(147,650,l),
(130,650,o),
(122,643,o),
(118,623,cs),
(14,31,ls),
(11,14,o),
(21,0,o),
(38,0,c)
);
}
);
width = 480;
},
{
layerId = "140DECC1-64C4-40C0-9C07-503DBC3F4160";
shapes = (
{
closed = 1;
nodes = (
(453,277,o),
(519,344,o),
(535,462,cs),
(553,597,o),
(430,650,o),
(173,650,c),
(156,560,l),
(387,560,o),
(443,529,o),
(435,467,cs),
(428,413,o),
(410,358,o),
(166,358,c),
(153,277,l)
);
},
{
closed = 1;
nodes = (
(361,0,o),
(463,26,o),
(480,151,cs),
(499,292,o),
(348,358,o),
(161,358,c),
(147,277,l),
(324,277,o),
(391,241,o),
(381,168,cs),
(373,110,o),
(301,90,o),
(83,90,c),
(68,0,l)
);
},
{
closed = 1;
nodes = (
(126,44,l),
(224,599,l),
(173,650,l),
(150,650,o),
(130,642,o),
(124,609,cs),
(26,53,ls),
(21,23,o),
(43,0,o),
(69,0,c)
);
}
);
width = 565;
}
);
metricLeft = N;
metricRight = O;
unicode = 66;
},
{
glyphname = C;
lastChange = "2022-03-17 12:51:44 +0000";
layers = (
{
layerId = m01;
shapes = (
{
closed = 1;
nodes = (
(285,0,o),
(352,45,o),
(409,108,cs),
(434,135,o),
(436,147,o),
(435,154,cs),
(433,166,o),
(424,172,o),
(412,172,cs),
(396,172,o),
(390,155,o),
(370,137,cs),
(315,85,o),
(265,46,o),
(200,46,cs),
(128,46,o),
(54,136,o),
(83,304,cs),
(103,419,o),
(151,604,o),
(326,604,cs),
(372,604,o),
(421,583,o),
(466,536,cs),
(479,523,o),
(493,526,o),
(501,535,cs),
(509,544,o),
(507,560,o),
(498,569,cs),
(449,620,o),
(389,650,o),
(327,650,cs),
(115,650,o),
(58,447,o),
(33,305,cs),
(-2,108,o),
(103,0,o),
(199,0,cs)
);
}
);
width = 531;
},
{
layerId = "140DECC1-64C4-40C0-9C07-503DBC3F4160";
shapes = (
{
closed = 1;
nodes = (
(320,0,o),
(402,40,o),
(459,103,cs),
(484,130,o),
(493,143,o),
(493,162,cs),
(493,180,o),
(479,196,o),
(453,196,cs),
(437,196,o),
(417,190,o),
(393,164,cs),
(345,111,o),
(285,90,o),
(235,90,cs),
(181,90,o),
(116,148,o),
(143,304,cs),
(161,408,o),
(198,560,o),
(361,560,cs),
(407,560,o),
(439,550,o),
(471,520,cs),
(495,498,o),
(525,489,o),
(547,511,cs),
(570,534,o),
(557,563,o),
(532,586,cs),
(479,634,o),
(424,650,o),
(362,650,cs),
(138,650,o),
(70,459,o),
(43,305,cs),
(6,96,o),
(138,0,o),
(234,0,cs)
);
}
);
width = 596;
}
);
metricLeft = O;
metricRight = N;
unicode = 67;
},
{
glyphname = D;
lastChange = "2022-03-17 13:47:11 +0000";
layers = (
{
layerId = m01;
shapes = (
{
closed = 1;
nodes = (
(100,0,ls),
(292,0,o),
(474,122,o),
(503,344,cs),
(529,543,o),
(368,650,o),
(183,650,cs),
(147,650,l),
(157,604,l),
(187,604,ls),
(340,604,o),
(472,512,o),
(453,351,cs),
(429,149,o),
(262,46,o),
(100,46,cs),
(59,46,l),
(37,0,l)
);
},
{
closed = 1;
nodes = (
(58,0,o),
(62,15,o),
(64,25,cs),
(168,619,ls),
(171,637,o),
(169,650,o),
(148,650,cs),
(126,650,o),
(121,639,o),
(118,623,cs),
(13,27,ls),
(10,12,o),
(18,0,o),
(36,0,cs)
);
}
);
width = 540;
},
{
layerId = "140DECC1-64C4-40C0-9C07-503DBC3F4160";
shapes = (
{
closed = 1;
nodes = (
(148,0,ls),
(341,0,o),
(515,129,o),
(545,351,cs),
(568,523,o),
(417,650,o),
(225,650,cs),
(175,650,l),
(205,561,l),
(230,561,ls),
(368,561,o),
(464,473,o),
(448,350,cs),
(425,177,o),
(291,89,o),
(148,89,cs),
(120,89,l),
(70,0,l)
);
},
{
closed = 1;
nodes = (
(99,0,o),
(120,15,o),
(125,41,cs),
(224,600,ls),
(231,641,o),
(204,650,o),
(176,650,cs),
(144,650,o),
(129,636,o),
(124,609,cs),
(25,49,ls),
(20,21,o),
(40,0,o),
(72,0,cs)
);
}
);
width = 594;
}
);
metricLeft = N;
metricRight = O;
unicode = 68;
},
{
glyphname = E;
lastChange = "2022-03-17 11:50:12 +0000";
layers = (
{
layerId = m01;
shapes = (
{
closed = 1;
nodes = (
(58,0,o),
(62,15,o),
(64,25,c),
(168,619,l),
(171,637,o),
(169,650,o),
(148,650,cs),
(126,650,o),
(121,639,o),
(118,623,c),
(13,27,l),
(10,12,o),
(18,0,o),
(36,0,cs)
);
},
{
closed = 1;
nodes = (
(371,0,ls),
(391,0,o),
(397,14,o),
(397,26,cs),
(397,38,o),
(391,50,o),
(371,50,cs),
(63,50,l),
(37,0,l)
);
},
{
closed = 1;
nodes = (
(397,304,ls),
(417,304,o),
(423,315,o),
(423,327,cs),
(423,339,o),
(417,350,o),
(397,350,cs),
(113,350,l),
(105,304,l)
);
},
{
closed = 1;
nodes = (
(479,600,ls),
(499,600,o),
(505,613,o),
(505,625,cs),
(505,637,o),
(499,650,o),
(479,650,cs),
(152,650,l),
(160,600,l)
);
}
);
width = 517;
},
{
layerId = "140DECC1-64C4-40C0-9C07-503DBC3F4160";
shapes = (
{
closed = 1;
nodes = (
(94,0,o),
(122,18,o),
(126,40,cs),
(224,597,ls),
(231,638,o),
(205,650,o),
(177,650,cs),
(146,650,o),
(129,639,o),
(124,611,cs),
(25,50,ls),
(20,22,o),
(32,0,o),
(62,0,cs)
);
},
{
closed = 1;
nodes = (
(409,0,ls),
(439,0,o),
(459,16,o),
(459,42,cs),
(459,66,o),
(443,80,o),
(411,80,cs),
(125,80,l),
(69,0,l)
);
},
{
closed = 1;
nodes = (
(427,265,ls),
(459,265,o),
(481,284,o),
(481,308,cs),
(481,334,o),
(462,350,o),
(432,350,cs),
(169,350,l),
(153,265,l)
);
},
{
closed = 1;
nodes = (
(508,555,ls),
(538,555,o),
(559,580,o),
(559,606,cs),
(559,631,o),
(541,650,o),
(510,650,cs),
(184,650,l),
(206,555,l)
);
}
);
width = 584;
}
);
metricLeft = N;
metricRight = N;
unicode = 69;
},
{
glyphname = F;
lastChange = "2022-03-17 11:51:36 +0000";
layers = (
{
layerId = m01;
shapes = (
{
closed = 1;
nodes = (
(58,0,o),
(62,15,o),
(64,25,cs),
(168,619,ls),
(171,637,o),
(169,650,o),
(148,650,cs),
(126,650,o),
(121,639,o),
(118,623,cs),
(13,27,ls),
(10,12,o),
(18,0,o),
(36,0,cs)
);
},
{
closed = 1;
nodes = (
(396,304,ls),
(416,304,o),
(422,315,o),
(422,327,cs),
(422,339,o),
(416,350,o),
(396,350,cs),
(113,350,l),
(106,304,l)
);
},
{
closed = 1;
nodes = (
(479,600,ls),
(499,600,o),
(505,613,o),
(505,625,cs),
(505,637,o),
(499,650,o),
(479,650,cs),
(149,650,l),
(159,600,l)
);
}
);
width = 517;
},
{
layerId = "140DECC1-64C4-40C0-9C07-503DBC3F4160";
shapes = (
{
closed = 1;
nodes = (
(101,0,o),
(121,21,o),
(126,51,cs),
(222,597,ls),
(229,638,o),
(203,650,o),
(175,650,cs),
(144,650,o),
(129,638,o),
(124,610,cs),
(26,54,ls),
(21,27,o),
(31,0,o),
(70,0,cs)
);
},
{
closed = 1;
nodes = (
(432,265,ls),
(464,265,o),
(481,284,o),
(481,308,cs),
(481,334,o),
(463,350,o),
(433,350,cs),
(168,350,l),
(153,265,l)
);
},
{
closed = 1;
nodes = (
(505,555,ls),
(535,555,o),
(559,575,o),
(559,604,cs),
(559,632,o),
(541,650,o),
(510,650,cs),
(178,650,l),
(205,555,l)
);
}
);
width = 584;
}
);
metricLeft = N;
metricRight = N;
unicode = 70;
},
{
glyphname = G;
lastChange = "2022-03-17 12:51:44 +0000";
layers = (
{
layerId = m01;
shapes = (
{
closed = 1;
nodes = (
(404,-1,o),
(409,16,o),
(411,27,cs),
(450,253,ls),
(453,270,o),
(449,280,o),
(432,280,cs),
(412,280,o),
(401,266,o),
(399,253,cs),
(360,27,ls),
(358,15,o),
(361,1,o),
(381,0,cs)
);
},
{
closed = 1;
nodes = (
(285,0,o),
(371,79,o),
(428,211,c),
(426,280,l),
(410,280,o),
(400,266,o),
(389,240,cs),
(336,119,o),
(265,46,o),
(200,46,cs),
(133,46,o),
(54,136,o),
(83,304,cs),
(103,419,o),
(151,604,o),
(326,604,cs),
(372,604,o),
(418,584,o),
(463,537,cs),
(476,524,o),
(490,527,o),
(498,536,cs),
(506,545,o),
(504,561,o),
(495,570,cs),
(446,621,o),
(389,650,o),
(327,650,cs),
(115,650,o),
(58,447,o),
(33,305,cs),
(-2,108,o),
(103,0,o),
(199,0,cs)
);
}
);
width = 528;
},
{
layerId = "140DECC1-64C4-40C0-9C07-503DBC3F4160";
shapes = (
{
closed = 1;
nodes = (
(453,0,o),
(462,18,o),
(466,42,cs),
(506,267,ls),
(511,298,o),
(495,317,o),
(464,317,cs),
(425,317,o),
(411,283,o),
(409,274,cs),
(369,49,ls),
(363,18,o),
(384,0,o),
(418,0,cs)
);
},
{
closed = 1;
nodes = (
(327,0,o),
(414,109,o),
(468,209,c),
(463,317,l),
(444,317,o),
(423,312,o),
(397,266,cs),
(347,178,o),
(282,90,o),
(235,90,cs),
(181,90,o),
(116,148,o),
(143,304,cs),
(161,408,o),
(198,560,o),
(361,560,cs),
(407,560,o),
(439,550,o),
(471,520,cs),
(495,498,o),
(525,489,o),
(547,511,cs),
(570,534,o),
(557,563,o),
(532,586,cs),
(479,634,o),
(424,650,o),
(362,650,cs),
(138,650,o),
(70,459,o),
(43,305,cs),
(6,96,o),
(138,0,o),
(234,0,cs)
);
}
);
width = 596;
}
);
metricLeft = O;
metricRight = N;
unicode = 71;
},
{
glyphname = H;
lastChange = "2022-03-17 11:53:40 +0000";
layers = (
{
layerId = m01;
shapes = (
{
closed = 1;
nodes = (
(58,0,o),
(62,15,o),
(64,25,cs),
(168,619,ls),
(171,637,o),
(165,650,o),
(148,650,cs),
(129,650,o),
(121,639,o),
(118,623,cs),
(13,27,ls),
(10,12,o),
(18,0,o),
(36,0,cs)
);
},
{
closed = 1;
nodes = (
(406,304,l),
(414,350,l),
(112,350,l),
(104,304,l)
);
},
{
closed = 1;
nodes = (
(391,0,o),
(397,13,o),
(399,22,cs),
(504,621,ls),
(507,638,o),
(501,650,o),
(481,650,cs),
(463,650,o),
(456,638,o),
(454,628,cs),
(349,27,ls),
(347,15,o),
(349,0,o),
(372,0,cs)
);
}
);
width = 517;
},
{
layerId = "140DECC1-64C4-40C0-9C07-503DBC3F4160";
shapes = (
{
closed = 1;
nodes = (
(107,0,o),
(123,20,o),
(126,40,cs),
(223,597,ls),
(229,632,o),
(211,650,o),
(182,650,cs),
(155,650,o),
(129,637,o),
(124,609,cs),
(26,49,ls),
(21,21,o),
(41,0,o),
(73,0,cs)
);
},
{
closed = 1;
nodes = (
(418,270,l),
(432,350,l),
(160,350,l),
(146,270,l)
);
},
{
closed = 1;
nodes = (
(435,0,o),
(456,17,o),
(460,37,cs),
(558,599,ls),
(564,631,o),
(543,650,o),
(512,650,cs),
(484,650,o),
(463,635,o),
(459,613,cs),
(361,49,ls),
(356,20,o),
(373,0,o),
(406,0,cs)
);
}
);
width = 584;
}
);
metricLeft = N;
metricRight = N;
unicode = 72;
},
{
glyphname = I;
lastChange = "2022-03-17 11:54:27 +0000";
layers = (
{
layerId = m01;
shapes = (
{
closed = 1;
nodes = (
(111,25,l),
(215,619,l),
(164,620,l),
(60,25,l)
);
},
{
closed = 1;
nodes = (
(128,0,ls),
(148,0,o),
(154,11,o),
(154,23,cs),
(154,35,o),
(148,46,o),
(128,46,cs),
(39,46,ls),
(19,46,o),
(13,35,o),
(13,23,cs),
(13,11,o),
(19,0,o),
(39,0,cs)
);
},
{
closed = 1;
nodes = (
(236,604,ls),
(256,604,o),
(262,616,o),
(262,628,cs),
(262,640,o),
(256,650,o),
(236,650,cs),
(147,650,ls),
(127,650,o),
(121,640,o),
(121,628,cs),
(121,616,o),
(127,604,o),
(147,604,cs)
);
}
);
width = 274;
},
{
layerId = "140DECC1-64C4-40C0-9C07-503DBC3F4160";
shapes = (
{
closed = 1;
nodes = (
(170,65,l),
(259,584,l),
(158,584,l),
(69,65,l)
);
},
{
closed = 1;
nodes = (
(158,0,ls),
(191,0,o),
(202,15,o),
(206,39,cs),
(210,63,o),
(197,78,o),
(172,78,cs),
(74,78,ls),
(42,78,o),
(27,63,o),
(23,39,cs),
(19,15,o),
(35,0,o),
(60,0,cs)
);
},
{
closed = 1;
nodes = (
(258,570,ls),
(290,570,o),
(304,588,o),
(308,612,cs),
(312,636,o),
(295,650,o),
(272,650,cs),
(174,650,ls),
(143,650,o),
(129,636,o),
(125,612,cs),
(121,588,o),
(137,570,o),
(160,570,cs)
);
}
);
width = 331;
}
);
metricLeft = N;
metricRight = N;
unicode = 73;
},
{
glyphname = J;
lastChange = "2022-03-17 12:00:31 +0000";
layers = (
{
layerId = m01;
shapes = (
{
closed = 1;
nodes = (
(69,0,o),
(159,5,o),
(178,7,cs),
(248,16,o),
(285,46,o),
(310,86,cs),
(344,140,o),
(352,211,o),
(367,296,cs),
(423,611,l),
(372,611,l),
(317,301,ls),
(305,232,o),
(296,161,o),
(267,113,cs),
(249,82,o),
(223,59,o),
(182,54,cs),
(155,51,o),
(62,46,o),
(38,46,cs),
(26,46,o),
(13,38,o),
(13,24,cs),
(13,9,o),
(26,0,o),
(38,0,cs)
);
},
{
closed = 1;
nodes = (
(552,600,ls),
(572,600,o),
(578,613,o),
(578,625,cs),
(578,637,o),
(572,650,o),
(552,650,cs),
(248,650,ls),
(228,650,o),
(222,637,o),
(222,625,cs),
(222,613,o),
(228,600,o),
(248,600,cs)
);
}
);
width = 590;
},
{
layerId = "140DECC1-64C4-40C0-9C07-503DBC3F4160";
shapes = (
{
closed = 1;
nodes = (
(104,0,o),
(190,2,o),
(208,4,cs),
(284,14,o),
(325,48,o),
(351,88,cs),
(385,145,o),
(399,215,o),
(413,294,cs),
(463,573,l),
(361,573,l),
(314,306,ls),
(303,241,o),
(292,178,o),
(267,137,cs),
(252,111,o),
(237,99,o),
(206,95,cs),
(182,92,o),
(95,90,o),
(74,90,cs),
(50,90,o),
(25,71,o),
(25,45,cs),
(25,18,o),
(50,0,o),
(74,0,cs)
);
},
{
closed = 1;
nodes = (
(562,555,ls),
(594,555,o),
(612,576,o),
(612,602,cs),
(612,630,o),
(593,650,o),
(563,650,cs),
(275,650,ls),
(244,650,o),
(225,629,o),
(225,602,cs),
(225,574,o),
(244,555,o),
(274,555,cs)
);
}
);
width = 638;
}
);
metricLeft = N;
metricRight = N;
unicode = 74;
},
{
glyphname = K;
lastChange = "2022-03-17 12:01:18 +0000";
layers = (
{
layerId = m01;
shapes = (
{
closed = 1;
nodes = (
(487,599,ls),
(499,609,o),
(504,619,o),
(506,628,cs),
(507,640,o),
(499,650,o),
(486,650,cs),
(478,651,o),
(467,647,o),
(455,637,cs),
(118,360,l),
(118,348,l),
(176,343,l)
);
},
{
closed = 1;
nodes = (
(385,0,o),
(395,6,o),
(398,17,cs),
(400,24,o),
(398,32,o),
(391,42,cs),
(174,354,l),
(118,356,l),
(119,345,l),
(346,19,ls),
(353,9,o),
(362,0,o),
(375,0,cs)
);
},
{
closed = 1;
nodes = (
(58,0,o),
(63,18,o),
(65,31,cs),
(169,619,ls),
(172,637,o),
(168,650,o),
(149,650,cs),
(129,650,o),
(122,639,o),
(119,623,cs),
(14,32,ls),
(11,17,o),
(19,0,o),
(37,0,cs)
);
}
);
width = 467;
},
{
layerId = "140DECC1-64C4-40C0-9C07-503DBC3F4160";
shapes = (
{
closed = 1;
nodes = (
(534,560,ls),
(548,572,o),
(557,587,o),
(559,602,cs),
(562,625,o),
(544,650,o),
(515,650,cs),
(499,650,o),
(479,644,o),
(463,631,cs),
(142,368,l),
(142,326,l),
(238,318,l)
);
},
{
closed = 1;
nodes = (
(428,0,o),
(451,10,o),
(455,31,cs),
(458,44,o),
(457,60,o),
(447,74,cs),
(242,368,l),
(142,382,l),
(141,338,l),
(359,25,ls),
(370,9,o),
(389,0,o),
(408,0,cs)
);
},
{
closed = 1;
nodes = (
(105,0,o),
(121,19,o),
(126,45,cs),
(224,597,ls),
(231,636,o),
(204,650,o),
(180,650,cs),
(154,650,o),
(130,637,o),
(125,609,cs),
(26,54,ls),
(21,24,o),
(42,0,o),
(74,0,cs)
);
}
);
width = 534;
}
);
metricLeft = N;
unicode = 75;
},
{
glyphname = L;
lastChange = "2022-03-17 12:02:00 +0000";
layers = (
{
layerId = m01;
shapes = (
{
closed = 1;
nodes = (
(58,0,o),
(61,15,o),
(63,25,cs),
(168,619,ls),
(171,637,o),
(168,650,o),
(148,650,cs),
(128,650,o),
(121,639,o),
(118,623,cs),
(13,27,ls),
(10,12,o),
(18,0,o),
(36,0,cs)
);
},
{
closed = 1;
nodes = (
(373,0,ls),
(391,0,o),
(399,14,o),
(399,26,cs),
(399,38,o),
(391,50,o),
(373,50,cs),
(60,50,l),
(41,0,l)
);
}
);
width = 467;
},
{
layerId = "140DECC1-64C4-40C0-9C07-503DBC3F4160";
shapes = (
{
closed = 1;
nodes = (
(102,0,o),
(121,18,o),
(125,39,cs),
(224,597,ls),
(231,639,o),
(207,650,o),
(182,650,cs),
(153,650,o),
(129,637,o),
(124,609,cs),
(25,49,ls),
(20,21,o),
(38,0,o),
(68,0,cs)
);
},
{
closed = 1;
nodes = (
(414,0,ls),
(444,0,o),
(464,22,o),
(464,46,cs),
(464,70,o),
(444,90,o),
(414,90,cs),
(124,90,l),
(69,0,l)
);
}
);
width = 537;
}
);
metricLeft = N;
metricRight = K;
unicode = 76;
},
{
glyphname = M;
lastChange = "2022-03-17 12:03:54 +0000";
layers = (
{
layerId = m01;
shapes = (
{
closed = 1;
nodes = (
(12,0,o),
(24,7,o),
(34,25,cs),
(330,593,l),
(321,650,l),
(303,650,o),
(297,639,o),
(290,625,cs),
(-16,38,ls),
(-22,26,o),
(-22,16,o),
(-18,10,cs),
(-14,4,o),
(-7,0,o),
(1,0,cs)
);
},
{
closed = 1;
nodes = (
(392,61,l),
(346,631,ls),
(345,639,o),
(338,650,o),
(320,650,c),
(300,584,l),
(345,24,ls),
(346,14,o),
(350,0,o),
(374,0,c)
);
},
{
closed = 1;
nodes = (
(392,0,o),
(400,17,o),
(404,24,cs),
(697,586,l),
(687,650,l),
(672,650,o),
(666,635,o),
(660,624,cs),
(367,61,l),
(372,0,l)
);
},
{
closed = 1;
nodes = (
(761,0,o),
(769,11,o),
(768,26,cs),
(719,622,ls),
(718,638,o),
(715,650,o),
(686,650,c),
(670,608,l),
(718,24,ls),
(719,14,o),
(724,0,o),
(745,0,cs)
);
}
);
width = 850;
},
{
layerId = "140DECC1-64C4-40C0-9C07-503DBC3F4160";
shapes = (
{
closed = 1;
nodes = (
(51,0,o),
(78,9,o),
(91,33,cs),
(363,555,l),
(331,650,l),
(303,650,o),
(294,638,o),
(283,617,cs),
(-6,64,ls),
(-15,47,o),
(-14,34,o),
(-7,21,cs),
(0,8,o),
(18,0,o),
(33,0,cs)
);
},
{
closed = 1;
nodes = (
(428,91,l),
(385,606,ls),
(383,635,o),
(371,650,o),
(330,650,c),
(288,559,l),
(332,40,ls),
(334,18,o),
(351,0,o),
(382,0,c)
);
},
{
closed = 1;
nodes = (
(421,0,o),
(431,19,o),
(437,31,cs),
(717,566,l),
(691,650,l),
(660,650,o),
(643,638,o),
(631,616,cs),
(352,86,l),
(381,0,l)
);
},
{
closed = 1;
nodes = (
(762,0,o),
(781,20,o),
(779,46,cs),
(733,606,ls),
(731,635,o),
(725,650,o),
(689,650,c),
(636,562,l),
(679,40,ls),
(681,19,o),
(702,0,o),
(733,0,cs)
);
}
);
width = 857;
}
);
metricLeft = A;
metricRight = A;
unicode = 77;
},
{
glyphname = N;
lastChange = "2022-03-17 12:50:23 +0000";
layers = (
{
layerId = m01;
shapes = (
{
closed = 1;
nodes = (
(426,67,l),
(178,630,ls),
(174,639,o),
(165,650,o),
(147,650,c),
(140,589,l),
(393,18,ls),
(397,8,o),
(406,0,o),
(420,0,c)
);
},
{
closed = 1;
nodes = (
(58,0,o),
(62,16,o),
(64,28,cs),
(167,612,l),
(148,650,l),
(126,650,o),
(121,639,o),
(118,623,cs),
(13,27,ls),
(10,12,o),
(18,0,o),
(36,0,cs)
);
},
{
closed = 1;
nodes = (
(441,0,o),
(443,15,o),
(445,25,cs),
(549,619,ls),
(552,637,o),
(549,650,o),
(530,650,cs),
(510,650,o),
(503,639,o),
(500,623,cs),
(398,48,l),
(419,0,l)
);
}
);
width = 562;
},
{
layerId = "140DECC1-64C4-40C0-9C07-503DBC3F4160";
shapes = (
{
closed = 1;
nodes = (
(437,132,l),
(220,620,ls),
(211,641,o),
(193,650,o),
(167,650,c),
(169,495,l),
(376,28,ls),
(384,10,o),
(399,0,o),
(425,0,c)
);
},
{
closed = 1;
nodes = (
(101,0,o),
(121,19,o),
(125,42,cs),
(208,495,l),
(180,650,l),
(148,650,o),
(131,636,o),
(126,609,cs),
(25,49,ls),
(20,21,o),
(39,0,o),
(68,0,cs)
);
},
{
closed = 1;
nodes = (
(458,0,o),
(467,19,o),
(471,40,cs),
(569,597,ls),
(575,629,o),
(559,653,o),
(526,653,cs),
(498,653,o),
(475,637,o),
(470,609,cs),
(381,105,l),
(424,0,l)
);
}
);
width = 595;
}
);
unicode = 78;
},
{
glyphname = O;
lastChange = "2022-03-17 12:51:09 +0000";
layers = (
{
layerId = m01;
shapes = (
{
closed = 1;
nodes = (
(381,0,o),
(458,256,o),
(481,387,cs),
(510,551,o),
(457,650,o),
(315,650,cs),
(137,650,o),
(61,467,o),
(37,329,cs),
(9,167,o),
(36,0,o),
(209,0,cs)
);
},
{
closed = 1;
nodes = (
(75,46,o),
(65,202,o),
(86,319,cs),
(102,406,o),
(164,604,o),
(310,604,cs),
(443,604,o),
(451,495,o),
(431,381,cs),
(412,271,o),
(324,46,o),
(208,46,cs)
);
}
);
width = 510;
},
{
layerId = "140DECC1-64C4-40C0-9C07-503DBC3F4160";
shapes = (
{
closed = 1;
nodes = (
(441,0,o),
(518,256,o),
(541,387,cs),
(570,551,o),
(517,650,o),
(350,650,cs),
(147,650,o),
(71,467,o),
(47,329,cs),
(19,167,o),
(46,0,o),
(244,0,cs)
);
},
{
closed = 1;
nodes = (
(122,90,o),
(125,202,o),
(146,319,cs),
(162,406,o),
(211,560,o),
(345,560,cs),
(453,560,o),
(461,495,o),
(441,381,cs),
(422,271,o),
(347,90,o),
(243,90,cs)
);
}
);
width = 584;
}
);
unicode = 79;
},
{
glyphname = P;
lastChange = "2022-03-17 12:05:45 +0000";
layers = (
{
layerId = m01;
shapes = (
{
closed = 1;
nodes = (
(296,304,o),
(457,321,o),
(479,476,cs),
(496,597,o),
(366,650,o),
(152,650,c),
(155,604,l),
(359,604,o),
(439,557,o),
(429,481,cs),
(414,367,o),
(267,350,o),
(113,350,c),
(106,304,l)
);
},
{
closed = 1;
nodes = (
(58,0,o),
(61,15,o),
(63,25,cs),
(168,619,ls),
(171,637,o),
(169,650,o),
(148,650,cs),
(126,650,o),
(121,639,o),
(118,623,cs),
(13,27,ls),
(10,12,o),
(18,0,o),
(36,0,cs)
);
}
);
width = 446;
},
{
layerId = "140DECC1-64C4-40C0-9C07-503DBC3F4160";
shapes = (
{
closed = 1;
nodes = (
(317,274,o),
(510,289,o),
(535,467,cs),
(554,602,o),
(422,656,o),
(173,652,c),
(199,562,l),
(419,565,o),
(446,535,o),
(438,472,cs),
(427,382,o),
(288,364,o),
(165,363,c),
(153,273,l)
);
},
{
closed = 1;
nodes = (
(106,0,o),
(119,17,o),
(123,39,cs),
(221,597,ls),
(228,639,o),
(202,652,o),
(177,652,cs),
(147,652,o),
(129,637,o),
(124,609,cs),
(25,48,ls),
(20,21,o),
(39,0,o),
(72,0,cs)
);
}
);
width = 518;
}
);
metricLeft = N;
unicode = 80;
},
{
glyphname = Q;
lastChange = "2022-03-17 12:51:44 +0000";
layers = (
{
layerId = m01;
shapes = (
{
closed = 1;
nodes = (
(404,-69,o),
(404,-50,o),
(396,-38,cs),
(288,119,ls),
(278,133,o),
(260,140,o),
(246,128,cs),
(234,119,o),
(236,107,o),
(247,91,cs),
(351,-61,ls),
(361,-76,o),
(377,-84,o),
(390,-77,cs)
);
},
{
closed = 1;
nodes = (
(381,0,o),
(458,256,o),
(481,387,cs),
(510,551,o),
(457,650,o),
(315,650,cs),
(137,650,o),
(61,467,o),
(37,329,cs),
(9,167,o),
(36,0,o),
(209,0,cs)
);
},
{
closed = 1;
nodes = (
(75,46,o),
(65,202,o),
(86,319,cs),
(102,406,o),
(164,604,o),
(310,604,cs),
(443,604,o),
(451,495,o),
(431,381,cs),
(412,271,o),
(324,46,o),
(208,46,cs)
);
}
);
width = 510;
},
{
layerId = "140DECC1-64C4-40C0-9C07-503DBC3F4160";
shapes = (
{
closed = 1;
nodes = (
(448,-57,o),
(450,-28,o),
(434,-4,cs),
(334,143,l),
(313,170,o),
(278,175,o),
(260,160,cs),
(241,145,o),
(235,120,o),
(253,93,cs),
(351,-50,ls),
(369,-76,o),
(401,-84,o),
(422,-71,cs)
);
},
{
closed = 1;
nodes = (
(441,0,o),
(518,256,o),
(541,387,cs),
(570,551,o),
(517,650,o),
(350,650,cs),
(147,650,o),
(71,467,o),
(47,329,cs),
(19,167,o),
(46,0,o),
(244,0,cs)
);
},
{
closed = 1;
nodes = (
(122,90,o),
(125,202,o),
(146,319,cs),
(162,406,o),
(211,560,o),
(345,560,cs),
(453,560,o),
(461,495,o),
(441,381,cs),
(422,271,o),
(347,90,o),
(243,90,cs)
);
}
);
width = 584;
}
);
metricLeft = O;
metricRight = O;
unicode = 81;
},
{
glyphname = R;
lastChange = "2022-03-17 12:06:51 +0000";
layers = (
{
layerId = m01;
shapes = (
{
closed = 1;
nodes = (
(289,304,o),
(457,321,o),
(479,476,cs),
(496,597,o),
(369,650,o),
(152,650,c),
(152,604,l),
(345,604,o),
(440,560,o),
(429,481,cs),
(413,368,o),
(265,350,o),
(106,350,c),
(99,304,l)
);
},
{
closed = 1;
nodes = (
(384,0,o),
(394,7,o),
(397,15,cs),
(400,23,o),
(399,35,o),
(393,43,cs),
(163,321,l),
(92,328,l),
(349,18,ls),
(359,5,o),
(366,0,o),
(374,0,cs)
);
},
{
closed = 1;
nodes = (
(58,0,o),
(62,16,o),
(65,31,cs),
(168,619,ls),
(171,637,o),
(169,650,o),
(148,650,cs),
(126,650,o),
(121,639,o),
(118,623,cs),
(14,33,ls),
(11,16,o),
(18,0,o),
(36,0,cs)
);
}
);
width = 467;
},
{
layerId = "140DECC1-64C4-40C0-9C07-503DBC3F4160";
shapes = (
{
closed = 1;
nodes = (
(314,273,o),
(503,289,o),
(535,467,cs),
(559,602,o),
(422,650,o),
(175,650,c),
(199,560,l),
(391,563,o),
(449,533,o),
(438,470,cs),
(423,382,o),
(290,363,o),
(158,363,c),
(154,273,l)
);
},
{
closed = 1;
nodes = (
(432,0,o),
(453,11,o),
(458,29,cs),
(462,42,o),
(463,57,o),
(453,69,cs),
(246,318,l),
(117,318,l),
(361,23,ls),
(378,3,o),
(400,0,o),
(413,0,cs)
);
},
{
closed = 1;
nodes = (
(96,0,o),
(122,23,o),
(127,53,cs),
(223,597,ls),
(230,638,o),
(207,650,o),
(179,650,cs),
(148,650,o),
(129,637,o),
(124,609,cs),
(26,54,ls),
(21,24,o),
(33,0,o),
(65,0,cs)
);
}
);
width = 534;
}
);
metricLeft = N;
metricRight = K;
unicode = 82;
},
{
glyphname = S;
lastChange = "2022-03-17 12:07:25 +0000";
layers = (
{
layerId = m01;
shapes = (
{
closed = 1;
nodes = (
(257,0,o),
(339,50,o),
(361,172,cs),
(376,258,o),
(315,318,o),
(244,368,cs),
(170,419,o),
(117,452,o),
(125,497,cs),
(135,555,o),
(213,604,o),
(289,604,cs),
(358,604,o),
(374,584,o),
(380,547,cs),
(382,534,o),
(402,531,o),
(414,534,cs),
(429,538,o),
(429,552,o),
(427,562,cs),
(415,626,o),
(375,650,o),
(290,650,cs),
(162,650,o),
(88,576,o),
(76,505,cs),
(62,422,o),
(133,386,o),
(204,335,cs),
(283,279,o),
(321,236,o),
(311,177,cs),
(296,88,o),
(232,46,o),
(113,46,cs),
(88,46,o),
(57,66,o),
(50,103,cs),
(47,116,o),
(28,119,o),
(16,116,cs),
(1,112,o),
(1,98,o),
(3,88,cs),
(13,30,o),
(67,0,o),
(113,0,cs)
);
}
);
width = 422;
},
{
layerId = "140DECC1-64C4-40C0-9C07-503DBC3F4160";
shapes = (
{
closed = 1;
nodes = (
(268,0,o),
(379,51,o),
(401,174,cs),
(420,285,o),
(339,341,o),
(277,385,cs),
(226,421,o),
(162,456,o),
(162,484,cs),
(162,522,o),
(227,560,o),
(305,560,cs),
(349,560,o),
(372,549,o),
(376,526,cs),
(381,496,o),
(411,489,o),
(433,495,cs),
(458,503,o),
(467,524,o),
(463,548,cs),
(449,621,o),
(400,650,o),
(320,650,cs),
(163,650,o),
(65,573,o),
(65,480,cs),
(65,392,o),
(156,352,o),
(210,313,cs),
(274,266,o),
(313,227,o),
(306,184,cs),
(296,122,o),
(246,92,o),
(175,92,cs),
(113,92,o),
(91,103,o),
(87,124,cs),
(81,153,o),
(52,160,o),
(31,154,cs),
(5,148,o),
(-5,126,o),
(0,102,cs),
(12,34,o),
(57,0,o),
(131,0,cs)
);
}
);
width = 458;
}
);
unicode = 83;
},
{
glyphname = T;
lastChange = "2022-03-17 12:51:44 +0000";
layers = (
{
layerId = m01;
shapes = (
{
closed = 1;
nodes = (
(252,0,o),
(255,15,o),
(257,25,cs),
(361,619,l),
(310,619,l),
(207,27,ls),
(204,12,o),
(212,0,o),
(230,0,cs)
);
},
{
closed = 1;
nodes = (
(560,600,ls),
(580,600,o),
(586,613,o),
(586,625,cs),
(586,637,o),
(580,650,o),
(560,650,cs),
(116,650,ls),
(96,650,o),
(90,637,o),
(90,625,cs),
(90,613,o),
(96,600,o),
(116,600,cs)
);
}
);
width = 518;
},
{
layerId = "140DECC1-64C4-40C0-9C07-503DBC3F4160";
shapes = (
{
closed = 1;
nodes = (
(289,-1,o),
(306,18,o),
(310,39,cs),
(405,580,l),
(304,580,l),
(210,49,ls),
(205,21,o),
(225,-1,o),
(256,-1,cs)
);
},
{
closed = 1;
nodes = (
(571,563,ls),
(603,563,o),
(621,583,o),
(621,607,cs),
(621,633,o),
(601,653,o),
(571,653,cs),
(147,653,ls),
(117,653,o),
(97,633,o),
(97,607,cs),
(97,583,o),
(115,563,o),
(147,563,cs)
);
}
);
width = 561;
}
);
metricLeft = O;
unicode = 84;
},
{
glyphname = U;
lastChange = "2022-03-17 12:08:40 +0000";
layers = (
{
layerId = m01;
shapes = (
{
closed = 1;
nodes = (
(222,-4,o),
(322,160,o),
(412,321,c),
(443,381,l),
(470,520,l),
(442,520,l),
(439,509,l),
(417,415,o),
(374,350,o),
(356,320,cs),
(293,217,o),
(193,42,o),
(115,42,cs),
(68,42,o),
(78,116,o),
(90,180,cs),
(170,622,ls),
(173,636,o),
(164,649,o),
(149,650,cs),
(133,650,o),
(122,636,o),
(119,620,cs),
(40,183,ls),
(16,52,o),
(48,-4,o),
(107,-4,cs)
);
},
{
closed = 1;
nodes = (
(384,-1,o),
(396,7,o),
(399,22,cs),
(505,624,ls),
(508,639,o),
(501,650,o),
(481,650,cs),
(463,650,o),
(456,638,o),
(454,626,cs),
(349,27,ls),
(346,8,o),
(358,-1,o),
(372,-1,cs)
);
}
);
width = 517;
},
{
layerId = "140DECC1-64C4-40C0-9C07-503DBC3F4160";
shapes = (
{
closed = 1;
nodes = (
(259,-4,o),
(338,108,o),
(424,247,c),
(497,385,l),
(531,543,l),
(453,543,l),
(445,510,ls),
(424,423,o),
(392,369,o),
(375,342,cs),
(331,270,o),
(226,86,o),
(157,86,cs),
(138,86,o),
(140,125,o),
(151,185,cs),
(225,600,ls),
(230,629,o),
(209,650,o),
(180,650,cs),
(148,651,o),
(128,624,o),
(125,606,cs),
(51,195,ls),
(26,57,o),
(68,-4,o),
(141,-4,cs)
);
},
{
closed = 1;
nodes = (
(430,0,o),
(456,12,o),
(460,37,cs),
(559,602,ls),
(564,630,o),
(546,650,o),
(512,650,cs),
(484,650,o),
(463,635,o),
(459,612,cs),
(361,49,ls),
(355,16,o),
(379,0,o),
(407,0,cs)
);
}
);
width = 584;
}
);
metricLeft = N;
metricRight = N;
unicode = 85;
},
{
glyphname = V;
lastChange = "2022-03-17 12:10:02 +0000";
layers = (
{
layerId = m01;
shapes = (
{
closed = 1;
nodes = (
(165,0,o),
(169,11,o),
(176,25,cs),
(469,618,ls),
(479,638,o),
(467,650,o),
(452,650,cs),
(433,650,o),
(426,642,o),
(417,625,cs),
(149,83,l),
(146,0,l)
);
},
{
closed = 1;
nodes = (
(166,83,l),
(136,626,ls),
(135,636,o),
(131,650,o),
(109,650,c),
(91,650,o),
(85,639,o),
(86,624,cs),
(119,28,ls),
(120,15,o),
(128,0,o),
(147,0,c)
);
}
);
width = 438;
},
{
layerId = "140DECC1-64C4-40C0-9C07-503DBC3F4160";
shapes = (
{
closed = 1;
nodes = (
(199,-2,o),
(211,15,o),
(221,34,cs),
(497,591,ls),
(514,625,o),
(492,650,o),
(460,650,cs),
(431,650,o),
(412,638,o),
(402,618,cs),
(179,166,l),
(170,-2,l)
);
},
{
closed = 1;
nodes = (
(210,163,l),
(185,610,ls),
(184,633,o),
(166,650,o),
(134,650,cs),
(105,650,o),
(86,634,o),
(88,604,cs),
(120,44,ls),
(121,19,o),
(141,-1,o),
(171,-2,c)
);
}
);
width = 457;
}
);
metricLeft = A;
unicode = 86;
},
{
glyphname = W;
lastChange = "2022-03-17 12:25:27 +0000";
layers = (
{
layerId = m01;
shapes = (
{
closed = 1;
nodes = (
(506,0,o),
(511,11,o),
(518,25,cs),
(810,618,ls),
(815,627,o),
(816,635,o),
(813,640,cs),
(809,647,o),
(801,650,o),
(794,650,cs),
(786,650,o),
(780,649,o),
(776,646,cs),
(766,640,o),
(762,632,o),
(758,625,cs),
(488,78,l),
(488,0,l)
);
},
{
closed = 1;
nodes = (
(167,74,l),
(136,626,ls),
(135,636,o),
(131,650,o),
(109,650,c),
(91,650,o),
(85,639,o),
(86,624,cs),
(119,28,ls),
(120,12,o),
(131,0,o),
(152,0,c)
);
},
{
closed = 1;
nodes = (
(165,0,o),
(173,15,o),
(178,26,cs),
(446,572,l),
(447,650,l),
(431,650,o),
(421,633,o),
(417,626,cs),
(146,74,l),
(151,0,l)
);
},
{
closed = 1;
nodes = (
(509,78,l),
(477,626,ls),
(476,636,o),
(471,650,o),
(446,650,c),
(430,571,l),
(462,19,ls),
(463,6,o),
(471,0,o),
(489,0,c)
);
}
);
width = 779;
},
{
layerId = "140DECC1-64C4-40C0-9C07-503DBC3F4160";
shapes = (
{
closed = 1;
nodes = (
(527,0,o),
(540,12,o),
(550,33,cs),
(824,591,ls),
(830,604,o),
(830,616,o),
(824,628,cs),
(818,644,o),
(800,650,o),
(785,650,cs),
(771,650,o),
(758,646,o),
(750,640,cs),
(740,633,o),
(733,625,o),
(728,615,cs),
(514,171,l),
(499,0,l)
);
},
{
closed = 1;
nodes = (
(205,156,l),
(185,610,ls),
(184,633,o),
(167,650,o),
(135,650,cs),
(106,650,o),
(86,634,o),
(88,604,cs),
(118,44,ls),
(120,15,o),
(139,0,o),
(173,0,c)
);
},
{
closed = 1;
nodes = (
(203,0,o),
(210,14,o),
(220,34,cs),
(450,495,l),
(453,650,l),
(419,650,o),
(410,631,o),
(404,619,cs),
(176,156,l),
(172,0,l)
);
},
{
closed = 1;
nodes = (
(537,171,l),
(506,610,ls),
(504,635,o),
(487,650,o),
(452,650,c),
(420,494,l),
(451,32,ls),
(452,15,o),
(481,0,o),
(500,0,c)
);
}
);
width = 783;
}
);
metricLeft = V;
metricRight = V;
unicode = 87;
},
{
glyphname = X;
lastChange = "2022-03-17 12:36:50 +0000";
layers = (
{
layerId = m01;
shapes = (
{
closed = 1;
nodes = (
(31,-3,o),
(50,-4,o),
(61,11,cs),
(495,609,ls),
(506,624,o),
(504,638,o),
(495,645,cs),
(485,653,o),
(466,652,o),
(455,637,cs),
(18,38,ls),
(9,26,o),
(11,13,o),
(20,6,cs)
);
},
{
closed = 1;
nodes = (
(396,8,o),
(402,20,o),
(396,35,cs),
(172,631,ls),
(165,650,o),
(146,654,o),
(134,649,cs),
(122,645,o),
(117,631,o),
(124,613,cs),
(346,19,ls),
(353,0,o),
(373,-3,o),
(386,3,cs)
);
}
);
width = 487;
},
{
layerId = "140DECC1-64C4-40C0-9C07-503DBC3F4160";
shapes = (
{
closed = 1;
nodes = (
(58,-3,o),
(98,-8,o),
(115,16,cs),
(518,578,ls),
(535,602,o),
(531,623,o),
(513,639,cs),
(495,655,o),
(459,656,o),
(441,631,cs),
(36,69,ls),
(21,48,o),
(21,29,o),
(39,13,cs)
);
},
{
closed = 1;
nodes = (
(431,17,o),
(441,36,o),
(431,61,cs),
(219,623,ls),
(208,651,o),
(176,654,o),
(153,647,cs),
(127,637,o),
(118,617,o),
(130,586,cs),
(338,28,ls),
(349,-1,o),
(387,-6,o),
(410,6,cs)
);
}
);
width = 529;
}
);
metricLeft = N;
unicode = 88;
},
{
glyphname = Y;
lastChange = "2022-03-17 12:37:56 +0000";
layers = (
{
layerId = m01;
shapes = (
{
closed = 1;
nodes = (
(498,609,ls),
(503,616,o),
(506,623,o),
(506,629,cs),
(506,635,o),
(503,641,o),
(497,645,cs),
(490,650,o),
(483,651,o),
(477,650,cs),
(470,648,o),
(462,643,o),
(457,637,cs),
(233,333,l),
(264,291,l)
);
},
{
closed = 1;
nodes = (
(229,0,o),
(233,15,o),
(235,25,cs),
(292,350,l),
(241,350,l),
(184,27,ls),
(181,12,o),
(189,0,o),
(207,0,cs)
);
},
{
closed = 1;
nodes = (
(277,349,l),
(171,630,ls),
(168,638,o),
(161,645,o),
(154,648,cs),
(149,651,o),
(142,651,o),
(134,648,cs),
(126,645,o),
(121,640,o),
(120,634,cs),
(119,628,o),
(121,621,o),
(124,613,cs),
(240,307,l)
);
}
);
width = 460;
},
{
layerId = "140DECC1-64C4-40C0-9C07-503DBC3F4160";
shapes = (
{
closed = 1;
nodes = (
(529,578,ls),
(537,589,o),
(541,599,o),
(541,611,cs),
(541,623,o),
(535,634,o),
(524,642,cs),
(512,653,o),
(494,653,o),
(484,653,c),
(473,650,o),
(458,642,o),
(451,632,cs),
(243,350,l),
(287,254,l)
);
},
{
closed = 1;
nodes = (
(268,-2,o),
(282,19,o),
(286,40,cs),
(343,371,l),
(242,371,l),
(186,49,ls),
(181,21,o),
(202,-2,o),
(234,-2,cs)
);
},
{
closed = 1;
nodes = (
(328,340,l),
(220,621,ls),
(216,632,o),
(207,642,o),
(194,648,cs),
(185,653,o),
(167,654,o),
(154,649,cs),
(139,643,o),
(128,632,o),
(125,619,cs),
(123,609,o),
(127,599,o),
(131,588,cs),
(258,266,l)
);
}
);
width = 497;
}
);
metricLeft = N;
unicode = 89;
},
{
glyphname = Z;
lastChange = "2022-03-17 12:39:45 +0000";
layers = (
{
layerId = m01;
shapes = (
{
closed = 1;
nodes = (
(52,0,o),
(58,7,o),
(61,11,cs),
(497,608,ls),
(505,619,o),
(507,630,o),
(503,638,cs),
(498,645,o),
(487,650,o),
(476,650,cs),
(469,650,o),
(462,644,o),
(457,638,cs),
(19,39,ls),
(14,32,o),
(10,22,o),
(15,13,cs),
(19,6,o),
(29,0,o),
(46,0,cs)
);
},
{
closed = 1;
nodes = (
(372,0,ls),
(392,0,o),
(398,13,o),
(398,25,cs),
(398,37,o),
(392,50,o),
(372,50,cs),
(78,50,l),
(39,0,l)
);
},
{
closed = 1;
nodes = (
(480,650,l),
(145,650,ls),
(125,650,o),
(119,637,o),
(119,625,cs),
(119,613,o),
(125,600,o),
(145,600,cs),
(437,600,l)
);
}
);
width = 516;
},
{
layerId = "140DECC1-64C4-40C0-9C07-503DBC3F4160";
shapes = (
{
closed = 1;
nodes = (
(98,0,o),
(113,10,o),
(118,17,cs),
(531,577,ls),
(545,595,o),
(547,614,o),
(539,629,cs),
(531,644,o),
(514,653,o),
(490,653,cs),
(476,653,o),
(457,644,o),
(449,633,cs),
(33,70,ls),
(23,57,o),
(21,39,o),
(29,23,cs),
(35,11,o),
(53,0,o),
(82,0,cs)
);
},
{
closed = 1;
nodes = (
(392,0,ls),
(424,0,o),
(442,19,o),
(442,43,cs),
(442,69,o),
(422,90,o),
(392,90,cs),
(149,90,l),
(79,0,l)
);
},
{
closed = 1;
nodes = (
(492,653,l),
(176,653,ls),
(146,653,o),
(126,633,o),
(126,607,cs),
(126,583,o),
(144,563,o),
(176,563,cs),
(427,563,l)
);
}
);
width = 568;
}
);
metricLeft = N;
metricRight = N;
unicode = 90;
},
{
glyphname = a;
lastChange = "2022-03-17 13:40:51 +0000";
layers = (
{
layerId = m01;
shapes = (
{
closed = 1;
nodes = (
(149,-4,o),
(193,49,o),
(229,113,c),
(250,270,l),
(197,139,o),
(132,42,o),
(97,42,cs),
(64,42,o),
(39,82,o),
(50,147,cs),
(60,205,o),
(99,304,o),
(233,304,c),
(256,304,l),
(264,350,l),
(230,350,l),
(64,350,o),
(15,237,o),
(-1,147,cs),
(-19,47,o),
(45,-4,o),
(89,-4,cs)
);
},
{
closed = 1;
nodes = (
(250,0,o),
(252,18,o),
(253,23,cs),
(305,316,ls),
(308,334,o),
(306,350,o),
(290,350,cs),
(260,350,l),
(202,23,ls),
(201,15,o),
(202,0,o),
(224,0,cs)
);
}
);
width = 356;
},
{
layerId = "140DECC1-64C4-40C0-9C07-503DBC3F4160";
shapes = (
{
closed = 1;
nodes = (
(189,-4,o),
(233,48,o),
(269,112,c),
(291,320,l),
(232,189,o),
(179,86,o),
(150,86,cs),
(122,86,o),
(107,101,o),
(115,147,cs),
(123,193,o),
(139,260,o),
(273,260,cs),
(285,260,l),
(294,350,l),
(270,350,ls),
(104,350,o),
(34,261,o),
(14,147,cs),
(-4,47,o),
(62,-4,o),
(129,-4,cs)
);
},
{
closed = 1;
nodes = (
(305,0,o),
(317,22,o),
(320,37,cs),
(365,295,ls),
(371,328,o),
(359,350,o),
(327,350,cs),
(279,350,l),
(225,44,ls),
(221,21,o),
(237,0,o),
(269,0,cs)
);
}
);
width = 420;
}
);
unicode = 97;
},
{
glyphname = b;
lastChange = "2022-03-17 13:11:27 +0000";
layers = (
{
layerId = m01;
shapes = (
{
closed = 1;
nodes = (
(169,-4,o),
(213,34,o),
(254,134,cs),
(278,193,o),
(285,276,o),
(282,311,c),
(265,324,o),
(232,372,o),
(232,338,cs),
(232,304,o),
(232,215,o),
(210,159,cs),
(181,86,o),
(147,46,o),
(109,46,cs),
(76,46,o),
(52,83,o),
(63,148,cs),
(64,154,l),
(13,154,l),
(12,148,ls),
(-5,47,o),
(57,-4,o),
(101,-4,cs)
);
},
{
closed = 1;
nodes = (
(64,154,l),
(147,623,ls),
(150,642,o),
(140,650,o),
(127,650,cs),
(114,650,o),
(99,640,o),
(96,623,cs),
(13,154,l)
);
},
{
closed = 1;
nodes = (
(319,281,ls),
(331,279,o),
(345,279,o),
(354,289,cs),
(361,295,o),
(364,307,o),
(359,317,cs),
(355,323,o),
(349,329,o),
(337,331,cs),
(239,350,l),
(274,290,l)
);
}
);
width = 341;
},
{
layerId = "140DECC1-64C4-40C0-9C07-503DBC3F4160";
shapes = (
{
closed = 1;
nodes = (
(218,-4,o),
(266,43,o),
(310,151,cs),
(333,207,o),
(342,284,o),
(341,327,c),
(308,334,o),
(241,371,o),
(241,333,cs),
(241,302,o),
(237,237,o),
(220,194,cs),
(192,125,o),
(172,96,o),
(149,96,cs),
(127,96,o),
(109,114,o),
(120,170,cs),
(127,205,l),
(25,205,l),
(20,178,ls),
(-2,59,o),
(81,-4,o),
(148,-4,cs)
);
},
{
closed = 1;
nodes = (
(127,205,l),
(199,619,ls),
(205,654,o),
(184,675,o),
(155,675,cs),
(130,675,o),
(104,656,o),
(99,627,cs),
(25,205,l)
);
},
{
closed = 1;
nodes = (
(360,227,ls),
(381,222,o),
(403,224,o),
(418,240,cs),
(433,254,o),
(438,280,o),
(427,299,cs),
(420,311,o),
(407,319,o),
(388,323,cs),
(291,343,l),
(324,235,l)
);
}
);
width = 421;
}
);
metricLeft = n;
unicode = 98;
},
{
glyphname = c;
lastChange = "2022-03-17 13:11:46 +0000";
layers = (
{
layerId = m01;
shapes = (
{
closed = 1;
nodes = (
(136,-4,o),
(190,60,o),
(226,131,cs),
(231,141,o),
(221,154,o),
(214,158,cs),
(206,162,o),
(188,165,o),
(182,154,cs),
(152,96,o),
(107,46,o),
(83,46,cs),
(55,46,o),
(47,77,o),
(48,105,cs),
(50,181,o),
(77,300,o),
(151,300,cs),
(183,300,o),
(200,297,o),
(220,289,cs),
(232,284,o),
(249,287,o),
(257,304,cs),
(264,319,o),
(261,329,o),
(241,337,cs),
(219,346,o),
(192,350,o),
(151,350,cs),
(38,350,o),
(-2,207,o),
(-3,95,cs),
(-3,20,o),
(42,-4,o),
(83,-4,cs)
);
}
);
width = 281;
},
{
layerId = "140DECC1-64C4-40C0-9C07-503DBC3F4160";
shapes = (
{
closed = 1;
nodes = (
(276,132,o),
(275,159,o),
(249,172,cs),
(223,185,o),
(197,179,o),
(189,164,cs),
(167,122,o),
(137,83,o),
(120,83,cs),
(106,83,o),
(97,99,o),
(99,118,cs),
(104,164,o),
(114,264,o),
(173,264,cs),
(184,264,o),
(224,264,o),
(241,257,cs),
(264,248,o),
(286,257,o),
(297,280,cs),
(313,314,o),
(287,332,o),
(274,337,cs),
(252,346,o),
(226,350,o),
(180,350,cs),
(50,350,o),
(22,233,o),
(10,120,cs),
(-1,24,o),
(61,-4,o),
(110,-4,cs),
(178,-4,o),
(235,56,o),
(270,121,cs)
);
}
);
width = 324;
}
);
unicode = 99;
},
{
glyphname = d;
lastChange = "2022-03-17 13:41:35 +0000";
layers = (
{
layerId = m01;
shapes = (
{
closed = 1;
nodes = (
(239,0,o),
(249,6,o),
(252,21,cs),
(359,623,ls),
(362,639,o),
(350,649,o),
(336,650,cs),
(325,651,o),
(312,646,o),
(309,631,cs),
(203,29,ls),
(200,11,o),
(214,1,o),
(228,0,cs)
);
},
{
closed = 1;
nodes = (
(149,-4,o),
(193,49,o),
(229,113,c),
(250,270,l),
(197,139,o),
(132,46,o),
(97,46,cs),
(64,46,o),
(39,82,o),
(50,147,cs),
(60,205,o),
(99,300,o),
(233,300,c),
(256,300,l),
(264,350,l),
(230,350,l),
(64,350,o),
(15,237,o),
(-1,147,cs),
(-19,47,o),
(45,-4,o),
(89,-4,cs)
);
}
);
width = 351;
},
{
layerId = "140DECC1-64C4-40C0-9C07-503DBC3F4160";
shapes = (
{
closed = 1;
nodes = (
(292,-2,o),
(318,12,o),
(323,40,cs),
(422,595,ls),
(428,627,o),
(407,648,o),
(379,650,cs),
(357,652,o),
(334,642,o),
(329,614,cs),
(228,53,ls),
(222,18,o),
(247,2,o),
(270,0,cs)
);
},
{
closed = 1;
nodes = (
(191,-4,o),
(235,48,o),
(271,112,c),
(293,320,l),
(234,189,o),
(181,86,o),
(152,86,cs),
(124,86,o),
(109,101,o),
(117,147,cs),
(125,193,o),
(141,260,o),
(275,260,cs),
(287,260,l),
(296,350,l),
(272,350,ls),
(106,350,o),
(36,261,o),
(16,147,cs),
(-2,47,o),
(64,-4,o),
(131,-4,cs)
);
}
);
width = 416;
}
);
metricRight = n;
unicode = 100;
},
{
glyphname = e;
lastChange = "2022-03-17 13:12:33 +0000";
layers = (
{
layerId = m01;
shapes = (
{
closed = 1;
nodes = (
(154,-4,o),
(192,50,o),
(203,64,cs),
(225,93,o),
(220,106,o),
(210,113,cs),
(199,121,o),
(184,122,o),
(165,97,cs),
(154,84,o),
(128,45,o),
(82,45,cs),
(50,45,o),
(43,64,o),
(45,98,cs),
(48,142,o),
(66,216,o),
(95,259,cs),
(119,294,o),
(147,303,o),
(172,303,cs),
(190,303,o),
(203,296,o),
(201,288,cs),
(197,267,o),
(158,239,o),
(109,210,cs),
(84,196,o),
(56,181,o),
(34,169,c),
(22,108,l),
(37,115,o),
(99,147,o),
(137,168,cs),
(177,191,o),
(241,230,o),
(252,291,cs),
(259,332,o),
(217,354,o),
(166,354,cs),
(147,354,o),
(98,350,o),
(54,284,cs),
(25,240,o),
(-2,167,o),
(-6,107,cs),
(-13,19,o),
(33,-4,o),
(81,-4,cs)
);
}
);
width = 282;
},
{
layerId = "140DECC1-64C4-40C0-9C07-503DBC3F4160";
shapes = (
{
closed = 1;
nodes = (
(201,-5,o),
(250,47,o),
(258,58,cs),
(283,90,o),
(271,117,o),
(257,128,cs),
(237,142,o),
(211,135,o),
(190,110,cs),
(178,96,o),
(155,80,o),
(130,80,cs),
(109,80,o),
(107,102,o),
(107,118,cs),
(107,155,o),
(115,205,o),
(137,239,cs),
(154,265,o),
(165,274,o),
(176,280,cs),
(186,285,o),
(208,291,o),
(214,276,cs),
(220,261,o),
(197,240,o),
(156,216,cs),
(129,200,o),
(83,175,o),
(65,166,c),
(52,77,l),
(111,104,o),
(167,132,o),
(199,151,cs),
(235,171,o),
(294,216,o),
(304,271,cs),
(313,321,o),
(263,354,o),
(201,354,cs),
(176,354,o),
(107,354,o),
(61,286,cs),
(34,243,o),
(12,173,o),
(8,117,cs),
(1,23,o),
(71,-5,o),
(123,-5,cs)
);
}
);
width = 319;
}
);
unicode = 101;
},
{
glyphname = f;
lastChange = "2022-03-17 13:13:19 +0000";
layers = (
{
layerId = m01;
shapes = (
{
closed = 1;
nodes = (
(9,-301,o),
(15,-286,o),
(18,-274,cs),
(158,522,ls),
(168,581,o),
(193,600,o),
(226,600,cs),
(237,600,o),
(256,594,o),
(268,586,cs),
(274,582,o),
(291,580,o),
(301,598,cs),
(310,615,o),
(299,626,o),
(291,631,cs),
(275,642,o),
(246,650,o),
(227,650,cs),
(177,650,o),
(125,622,o),
(110,534,cs),
(-32,-270,ls),
(-35,-282,o),
(-26,-298,o),
(-8,-300,cs)
);
},
{
closed = 1;
nodes = (
(189,305,ls),
(209,305,o),
(213,316,o),
(213,328,cs),
(213,340,o),
(206,350,o),
(186,350,cs),
(11,350,ls),
(-9,350,o),
(-14,340,o),
(-14,328,cs),
(-14,316,o),
(-6,305,o),
(14,305,cs)
);
}
);
width = 194;
},
{
layerId = "140DECC1-64C4-40C0-9C07-503DBC3F4160";
shapes = (
{
closed = 1;
nodes = (
(53,-299,o),
(75,-279,o),
(79,-255,cs),
(214,504,ls),
(221,542,o),
(243,559,o),
(261,559,cs),
(281,559,o),
(295,551,o),
(303,546,cs),
(315,538,o),
(340,540,o),
(356,567,cs),
(370,592,o),
(364,612,o),
(346,624,cs),
(320,641,o),
(294,650,o),
(261,650,cs),
(197,650,o),
(133,622,o),
(116,527,cs),
(-20,-241,ls),
(-24,-264,o),
(-12,-299,o),
(26,-299,cs)
);
},
{
closed = 1;
nodes = (
(224,265,ls),
(254,265,o),
(271,281,o),
(271,307,cs),
(271,331,o),
(251,350,o),
(219,350,cs),
(36,350,ls),
(5,350,o),
(-10,331,o),
(-10,307,cs),
(-10,283,o),
(10,265,o),
(41,265,cs)
);
}
);
width = 240;
}
);
unicode = 102;
},
{
glyphname = g;
lastChange = "2022-03-17 13:42:01 +0000";
layers = (
{
layerId = m01;
shapes = (
{
closed = 1;
nodes = (
(96,-303,o),
(133,-293,o),
(159,-270,cs),
(199,-238,o),
(217,-180,o),
(230,-107,cs),
(306,322,ls),
(309,340,o),
(302,350,o),
(282,350,c),
(260,350,l),
(181,-103,ls),
(173,-151,o),
(160,-202,o),
(128,-229,cs),
(109,-247,o),
(78,-252,o),
(45,-249,cs),
(26,-248,o),
(3,-236,o),
(-11,-228,cs),
(-18,-225,o),
(-32,-222,o),
(-43,-233,cs),
(-53,-245,o),
(-51,-259,o),
(-41,-267,cs),
(-24,-282,o),
(9,-297,o),
(45,-300,cs)
);
},
{
closed = 1;
nodes = (
(149,-4,o),
(193,49,o),
(229,113,c),
(250,270,l),
(197,139,o),
(132,46,o),
(97,46,cs),
(64,46,o),
(39,82,o),
(50,147,cs),
(60,205,o),
(99,300,o),
(233,300,c),
(256,300,l),
(264,350,l),
(230,350,l),
(64,350,o),
(15,237,o),
(-1,147,cs),
(-19,47,o),
(45,-4,o),
(89,-4,cs)
);
}
);
width = 357;
},
{
layerId = "140DECC1-64C4-40C0-9C07-503DBC3F4160";
shapes = (
{
closed = 1;
nodes = (
(151,-300,o),
(194,-283,o),
(234,-247,cs),
(281,-202,o),
(288,-125,o),
(303,-42,cs),
(363,299,ls),
(368,330,o),
(355,350,o),
(326,350,cs),
(277,350,l),
(211,-27,ls),
(200,-89,o),
(190,-150,o),
(159,-178,cs),
(139,-196,o),
(118,-202,o),
(97,-202,cs),
(76,-202,o),
(58,-198,o),
(51,-193,cs),
(39,-186,o),
(2,-175,o),
(-18,-201,cs),
(-44,-234,o),
(-26,-260,o),
(-11,-271,cs),
(2,-281,o),
(40,-300,o),
(92,-300,cs)
);
},
{
closed = 1;
nodes = (
(187,-4,o),
(231,48,o),
(267,112,c),
(289,320,l),
(230,189,o),
(177,86,o),
(148,86,cs),
(120,86,o),
(105,101,o),
(113,147,cs),
(121,193,o),
(137,260,o),
(271,260,cs),
(283,260,l),
(292,350,l),
(268,350,ls),
(102,350,o),
(32,261,o),
(12,147,cs),
(-6,47,o),
(60,-4,o),
(127,-4,cs)
);
}
);
width = 423;
}
);
unicode = 103;
},
{
glyphname = h;
lastChange = "2022-03-17 13:25:31 +0000";
layers = (
{
layerId = m01;
shapes = (
{
closed = 1;
nodes = (
(24,0,o),
(38,7,o),
(41,23,cs),
(147,623,ls),
(150,641,o),
(139,650,o),
(126,650,cs),
(113,650,o),
(99,641,o),
(96,623,cs),
(-10,23,ls),
(-13,8,o),
(-2,0,o),
(11,0,cs)
);
},
{
closed = 1;
nodes = (
(263,0,o),
(264,16,o),
(265,21,cs),
(302,230,ls),
(313,294,o),
(281,354,o),
(209,354,cs),
(154,354,o),
(113,319,o),
(67,246,c),
(57,114,l),
(119,251,o),
(164,305,o),
(206,305,cs),
(250,305,o),
(258,267,o),
(252,233,cs),
(215,24,ls),
(214,16,o),
(215,0,o),
(237,0,cs)
);
}
);
width = 363;
},
{
layerId = "140DECC1-64C4-40C0-9C07-503DBC3F4160";
shapes = (
{
closed = 1;
nodes = (
(65,-2,o),
(92,11,o),
(97,37,cs),
(196,601,ls),
(202,633,o),
(177,650,o),
(150,650,cs),
(126,650,o),
(101,637,o),
(96,609,cs),
(-3,45,ls),
(-8,17,o),
(14,-2,o),
(41,-2,cs)
);
},
{
closed = 1;
nodes = (
(308,0,o),
(324,19,o),
(327,34,cs),
(355,193,ls),
(372,292,o),
(330,354,o),
(240,354,cs),
(186,354,o),
(153,317,o),
(127,291,c),
(106,119,l),
(144,177,o),
(205,268,o),
(232,268,cs),
(256,268,o),
(261,238,o),
(256,208,cs),
(228,49,ls),
(224,25,o),
(240,0,o),
(272,0,cs)
);
}
);
width = 420;
}
);
metricLeft = n;
metricRight = n;
unicode = 104;
},
{
glyphname = i;
lastChange = "2022-03-17 13:27:16 +0000";
layers = (
{
layerId = m01;
shapes = (
{
closed = 1;
nodes = (
(36,0,o),
(51,10,o),
(54,28,cs),
(106,320,ls),
(110,340,o),
(98,350,o),
(86,350,cs),
(73,350,o),
(58,341,o),
(55,323,cs),
(3,28,ls),
(0,9,o),
(11,0,o),
(24,0,cs)
);
},
{
closed = 1;
nodes = (
(121,441,o),
(134,454,o),
(134,468,cs),
(134,483,o),
(120,494,o),
(106,494,cs),
(90,494,o),
(79,481,o),
(79,468,cs),
(79,454,o),
(91,441,o),
(106,441,cs)
);
}
);
width = 155;
},
{
layerId = "140DECC1-64C4-40C0-9C07-503DBC3F4160";
shapes = (
{
closed = 1;
nodes = (
(71,0,o),
(100,10,o),
(105,37,cs),
(150,294,ls),
(156,327,o),
(129,350,o),
(104,350,cs),
(80,350,o),
(55,332,o),
(50,305,cs),
(5,49,ls),
(0,19,o),
(23,0,o),
(49,0,cs)
);
},
{
closed = 1;
nodes = (
(159,417,o),
(182,439,o),
(182,466,cs),
(182,495,o),
(158,515,o),
(132,515,cs),
(105,515,o),
(84,493,o),
(84,466,cs),
(84,439,o),
(106,417,o),
(132,417,cs)
);
}
);
width = 203;
}
);
unicode = 105;
},
{
glyphname = j;
lastChange = "2022-03-17 13:15:08 +0000";
layers = (
{
layerId = m01;
shapes = (
{
closed = 1;
nodes = (
(106,440,o),
(119,453,o),
(119,468,cs),
(119,484,o),
(106,495,o),
(91,495,cs),
(76,495,o),
(64,484,o),
(64,468,cs),
(64,453,o),
(76,440,o),
(91,440,cs)
);
},
{
closed = 1;
nodes = (
(-118,-300,o),
(-79,-289,o),
(-53,-266,cs),
(-11,-228,o),
(4,-168,o),
(15,-107,cs),
(91,324,ls),
(94,341,o),
(83,350,o),
(69,350,cs),
(55,350,o),
(43,341,o),
(41,330,cs),
(-35,-103,ls),
(-41,-138,o),
(-53,-198,o),
(-83,-227,cs),
(-102,-245,o),
(-136,-250,o),
(-161,-250,cs),
(-189,-250,o),
(-212,-237,o),
(-227,-229,cs),
(-233,-226,o),
(-247,-223,o),
(-258,-234,cs),
(-269,-245,o),
(-267,-259,o),
(-256,-268,cs),
(-239,-282,o),
(-205,-300,o),
(-160,-300,cs)
);
}
);
width = 139;
},
{
layerId = "140DECC1-64C4-40C0-9C07-503DBC3F4160";
shapes = (
{
closed = 1;
nodes = (
(124,417,o),
(149,439,o),
(149,467,cs),
(149,496,o),
(124,517,o),
(98,517,cs),
(72,517,o),
(49,496,o),
(49,467,cs),
(49,439,o),
(72,417,o),
(98,417,cs)
);
},
{
closed = 1;
nodes = (
(-94,-300,o),
(-51,-287,o),
(-12,-245,cs),
(31,-198,o),
(51,-91,o),
(60,-41,cs),
(120,301,ls),
(125,331,o),
(103,350,o),
(73,350,cs),
(45,350,o),
(25,338,o),
(20,309,cs),
(-39,-26,ls),
(-44,-57,o),
(-62,-151,o),
(-86,-177,cs),
(-104,-196,o),
(-130,-201,o),
(-151,-201,cs),
(-164,-201,o),
(-182,-197,o),
(-188,-193,cs),
(-201,-185,o),
(-240,-174,o),
(-258,-200,cs),
(-281,-234,o),
(-267,-260,o),
(-251,-271,cs),
(-236,-282,o),
(-200,-300,o),
(-152,-300,cs)
);
}
);
width = 166;
}
);
metricRight = n;
unicode = 106;
},
{
glyphname = k;
lastChange = "2022-03-17 13:28:13 +0000";
layers = (
{
layerId = m01;
shapes = (
{
closed = 1;
nodes = (
(27,0,o),
(39,7,o),
(42,26,cs),
(147,621,ls),
(151,642,o),
(139,650,o),
(123,650,cs),
(108,650,o),
(99,639,o),
(96,622,cs),
(-9,26,ls),
(-12,10,o),
(-2,0,o),
(11,0,cs)
);
},
{
closed = 1;
nodes = (
(273,-1,o),
(283,5,o),
(286,16,cs),
(288,23,o),
(287,31,o),
(280,41,cs),
(188,174,l),
(124,174,l),
(233,18,ls),
(240,8,o),
(250,-1,o),
(263,-1,cs)
);
},
{
closed = 1;
nodes = (
(54,122,o),
(92,170,o),
(121,210,cs),
(138,234,o),
(162,258,o),
(180,273,cs),
(200,289,o),
(227,304,o),
(240,304,cs),
(256,304,o),
(253,279,o),
(251,271,cs),
(246,245,o),
(228,236,o),
(202,219,cs),
(182,205,o),
(153,189,o),
(124,174,c),
(181,146,l),
(200,158,o),
(218,169,o),
(235,181,cs),
(268,205,o),
(293,228,o),
(301,272,cs),
(307,310,o),
(299,354,o),
(250,354,cs),
(219,354,o),
(182,337,o),
(150,312,cs),
(123,291,o),
(68,225,o),
(51,201,c),
(23,39,l)
);
}
);
width = 346;
},
{
layerId = "140DECC1-64C4-40C0-9C07-503DBC3F4160";
shapes = (
{
closed = 1;
nodes = (
(67,0,o),
(90,11,o),
(95,40,cs),
(193,599,ls),
(199,633,o),
(176,653,o),
(146,653,cs),
(123,653,o),
(100,638,o),
(95,608,cs),
(-3,48,ls),
(-8,19,o),
(13,0,o),
(40,0,cs)
);
},
{
closed = 1;
nodes = (
(321,0,o),
(341,11,o),
(345,31,c),
(349,43,o),
(347,55,o),
(337,69,cs),
(261,181,l),
(147,181,l),
(254,25,ls),
(265,9,o),
(283,0,o),
(301,0,cs)
);
},
{
closed = 1;
nodes = (
(105,120,o),
(130,185,o),
(157,218,cs),
(174,238,o),
(192,257,o),
(206,268,cs),
(223,283,o),
(242,288,o),
(255,284,cs),
(262,282,o),
(265,272,o),
(264,266,cs),
(262,256,o),
(247,240,o),
(222,224,cs),
(205,213,o),
(182,198,o),
(147,181,c),
(275,152,l),
(278,154,o),
(264,160,o),
(268,163,cs),
(297,185,o),
(344,221,o),
(353,267,cs),
(361,316,o),
(324,354,o),
(262,354,cs),
(219,354,o),
(178,347,o),
(148,324,cs),
(117,300,o),
(75,249,o),
(64,238,c),
(95,98,l)
);
}
);
width = 401;
}
);
metricLeft = n;
unicode = 107;
},
{
glyphname = l;
lastChange = "2022-03-17 13:29:26 +0000";
layers = (
{
layerId = m01;
shapes = (
{
closed = 1;
nodes = (
(29,0,o),
(40,7,o),
(43,22,cs),
(149,624,ls),
(152,640,o),
(139,650,o),
(125,650,cs),
(114,650,o),
(103,644,o),
(100,629,cs),
(-6,27,ls),
(-9,9,o),
(4,0,o),
(18,0,cs)
);
}
);
width = 138;
},
{
layerId = "140DECC1-64C4-40C0-9C07-503DBC3F4160";
shapes = (
{
closed = 1;
nodes = (
(69,0,o),
(95,15,o),
(100,44,cs),
(198,599,ls),
(204,631,o),
(177,650,o),
(149,650,cs),
(127,650,o),
(105,640,o),
(100,612,cs),
(1,50,ls),
(-5,15,o),
(24,0,o),
(47,0,cs)
);
}
);
width = 189;
}
);
unicode = 108;
},
{
glyphname = m;
lastChange = "2022-03-17 13:17:24 +0000";
layers = (
{
layerId = m01;
shapes = (
{
closed = 1;
nodes = (
(38,0,o),
(40,18,o),
(41,23,cs),
(94,323,ls),
(97,340,o),
(93,350,o),
(76,350,c),
(57,350,o),
(46,342,o),
(43,323,cs),
(-10,23,ls),
(-11,15,o),
(-10,0,o),
(12,0,cs)
);
},
{
closed = 1;
nodes = (
(263,0,o),
(264,16,o),
(265,21,cs),
(302,230,ls),
(313,294,o),
(281,354,o),
(209,354,cs),
(154,354,o),
(113,319,o),
(67,246,c),
(57,114,l),
(119,251,o),
(164,305,o),
(206,305,cs),
(250,305,o),
(258,267,o),
(252,233,cs),
(215,24,ls),
(214,16,o),
(215,0,o),
(237,0,cs)
);
},
{
closed = 1;
nodes = (
(487,0,o),
(488,16,o),
(489,21,cs),
(526,230,ls),
(537,294,o),
(505,354,o),
(433,354,cs),
(378,354,o),
(337,319,o),
(291,246,c),
(281,114,l),
(343,251,o),
(388,305,o),
(430,305,cs),
(474,305,o),
(482,267,o),
(476,233,cs),
(439,24,ls),
(438,16,o),
(439,0,o),
(461,0,cs)
);
}
);
width = 587;
},
{
layerId = "140DECC1-64C4-40C0-9C07-503DBC3F4160";
shapes = (
{
closed = 1;
nodes = (
(75,0,o),
(93,23,o),
(96,37,cs),
(143,302,ls),
(148,331,o),
(131,350,o),
(102,350,cs),
(73,350,o),
(48,338,o),
(43,309,cs),
(-4,43,ls),
(-9,15,o),
(9,0,o),
(38,0,cs)
);
},
{
closed = 1;
nodes = (
(308,0,o),
(324,19,o),
(327,34,cs),
(355,193,ls),
(372,292,o),
(330,354,o),
(240,354,cs),
(186,354,o),
(153,317,o),
(127,291,c),
(106,119,l),
(144,177,o),
(205,268,o),
(232,268,cs),
(256,268,o),
(261,238,o),
(256,208,cs),
(228,49,ls),
(224,25,o),
(240,0,o),
(272,0,cs)
);
},
{
closed = 1;
nodes = (
(538,0,o),
(554,19,o),
(557,34,cs),
(585,193,ls),
(602,292,o),
(560,354,o),
(470,354,cs),
(416,354,o),
(374,309,o),
(348,283,c),
(336,119,l),
(374,177,o),
(435,268,o),
(462,268,cs),
(486,268,o),
(491,238,o),
(486,208,cs),
(458,49,ls),
(454,25,o),
(470,0,o),
(502,0,cs)
);
}
);
width = 650;
}
);
metricLeft = n;
metricRight = n;
unicode = 109;
},
{
glyphname = n;
lastChange = "2022-03-17 13:17:50 +0000";
layers = (
{
layerId = m01;
shapes = (
{
closed = 1;
nodes = (
(38,0,o),
(40,18,o),
(41,23,cs),
(94,323,ls),
(96,340,o),
(93,350,o),
(76,350,c),
(56,350,o),
(47,341,o),
(43,323,cs),
(-10,23,ls),
(-11,15,o),
(-10,0,o),
(12,0,cs)
);
},
{
closed = 1;
nodes = (
(263,0,o),
(264,16,o),
(265,21,cs),
(302,230,ls),
(313,294,o),
(281,354,o),
(209,354,cs),
(154,354,o),
(113,319,o),
(67,246,c),
(57,114,l),
(119,251,o),
(164,305,o),
(206,305,cs),
(250,305,o),
(258,267,o),
(252,233,cs),
(215,24,ls),
(214,16,o),
(215,0,o),
(237,0,cs)
);
}
);
width = 363;
},
{
layerId = "140DECC1-64C4-40C0-9C07-503DBC3F4160";
shapes = (
{
closed = 1;
nodes = (
(74,0,o),
(93,22,o),
(96,37,cs),
(143,302,ls),
(148,332,o),
(132,350,o),
(100,350,cs),
(58,350,o),
(45,320,o),
(43,308,cs),
(-4,44,ls),
(-8,20,o),
(3,0,o),
(37,0,cs)
);
},
{
closed = 1;
nodes = (
(308,0,o),
(324,19,o),
(327,34,cs),
(355,193,ls),
(372,292,o),
(330,354,o),
(240,354,cs),
(186,354,o),
(153,317,o),
(127,291,c),
(106,119,l),
(144,177,o),
(205,268,o),
(232,268,cs),
(256,268,o),
(261,238,o),
(256,208,cs),
(228,49,ls),
(224,25,o),
(240,0,o),
(272,0,cs)
);
}
);
width = 420;
}
);
unicode = 110;
},
{
glyphname = o;
lastChange = "2022-03-17 12:55:53 +0000";
layers = (
{
layerId = m01;
shapes = (
{
closed = 1;
nodes = (
(176,-4,o),
(247,137,o),
(257,228,cs),
(263,288,o),
(216,350,o),
(146,350,cs),
(33,350,o),
(-2,238,o),
(-3,126,cs),
(-3,51,o),
(39,-4,o),
(96,-4,cs)
);
},
{
closed = 1;
nodes = (
(55,46,o),
(46,108,o),
(47,136,cs),
(49,212,o),
(72,300,o),
(146,300,cs),
(186,300,o),
(211,267,o),
(207,227,cs),
(198,143,o),
(129,46,o),
(96,46,cs)
);
}
);
width = 306;
},
{
layerId = "140DECC1-64C4-40C0-9C07-503DBC3F4160";
shapes = (
{
closed = 1;
nodes = (
(233,-4,o),
(293,141,o),
(302,226,cs),
(311,303,o),
(251,350,o),
(175,350,cs),
(45,350,o),
(22,250,o),
(11,152,cs),
(-1,41,o),
(62,-4,o),
(125,-4,cs)
);
},
{
closed = 1;
nodes = (
(106,83,o),
(97,116,o),
(101,150,cs),
(104,181,o),
(109,264,o),
(168,264,cs),
(188,264,o),
(211,248,o),
(209,225,cs),
(205,174,o),
(162,83,o),
(134,83,cs)
);
}
);
width = 348;
}
);
unicode = 111;
},
{
glyphname = p;
lastChange = "2022-03-17 13:18:49 +0000";
layers = (
{
layerId = m01;
shapes = (
{
closed = 1;
nodes = (
(-29,-300,o),
(-15,-292,o),
(-12,-277,cs),
(95,327,ls),
(98,342,o),
(86,350,o),
(73,350,cs),
(61,350,o),
(47,342,o),
(44,327,cs),
(-63,-276,ls),
(-66,-292,o),
(-54,-300,o),
(-41,-300,cs)
);
},
{
closed = 1;
nodes = (
(263,0,o),
(264,16,o),
(265,21,cs),
(302,230,ls),
(313,294,o),
(281,354,o),
(209,354,cs),
(154,354,o),
(113,319,o),
(67,246,c),
(57,114,l),
(119,251,o),
(164,305,o),
(206,305,cs),
(250,305,o),
(258,267,o),
(252,233,cs),
(215,24,ls),
(214,16,o),
(215,0,o),
(237,0,cs)
);
},
{
closed = 1;
nodes = (
(348,81,ls),
(360,91,o),
(365,101,o),
(367,110,cs),
(368,122,o),
(360,132,o),
(347,132,cs),
(339,133,o),
(328,129,o),
(316,119,cs),
(268,79,l),
(255,4,l)
);
}
);
width = 380;
},
{
layerId = "140DECC1-64C4-40C0-9C07-503DBC3F4160";
shapes = (
{
closed = 1;
nodes = (
(14,-300,o),
(40,-288,o),
(44,-263,cs),
(143,299,ls),
(148,327,o),
(125,350,o),
(98,350,cs),
(75,350,o),
(47,335,o),
(43,310,cs),
(-56,-254,ls),
(-61,-283,o),
(-36,-300,o),
(-9,-300,cs)
);
},
{
closed = 1;
nodes = (
(307,0,o),
(323,19,o),
(326,34,cs),
(354,193,ls),
(371,292,o),
(330,354,o),
(240,354,cs),
(186,354,o),
(153,317,o),
(127,291,c),
(106,119,l),
(144,177,o),
(205,268,o),
(232,268,cs),
(256,268,o),
(260,238,o),
(255,208,cs),
(227,49,ls),
(223,25,o),
(239,0,o),
(271,0,cs)
);
},
{
closed = 1;
nodes = (
(402,88,ls),
(417,100,o),
(428,114,o),
(430,127,cs),
(434,152,o),
(414,171,o),
(389,172,cs),
(376,173,o),
(360,168,o),
(344,155,cs),
(328,142,l),
(308,9,l)
);
}
);
width = 443;
}
);
metricLeft = n;
unicode = 112;
},
{
glyphname = q;
lastChange = "2022-03-22 01:53:03 +0000";
layers = (
{
layerId = m01;
shapes = (
{
closed = 1;
nodes = (
(196,-300,o),
(211,-291,o),
(214,-273,cs),
(320,327,ls),
(321,335,o),
(320,350,o),
(298,350,cs),
(273,350,l),
(164,-273,ls),
(161,-291,o),
(171,-300,o),
(183,-300,cs)
);
},
{
closed = 1;
nodes = (
(162,-4,o),
(206,49,o),
(242,113,c),
(263,270,l),
(210,139,o),
(145,46,o),
(110,46,cs),
(77,46,o),
(52,82,o),
(63,147,cs),
(73,205,o),
(112,300,o),
(246,300,c),
(269,300,l),
(277,350,l),
(243,350,l),
(77,350,o),
(28,237,o),
(12,147,cs),
(-6,47,o),
(58,-4,o),
(102,-4,cs)
);
},
{
closed = 1;
nodes = (
(294,-217,ls),
(306,-207,o),
(311,-197,o),
(313,-188,cs),
(314,-176,o),
(306,-166,o),
(293,-166,cs),
(285,-165,o),
(274,-169,o),
(262,-179,cs),
(218,-216,l),
(201,-294,l)
);
}
);
width = 372;
},
{
layerId = "140DECC1-64C4-40C0-9C07-503DBC3F4160";
shapes = (
{
closed = 1;
nodes = (
(238,-300,o),
(263,-284,o),
(268,-256,cs),
(367,306,ls),
(371,326,o),
(359,350,o),
(324,350,cs),
(279,350,l),
(173,-248,ls),
(167,-280,o),
(188,-300,o),
(215,-300,cs)
);
},
{
closed = 1;
nodes = (
(189,-4,o),
(233,48,o),
(269,112,c),
(291,320,l),
(232,189,o),
(179,86,o),
(150,86,cs),
(122,86,o),
(107,101,o),
(115,147,cs),
(123,193,o),
(139,260,o),
(273,260,cs),
(285,260,l),
(294,350,l),
(270,350,ls),
(104,350,o),
(34,261,o),
(14,147,cs),
(-4,47,o),
(62,-4,o),
(129,-4,cs)
);
},
{
closed = 1;
nodes = (
(345,-207,ls),
(360,-195,o),
(371,-181,o),
(373,-168,cs),
(377,-143,o),
(357,-124,o),
(332,-123,cs),
(319,-122,o),
(303,-127,o),
(287,-140,cs),
(271,-153,l),
(251,-286,l)
);
}
);
width = 428;
}
);
metricLeft = n;
unicode = 113;
},
{
glyphname = r;
lastChange = "2022-03-17 13:31:40 +0000";
layers = (
{
layerId = m01;
shapes = (
{
closed = 1;
nodes = (
(25,0,o),
(39,9,o),
(42,27,cs),
(93,320,ls),
(96,340,o),
(85,350,o),
(72,350,cs),
(60,350,o),
(46,341,o),
(43,323,cs),
(-9,27,ls),
(-12,9,o),
(-1,0,o),
(12,0,cs)
);
},
{
closed = 1;
nodes = (
(104,235,ls),
(115,250,o),
(138,274,o),
(159,291,cs),
(170,301,o),
(179,307,o),
(185,307,cs),
(199,307,o),
(211,278,o),
(241,278,cs),
(252,278,o),
(274,282,o),
(292,293,cs),
(308,302,o),
(322,317,o),
(320,333,cs),
(318,354,o),
(293,353,o),
(273,339,cs),
(266,334,o),
(252,326,o),
(242,326,cs),
(223,326,o),
(226,354,o),
(193,354,cs),
(178,354,o),
(161,348,o),
(145,338,cs),
(122,323,o),
(101,300,o),
(90,289,cs),
(76,274,l),
(61,180,l)
);
}
);
width = 295;
},
{
layerId = "140DECC1-64C4-40C0-9C07-503DBC3F4160";
shapes = (
{
closed = 1;
nodes = (
(66,0,o),
(92,14,o),
(97,41,cs),
(142,297,ls),
(148,329,o),
(122,350,o),
(96,350,cs),
(74,350,o),
(48,336,o),
(43,309,cs),
(-3,48,ls),
(-8,18,o),
(17,0,o),
(43,0,cs)
);
},
{
closed = 1;
nodes = (
(99,195,ls),
(112,210,o),
(133,234,o),
(154,251,cs),
(165,261,o),
(174,267,o),
(180,267,cs),
(194,267,o),
(206,238,o),
(236,238,cs),
(247,238,o),
(269,242,o),
(287,253,cs),
(303,262,o),
(344,287,o),
(335,317,cs),
(322,360,o),
(288,353,o),
(268,339,cs),
(261,334,o),
(247,326,o),
(237,326,cs),
(218,326,o),
(221,354,o),
(188,354,cs),
(173,354,o),
(156,348,o),
(140,338,cs),
(117,323,o),
(96,300,o),
(85,289,cs),
(82,286,l),
(93,188,l)
);
}
);
width = 318;
}
);
metricLeft = n;
unicode = 114;
},
{
glyphname = s;
lastChange = "2022-03-17 13:32:59 +0000";
layers = (
{
layerId = m01;
shapes = (
{
closed = 1;
nodes = (
(159,-4,o),
(209,22,o),
(219,80,cs),
(225,117,o),
(210,145,o),
(192,162,cs),
(170,184,o),
(144,195,o),
(117,214,cs),
(95,229,o),
(68,246,o),
(72,265,cs),
(75,287,o),
(107,304,o),
(139,304,cs),
(171,304,o),
(198,289,o),
(210,279,cs),
(222,269,o),
(246,272,o),
(253,284,cs),
(263,301,o),
(251,315,o),
(233,325,cs),
(197,346,o),
(166,350,o),
(139,350,cs),
(79,350,o),
(32,319,o),
(22,265,cs),
(15,226,o),
(54,194,o),
(83,176,cs),
(110,159,o),
(135,144,o),
(149,133,cs),
(162,122,o),
(172,102,o),
(169,83,cs),
(164,55,o),
(138,44,o),
(111,42,cs),
(79,42,o),
(47,62,o),
(32,74,cs),
(17,84,o),
(-3,85,o),
(-10,73,cs),
(-20,56,o),
(-6,45,o),
(11,32,cs),
(45,7,o),
(84,-4,o),
(111,-4,cs)
);
}
);
width = 273;
},
{
layerId = "140DECC1-64C4-40C0-9C07-503DBC3F4160";
shapes = (
{
closed = 1;
nodes = (
(157,-4,o),
(218,21,o),
(229,87,cs),
(236,128,o),
(216,159,o),
(197,177,cs),
(186,188,o),
(161,203,o),
(141,216,cs),
(121,229,o),
(99,239,o),
(99,252,cs),
(99,262,o),
(116,264,o),
(134,264,cs),
(153,264,o),
(180,257,o),
(190,251,cs),
(215,239,o),
(245,236,o),
(257,258,cs),
(273,288,o),
(256,314,o),
(219,333,cs),
(193,344,o),
(161,350,o),
(134,350,cs),
(70,350,o),
(17,319,o),
(7,259,cs),
(-1,213,o),
(43,173,o),
(72,156,cs),
(94,142,o),
(114,129,o),
(127,120,cs),
(135,113,o),
(136,110,o),
(135,102,cs),
(133,92,o),
(128,84,o),
(108,82,cs),
(85,82,o),
(58,98,o),
(49,103,cs),
(25,115,o),
(-6,117,o),
(-19,94,cs),
(-33,68,o),
(-20,42,o),
(21,20,cs),
(47,6,o),
(80,-4,o),
(107,-4,cs)
);
}
);
width = 301;
}
);
unicode = 115;
},
{
glyphname = t;
lastChange = "2022-03-17 13:33:25 +0000";
layers = (
{
layerId = m01;
shapes = (
{
closed = 1;
nodes = (
(73,0,o),
(86,7,o),
(89,23,cs),
(179,540,ls),
(182,558,o),
(168,568,o),
(154,568,cs),
(143,568,o),
(133,561,o),
(130,547,cs),
(37,24,ls),
(34,8,o),
(47,0,o),
(60,0,cs)
);
},
{
closed = 1;
nodes = (
(234,305,ls),
(254,305,o),
(260,316,o),
(260,328,cs),
(260,340,o),
(254,350,o),
(234,350,cs),
(10,350,ls),
(-10,350,o),
(-16,340,o),
(-16,328,cs),
(-16,316,o),
(-10,305,o),
(10,305,cs)
);
}
);
width = 237;
},
{
layerId = "140DECC1-64C4-40C0-9C07-503DBC3F4160";
shapes = (
{
closed = 1;
nodes = (
(108,0,o),
(130,9,o),
(135,35,cs),
(221,523,ls),
(227,557,o),
(198,568,o),
(171,568,cs),
(149,568,o),
(126,555,o),
(122,532,cs),
(36,44,ls),
(30,12,o),
(57,0,o),
(83,0,cs)
);
},
{
closed = 1;
nodes = (
(242,265,ls),
(274,265,o),
(292,283,o),
(292,307,cs),
(292,332,o),
(274,350,o),
(242,350,cs),
(32,350,ls),
(0,350,o),
(-18,332,o),
(-18,307,cs),
(-18,283,o),
(0,265,o),
(32,265,cs)
);
}
);
width = 277;
}
);
unicode = 116;
},
{
glyphname = u;
lastChange = "2022-03-17 13:34:43 +0000";
layers = (
{
layerId = m01;
shapes = (
{
closed = 1;
nodes = (
(250,0,o),
(259,9,o),
(263,27,cs),
(316,327,ls),
(317,335,o),
(316,350,o),
(294,350,cs),
(268,350,o),
(266,332,o),
(265,327,cs),
(212,27,ls),
(210,10,o),
(213,0,o),
(230,0,c)
);
},
{
closed = 1;
nodes = (
(152,-4,o),
(193,31,o),
(239,104,c),
(249,236,l),
(187,99,o),
(142,45,o),
(100,45,cs),
(56,45,o),
(48,83,o),
(54,117,cs),
(91,326,ls),
(92,334,o),
(91,350,o),
(69,350,cs),
(43,350,o),
(42,334,o),
(41,329,cs),
(4,120,ls),
(-7,56,o),
(25,-4,o),
(97,-4,cs)
);
}
);
width = 366;
},
{
layerId = "140DECC1-64C4-40C0-9C07-503DBC3F4160";
shapes = (
{
closed = 1;
nodes = (
(309,0,o),
(322,30,o),
(324,42,cs),
(371,306,ls),
(375,330,o),
(364,350,o),
(330,350,cs),
(293,350,o),
(274,328,o),
(271,313,cs),
(224,48,ls),
(219,18,o),
(235,0,o),
(267,0,cs)
);
},
{
closed = 1;
nodes = (
(181,-4,o),
(214,33,o),
(240,59,c),
(261,231,l),
(223,173,o),
(162,82,o),
(135,82,cs),
(111,82,o),
(106,112,o),
(111,142,cs),
(139,301,ls),
(143,325,o),
(127,350,o),
(95,350,cs),
(59,350,o),
(43,331,o),
(40,316,cs),
(12,157,ls),
(-5,58,o),
(37,-4,o),
(127,-4,cs)
);
}
);
width = 426;
}
);
unicode = 117;
},
{
glyphname = v;
lastChange = "2022-03-17 13:35:26 +0000";
layers = (
{
layerId = m01;
shapes = (
{
closed = 1;
nodes = (
(76,-4,o),
(102,7,o),
(127,25,cs),
(207,84,o),
(280,211,o),
(321,288,cs),
(344,333,o),
(334,350,o),
(314,350,cs),
(296,350,o),
(290,337,o),
(278,315,cs),
(243,247,o),
(165,114,o),
(98,63,cs),
(84,52,o),
(75,47,o),
(66,47,cs),
(49,47,o),
(52,86,o),
(55,102,cs),
(94,320,ls),
(98,340,o),
(86,350,o),
(73,350,cs),
(61,350,o),
(46,341,o),
(43,323,cs),
(4,102,ls),
(-5,50,o),
(-1,-4,o),
(52,-4,cs)
);
},
{
closed = 1;
nodes = (
(381,284,ls),
(393,282,o),
(407,282,o),
(416,292,cs),
(423,298,o),
(426,310,o),
(421,320,cs),
(417,326,o),
(411,332,o),
(399,334,cs),
(316,350,l),
(318,297,l)
);
}
);
width = 402;
},
{
layerId = "140DECC1-64C4-40C0-9C07-503DBC3F4160";
shapes = (
{
closed = 1;
nodes = (
(102,-4,o),
(141,4,o),
(175,27,cs),
(251,78,o),
(346,232,o),
(360,264,c),
(398,336,o),
(354,351,o),
(332,351,cs),
(305,351,o),
(292,338,o),
(276,308,cs),
(251,262,o),
(200,186,o),
(169,143,cs),
(156,126,o),
(140,106,o),
(130,96,cs),
(88,54,o),
(101,99,o),
(112,157,cs),
(138,298,ls),
(144,331,o),
(121,351,o),
(94,351,cs),
(72,351,o),
(43,335,o),
(38,308,cs),
(4,115,ls),
(-6,56,o),
(12,-4,o),
(74,-4,cs)
);
},
{
closed = 1;
nodes = (
(385,240,ls),
(406,235,o),
(428,237,o),
(443,253,cs),
(458,267,o),
(463,293,o),
(452,312,cs),
(445,324,o),
(432,332,o),
(413,336,cs),
(341,350,l),
(343,249,l)
);
}
);
width = 444;
}
);
unicode = 118;
},
{
glyphname = w;
lastChange = "2022-03-17 13:35:38 +0000";
layers = (
{
layerId = m01;
shapes = (
{
closed = 1;
nodes = (
(318,-4,o),
(344,7,o),
(369,25,cs),
(407,53,o),
(447,100,o),
(473,138,cs),
(507,186,o),
(553,269,o),
(563,288,cs),
(586,333,o),
(576,350,o),
(556,350,cs),
(538,350,o),
(532,337,o),
(520,315,cs),
(502,280,o),
(473,229,o),
(442,183,cs),
(409,133,o),
(374,89,o),
(340,63,cs),
(326,52,o),
(317,47,o),
(308,47,cs),
(300,47,o),
(293,51,o),
(292,60,cs),
(290,69,o),
(294,86,o),
(297,102,cs),
(336,320,ls),
(340,340,o),
(328,350,o),
(315,350,c),
(277,270,l),
(246,102,ls),
(241,76,o),
(240,49,o),
(247,28,cs),
(254,9,o),
(268,-4,o),
(294,-4,cs)
);
},
{
closed = 1;
nodes = (
(76,-4,o),
(102,7,o),
(127,25,cs),
(165,53,o),
(205,100,o),
(231,138,cs),
(266,189,o),
(294,248,o),
(304,267,c),
(315,350,l),
(297,350,o),
(290,337,o),
(278,315,cs),
(260,280,o),
(231,229,o),
(200,183,cs),
(167,133,o),
(132,89,o),
(98,63,cs),
(84,52,o),
(75,47,o),
(66,47,cs),
(58,47,o),
(51,51,o),
(50,60,cs),
(48,69,o),
(52,86,o),
(55,102,cs),
(94,320,ls),
(98,340,o),
(86,350,o),
(73,350,cs),
(61,350,o),
(46,341,o),
(43,323,cs),
(4,102,ls),
(-1,76,o),
(-2,49,o),
(5,28,cs),
(12,9,o),
(26,-4,o),
(52,-4,cs)
);
},
{
closed = 1;
nodes = (
(623,284,ls),
(635,282,o),
(649,282,o),
(658,292,cs),
(665,298,o),
(668,310,o),
(663,320,cs),
(659,326,o),
(653,332,o),
(641,334,cs),
(558,350,l),
(560,297,l)
);
}
);
width = 644;
},
{
layerId = "140DECC1-64C4-40C0-9C07-503DBC3F4160";
shapes = (
{
closed = 1;
nodes = (
(344,-5,o),
(382,6,o),
(408,24,cs),
(446,50,o),
(480,86,o),
(502,118,cs),
(534,162,o),
(589,244,o),
(597,260,cs),
(633,331,o),
(594,350,o),
(572,350,cs),
(544,350,o),
(532,343,o),
(517,314,cs),
(504,289,o),
(488,263,o),
(462,224,cs),
(433,180,o),
(420,161,o),
(410,147,cs),
(401,135,o),
(378,106,o),
(372,100,cs),
(363,91,o),
(349,77,o),
(343,77,cs),
(338,77,o),
(340,102,o),
(343,117,cs),
(375,298,ls),
(382,335,o),
(353,350,o),
(331,350,c),
(272,264,l),
(242,115,ls),
(237,90,o),
(239,62,o),
(246,39,cs),
(255,12,o),
(279,-5,o),
(311,-5,cs)
);
},
{
closed = 1;
nodes = (
(103,-4,o),
(144,7,o),
(169,24,cs),
(214,54,o),
(249,97,o),
(272,129,cs),
(308,183,o),
(340,243,o),
(344,250,c),
(338,350,l),
(307,350,o),
(295,344,o),
(274,307,cs),
(264,289,o),
(252,267,o),
(228,230,cs),
(208,199,o),
(192,177,o),
(179,158,cs),
(170,145,o),
(155,126,o),
(137,105,cs),
(124,90,o),
(109,78,o),
(105,78,cs),
(100,78,o),
(103,109,o),
(106,125,cs),
(137,298,ls),
(143,332,o),
(120,350,o),
(94,350,cs),
(67,350,o),
(43,336,o),
(37,304,cs),
(3,113,ls),
(-1,88,o),
(1,60,o),
(9,37,cs),
(18,10,o),
(45,-4,o),
(75,-4,cs)
);
},
{
closed = 1;
nodes = (
(620,240,ls),
(641,235,o),
(663,237,o),
(678,253,cs),
(693,267,o),
(698,293,o),
(687,312,cs),
(680,324,o),
(667,332,o),
(648,336,cs),
(576,350,l),
(578,249,l)
);
}
);
width = 679;
}
);
unicode = 119;
},
{
glyphname = x;
lastChange = "2022-03-17 13:36:55 +0000";
layers = (
{
layerId = m01;
shapes = (
{
closed = 1;
nodes = (
(271,-1,o),
(325,63,o),
(361,134,cs),
(366,144,o),
(356,157,o),
(349,161,cs),
(341,165,o),
(323,168,o),
(317,157,cs),
(287,99,o),
(242,49,o),
(218,49,cs),
(190,49,o),
(182,80,o),
(183,108,cs),
(185,184,o),
(212,304,o),
(286,304,cs),
(290,304,o),
(305,303,o),
(325,295,cs),
(337,290,o),
(354,293,o),
(362,310,cs),
(369,325,o),
(366,335,o),
(346,343,cs),
(324,352,o),
(299,354,o),
(286,354,cs),
(173,354,o),
(133,210,o),
(132,98,cs),
(132,23,o),
(177,-1,o),
(218,-1,cs)
);
},
{
closed = 1;
nodes = (
(123,0,o),
(186,121,o),
(202,232,cs),
(212,299,o),
(173,343,o),
(132,349,cs),
(80,356,o),
(52,332,o),
(21,285,cs),
(15,276,o),
(23,262,o),
(29,257,cs),
(36,252,o),
(54,246,o),
(61,256,cs),
(85,291,o),
(102,303,o),
(125,300,cs),
(153,296,o),
(155,257,o),
(150,229,cs),
(137,154,o),
(91,51,o),
(46,51,cs),
(14,51,o),
(4,56,o),
(-6,59,cs),
(-16,62,o),
(-32,64,o),
(-41,48,cs),
(-49,33,o),
(-43,21,o),
(-28,13,cs),
(-17,7,o),
(-2,0,o),
(39,0,cs)
);
}
);
width = 406;
},
{
layerId = "140DECC1-64C4-40C0-9C07-503DBC3F4160";
shapes = (
{
closed = 1;
nodes = (
(386,129,o),
(391,156,o),
(365,169,cs),
(339,182,o),
(313,176,o),
(305,161,cs),
(283,119,o),
(263,87,o),
(246,87,cs),
(232,87,o),
(220,103,o),
(222,122,cs),
(227,168,o),
(240,268,o),
(299,268,cs),
(310,268,o),
(317,267,o),
(337,263,cs),
(354,260,o),
(375,261,o),
(386,284,cs),
(402,318,o),
(376,336,o),
(363,341,cs),
(341,350,o),
(312,354,o),
(290,354,cs),
(160,354,o),
(169,255,o),
(141,142,cs),
(116,41,o),
(143,0,o),
(219,0,cs),
(310,0,o),
(345,53,o),
(380,118,cs)
);
},
{
closed = 1;
nodes = (
(24,282,o),
(20,256,o),
(45,240,cs),
(69,224,o),
(89,231,o),
(98,245,cs),
(109,261,o),
(128,272,o),
(144,270,cs),
(158,268,o),
(166,250,o),
(148,189,cs),
(121,95,o),
(107,88,o),
(83,83,cs),
(63,79,o),
(41,83,o),
(25,86,cs),
(1,90,o),
(-20,90,o),
(-33,68,cs),
(-53,36,o),
(-29,14,o),
(-16,9,cs),
(7,0,o),
(43,0,o),
(59,0,cs),
(165,0,o),
(208,114,o),
(232,226,cs),
(253,320,o),
(190,351,o),
(142,351,cs),
(74,351,o),
(57,330,o),
(31,292,cs)
);
}
);
width = 428;
}
);
unicode = 120;
},
{
glyphname = y;
lastChange = "2022-03-17 13:37:39 +0000";
layers = (
{
layerId = m01;
shapes = (
{
closed = 1;
nodes = (
(152,-4,o),
(193,31,o),
(239,104,c),
(249,236,l),
(187,99,o),
(142,45,o),
(100,45,cs),
(56,45,o),
(48,83,o),
(54,117,cs),
(91,326,ls),
(92,334,o),
(91,350,o),
(69,350,cs),
(43,350,o),
(42,334,o),
(41,329,cs),
(4,120,ls),
(-7,56,o),
(25,-4,o),
(97,-4,cs)
);
},
{
closed = 1;
nodes = (
(106,-300,o),
(145,-289,o),
(171,-266,cs),
(213,-228,o),
(228,-168,o),
(239,-107,cs),
(315,324,ls),
(318,341,o),
(307,350,o),
(293,350,cs),
(279,350,o),
(267,341,o),
(265,330,cs),
(189,-103,ls),
(183,-138,o),
(171,-198,o),
(141,-227,cs),
(122,-245,o),
(88,-250,o),
(63,-250,cs),
(35,-250,o),
(12,-237,o),
(-3,-229,cs),
(-9,-226,o),
(-23,-223,o),
(-34,-234,cs),
(-45,-245,o),
(-43,-259,o),
(-32,-268,cs),
(-15,-282,o),
(19,-300,o),
(64,-300,cs)
);
}
);
width = 365;
},
{
layerId = "140DECC1-64C4-40C0-9C07-503DBC3F4160";
shapes = (
{
closed = 1;
nodes = (
(188,-4,o),
(221,33,o),
(247,59,c),
(268,231,l),
(230,173,o),
(169,82,o),
(142,82,cs),
(118,82,o),
(113,112,o),
(118,142,cs),
(146,301,ls),
(150,325,o),
(134,350,o),
(102,350,cs),
(66,350,o),
(50,331,o),
(47,316,cs),
(19,157,ls),
(2,58,o),
(44,-4,o),
(134,-4,cs)
);
},
{
closed = 1;
nodes = (
(163,-300,o),
(206,-287,o),
(245,-245,cs),
(288,-198,o),
(308,-91,o),
(317,-41,cs),
(377,301,ls),
(382,331,o),
(360,350,o),
(330,350,cs),
(302,350,o),
(282,338,o),
(277,309,cs),
(218,-26,ls),
(213,-57,o),
(195,-151,o),
(171,-177,cs),
(153,-196,o),
(127,-201,o),
(106,-201,cs),
(93,-201,o),
(75,-197,o),
(69,-193,cs),
(56,-185,o),
(17,-174,o),
(-1,-200,cs),
(-24,-234,o),
(-10,-260,o),
(6,-271,cs),
(21,-282,o),
(57,-300,o),
(105,-300,cs)
);
}
);
width = 431;
}
);
unicode = 121;
},
{
glyphname = z;
lastChange = "2022-03-17 13:38:35 +0000";
layers = (
{
layerId = m01;
shapes = (
{
closed = 1;
nodes = (
(-12,0,o),
(-4,5,o),
(1,10,cs),
(307,308,l),
(312,313,o),
(316,317,o),
(316,327,cs),
(316,333,o),
(314,339,o),
(309,344,cs),
(304,349,o),
(297,350,o),
(290,350,cs),
(283,349,o),
(276,346,o),
(271,341,cs),
(-36,44,ls),
(-44,37,o),
(-45,28,o),
(-44,21,cs),
(-43,16,o),
(-40,11,o),
(-36,6,cs),
(-32,2,o),
(-27,0,o),
(-20,0,cs)
);
},
{
closed = 1;
nodes = (
(237,0,ls),
(257,0,o),
(263,13,o),
(263,25,cs),
(263,37,o),
(257,50,o),
(237,50,cs),
(31,50,l),
(-22,0,l)
);
},
{
closed = 1;
nodes = (
(292,350,l),
(35,350,ls),
(15,350,o),
(9,337,o),
(9,325,cs),
(9,313,o),
(15,300,o),
(35,300,cs),
(237,300,l)
);
}
);
width = 329;
},
{
layerId = "140DECC1-64C4-40C0-9C07-503DBC3F4160";
shapes = (
{
closed = 1;
nodes = (
(21,0,o),
(35,7,o),
(45,16,cs),
(312,277,ls),
(321,285,o),
(327,294,o),
(327,309,cs),
(327,321,o),
(322,331,o),
(314,340,cs),
(305,348,o),
(291,350,o),
(278,350,cs),
(266,350,o),
(253,344,o),
(245,337,cs),
(-25,75,ls),
(-36,65,o),
(-41,52,o),
(-39,38,cs),
(-38,29,o),
(-34,21,o),
(-27,12,cs),
(-20,4,o),
(-6,0,o),
(7,0,cs)
);
},
{
closed = 1;
nodes = (
(233,0,ls),
(263,0,o),
(281,19,o),
(281,43,cs),
(281,67,o),
(263,85,o),
(233,85,cs),
(96,85,l),
(6,0,l)
);
},
{
closed = 1;
nodes = (
(279,350,l),
(55,350,ls),
(25,350,o),
(7,329,o),
(7,305,cs),
(7,281,o),
(25,260,o),
(55,260,cs),
(184,260,l)
);
}
);
width = 326;
}
);
unicode = 122;
},
{
glyphname = a.ss01;
lastChange = "2022-03-17 13:39:08 +0000";
layers = (
{
layerId = m01;
shapes = (
{
closed = 1;
nodes = (
(210,0,o),
(209,83,o),
(221,151,cs),
(256,350,l),
(286,350,ls),
(302,350,o),
(304,334,o),
(301,316,cs),
(268,132,ls),
(265,115,o),
(260,46,o),
(279,46,cs),
(296,46,o),
(323,92,o),
(337,114,cs),
(351,136,ls),
(353,139,o),
(360,151,o),
(372,149,cs),
(383,148,o),
(394,140,o),
(394,125,cs),
(394,117,o),
(391,111,o),
(373,83,cs),
(351,52,o),
(322,0,o),
(280,0,cs)
);
},
{
closed = 1;
nodes = (
(41,-4,o),
(-23,47,o),
(-5,147,cs),
(11,237,o),
(60,350,o),
(226,350,c),
(260,350,l),
(252,300,l),
(229,300,l),
(95,300,o),
(56,205,o),
(46,147,cs),
(35,82,o),
(60,46,o),
(93,46,cs),
(128,46,o),
(193,139,o),
(246,270,c),
(225,113,l),
(189,49,o),
(145,-4,o),
(85,-4,cs)
);
}
);
width = 405;
},
{
layerId = "140DECC1-64C4-40C0-9C07-503DBC3F4160";
shapes = (
{
closed = 1;
nodes = (
(237,0,o),
(226,83,o),
(240,162,cs),
(273,350,l),
(321,350,ls),
(353,350,o),
(365,328,o),
(359,295,cs),
(336,160,ls),
(327,108,o),
(327,93,o),
(337,93,cs),
(346,93,o),
(371,129,o),
(377,140,cs),
(389,161,ls),
(399,179,o),
(418,177,o),
(429,172,cs),
(444,167,o),
(458,152,o),
(458,136,cs),
(458,122,o),
(444,88,o),
(427,62,cs),
(404,25,o),
(362,0,o),
(316,0,cs)
);
},
{
closed = 1;
nodes = (
(56,-4,o),
(-10,47,o),
(8,147,cs),
(28,261,o),
(98,350,o),
(264,350,cs),
(288,350,l),
(279,260,l),
(267,260,ls),
(133,260,o),
(117,193,o),
(109,147,cs),
(101,101,o),
(116,86,o),
(144,86,cs),
(173,86,o),
(226,189,o),
(285,320,c),
(263,112,l),
(227,48,o),
(183,-4,o),
(123,-4,cs)
);
}
);
width = 470;
}
);
metricLeft = o;
},
{
glyphname = zero;
lastChange = "2022-03-17 07:41:05 +0000";
layers = (
{
layerId = m01;
shapes = (
{
closed = 1;
nodes = (
(286,-3,o),
(427,186,o),
(427,360,cs),
(427,435,o),
(398,568,o),
(292,568,cs),
(103,568,o),
(32,333,o),
(32,213,cs),
(32,134,o),
(70,-5,o),
(170,-4,cs)
);
},
{
closed = 1;
nodes = (
(113,46,o),
(82,137,o),
(82,208,cs),
(82,332,o),
(153,518,o),
(290,518,cs),
(355,518,o),
(377,421,o),
(377,363,cs),
(377,170,o),
(227,46,o),
(169,46,cs)
);
}
);
width = 457;
},
{
layerId = "140DECC1-64C4-40C0-9C07-503DBC3F4160";
shapes = (
{
closed = 1;
nodes = (
(284,-3,o),
(449,223,o),
(449,395,cs),
(449,471,o),
(417,568,o),
(297,568,cs),
(97,568,o),
(22,290,o),
(22,172,cs),
(22,91,o),
(59,-4,o),
(149,-4,cs)
);
},
{
closed = 1;
nodes = (
(133,88,o),
(121,107,o),
(121,168,cs),
(121,281,o),
(189,476,o),
(299,476,cs),
(341,476,o),
(350,449,o),
(350,398,cs),
(350,225,o),
(199,88,o),
(149,88,cs)
);
}
);
width = 471;
}
);
unicode = 48;
},
{
glyphname = one;
lastChange = "2022-03-17 14:18:10 +0000";
layers = (
{
layerId = m01;
shapes = (
{
closed = 1;
nodes = (
(116,0,o),
(129,6,o),
(132,23,cs),
(224,543,ls),
(227,560,o),
(216,568,o),
(203,568,cs),
(190,568,o),
(176,561,o),
(173,543,cs),
(82,28,ls),
(79,9,o),
(91,0,o),
(104,0,cs)
);
}
);
width = 321;
},
{
layerId = "140DECC1-64C4-40C0-9C07-503DBC3F4160";
shapes = (
{
closed = 1;
nodes = (
(139,0,o),
(164,12,o),
(169,39,cs),
(254,518,ls),
(259,548,o),
(235,568,o),
(208,568,cs),
(185,568,o),
(159,554,o),
(154,526,cs),
(70,51,ls),
(64,18,o),
(90,0,o),
(117,0,cs)
);
}
);
width = 337;
}
);
unicode = 49;
},
{
glyphname = two;
lastChange = "2022-03-17 14:19:01 +0000";
layers = (
{
layerId = m01;
shapes = (
{
closed = 1;
nodes = (
(59,49,l),
(116,115,o),
(244,263,o),
(257,278,cs),
(382,431,o),
(393,501,o),
(314,549,cs),
(245,591,o),
(126,558,o),
(63,505,cs),
(39,485,o),
(43,472,o),
(51,463,cs),
(59,454,o),
(75,451,o),
(100,471,cs),
(152,513,o),
(248,531,o),
(291,505,cs),
(341,475,o),
(288,393,o),
(236,332,cs),
(210,301,o),
(107,185,o),
(-28,35,cs),
(-45,16,o),
(-34,0,o),
(-12,0,c),
(9,0,l)
);
},
{
closed = 1;
nodes = (
(260,0,ls),
(280,0,o),
(286,13,o),
(286,25,cs),
(286,37,o),
(280,50,o),
(260,50,cs),
(55,50,l),
(5,0,l)
);
}
);
width = 379;
},
{
layerId = "140DECC1-64C4-40C0-9C07-503DBC3F4160";
shapes = (
{
closed = 1;
nodes = (
(117,49,l),
(172,112,o),
(292,251,o),
(303,264,cs),
(428,417,o),
(442,491,o),
(351,547,cs),
(276,593,o),
(148,558,o),
(84,504,cs),
(50,476,o),
(56,454,o),
(73,434,cs),
(85,421,o),
(115,413,o),
(153,443,cs),
(198,479,o),
(271,493,o),
(303,473,cs),
(330,457,o),
(293,398,o),
(246,343,cs),
(220,313,o),
(123,205,o),
(-2,65,cs),
(-33,29,o),
(-8,0,o),
(32,0,cs),
(75,0,l)
);
},
{
closed = 1;
nodes = (
(287,0,ls),
(317,0,o),
(337,14,o),
(337,41,cs),
(337,65,o),
(319,86,o),
(287,86,cs),
(111,86,l),
(31,0,l)
);
}
);
width = 430;
}
);
unicode = 50;
},
{
glyphname = three;
lastChange = "2022-03-17 14:20:19 +0000";
layers = (
{
layerId = m01;
shapes = (
{
closed = 1;
nodes = (
(210,-4,o),
(353,98,o),
(353,226,cs),
(353,303,o),
(302,354,o),
(219,354,cs),
(183,354,o),
(141,345,o),
(95,324,c),
(111,275,l),
(159,296,o),
(196,305,o),
(224,305,cs),
(283,305,o),
(303,266,o),
(303,225,cs),
(303,125,o),
(185,47,o),
(97,47,cs),
(73,47,o),
(51,53,o),
(34,66,cs),
(10,84,o),
(-4,72,o),
(-9,65,cs),
(-14,58,o),
(-19,45,o),
(6,25,cs),
(30,5,o),
(62,-4,o),
(96,-4,cs)
);
},
{
closed = 1;
nodes = (
(76,270,o),
(94,263,o),
(109,273,cs),
(232,355,o),
(350,437,o),
(350,499,cs),
(350,542,o),
(310,568,o),
(251,568,cs),
(203,568,o),
(142,551,o),
(82,511,cs),
(57,495,o),
(62,478,o),
(67,470,cs),
(73,460,o),
(89,455,o),
(102,464,cs),
(163,505,o),
(220,522,o),
(257,522,cs),
(284,522,o),
(300,513,o),
(300,499,cs),
(300,466,o),
(165,368,o),
(81,316,cs),
(64,305,o),
(67,288,o),
(71,280,cs)
);
}
);
width = 404;
},
{
layerId = "140DECC1-64C4-40C0-9C07-503DBC3F4160";
shapes = (
{
closed = 1;
nodes = (
(229,-4,o),
(364,96,o),
(387,229,cs),
(402,313,o),
(344,379,o),
(252,379,cs),
(209,379,o),
(158,366,o),
(105,339,c),
(137,250,l),
(194,279,o),
(213,282,o),
(241,282,cs),
(280,282,o),
(296,262,o),
(290,228,cs),
(275,145,o),
(185,86,o),
(110,86,cs),
(92,86,o),
(79,90,o),
(66,100,cs),
(35,124,o),
(0,113,o),
(-11,93,cs),
(-22,76,o),
(-24,54,o),
(9,28,cs),
(35,7,o),
(72,-4,o),
(109,-4,cs)
);
},
{
closed = 1;
nodes = (
(86,249,o),
(120,237,o),
(147,256,cs),
(260,334,o),
(371,410,o),
(384,481,cs),
(394,535,o),
(334,568,o),
(266,568,cs),
(212,568,o),
(151,550,o),
(91,510,cs),
(58,489,o),
(59,463,o),
(71,445,cs),
(83,423,o),
(112,424,o),
(135,439,cs),
(190,476,o),
(240,488,o),
(271,488,cs),
(278,488,o),
(288,487,o),
(287,481,cs),
(284,465,o),
(170,381,o),
(93,333,cs),
(66,316,o),
(65,290,o),
(75,270,cs)
);
}
);
width = 436;
}
);
unicode = 51;
},
{
glyphname = four;
lastChange = "2022-03-17 14:21:09 +0000";
layers = (
{
layerId = m01;
shapes = (
{
closed = 1;
nodes = (
(75,135,o),
(77,148,o),
(84,160,cs),
(307,540,ls),
(317,558,o),
(300,569,o),
(288,569,cs),
(276,569,o),
(263,565,o),
(253,547,cs),
(28,163,ls),
(21,151,o),
(40,135,o),
(58,135,cs)
);
},
{
closed = 1;
nodes = (
(219,-1,o),
(233,6,o),
(237,26,cs),
(280,258,ls),
(283,275,o),
(272,285,o),
(260,287,cs),
(247,289,o),
(233,282,o),
(230,265,cs),
(187,31,ls),
(183,11,o),
(194,1,o),
(207,0,cs)
);
},
{
closed = 1;
nodes = (
(358,135,ls),
(374,135,o),
(384,146,o),
(384,158,cs),
(384,170,o),
(374,180,o),
(358,180,cs),
(86,180,l),
(59,135,l)
);
}
);
width = 391;
},
{
guides = (
{
pos = (525,569);
}
);
layerId = "140DECC1-64C4-40C0-9C07-503DBC3F4160";
shapes = (
{
closed = 1;
nodes = (
(98,122,o),
(110,140,o),
(124,164,cs),
(334,520,ls),
(350,547,o),
(316,569,o),
(293,569,cs),
(265,569,o),
(250,556,o),
(234,528,cs),
(23,170,ls),
(8,145,o),
(40,122,o),
(72,122,cs)
);
},
{
closed = 1;
nodes = (
(253,0,o),
(269,16,o),
(274,44,cs),
(309,235,ls),
(314,264,o),
(303,282,o),
(279,287,cs),
(255,291,o),
(235,276,o),
(230,248,cs),
(195,59,ls),
(189,26,o),
(199,0,o),
(225,0,cs)
);
},
{
closed = 1;
nodes = (
(365,122,ls),
(393,122,o),
(414,143,o),
(414,168,cs),
(414,192,o),
(393,212,o),
(365,212,cs),
(128,212,l),
(71,122,l)
);
}
);
width = 424;
}
);
unicode = 52;
},
{
glyphname = five;
lastChange = "2022-03-17 14:22:34 +0000";
layers = (
{
layerId = m01;
shapes = (
{
closed = 1;
nodes = (
(226,-3,o),
(318,125,o),
(318,212,cs),
(318,287,o),
(254,354,o),
(152,354,cs),
(124,354,o),
(96,349,o),
(61,337,c),
(65,288,l),
(102,299,o),
(130,304,o),
(155,304,cs),
(234,304,o),
(268,252,o),
(268,211,cs),
(268,149,o),
(192,47,o),
(95,47,cs),
(70,47,o),
(48,54,o),
(34,67,cs),
(27,74,o),
(20,76,o),
(13,76,cs),
(0,76,o),
(-11,67,o),
(-11,54,cs),
(-11,46,o),
(-7,37,o),
(2,28,cs),
(23,8,o),
(56,-3,o),
(95,-3,cs)
);
},
{
closed = 1;
nodes = (
(68,286,o),
(81,294,o),
(84,310,cs),
(125,541,l),
(108,568,l),
(98,568,o),
(90,566,o),
(85,562,cs),
(80,558,o),
(76,551,o),
(74,541,cs),
(33,310,ls),
(30,295,o),
(43,286,o),
(56,286,cs)
);
},
{
closed = 1;
nodes = (
(351,523,ls),
(371,523,o),
(377,533,o),
(377,545,cs),
(377,557,o),
(371,568,o),
(351,568,cs),
(107,568,l),
(107,523,l)
);
}
);
width = 382;
},
{
layerId = "140DECC1-64C4-40C0-9C07-503DBC3F4160";
shapes = (
{
closed = 1;
nodes = (
(271,-3,o),
(367,125,o),
(367,216,cs),
(367,298,o),
(297,372,o),
(186,372,cs),
(152,372,o),
(115,364,o),
(74,348,c),
(106,265,l),
(158,281,o),
(162,281,o),
(189,281,cs),
(249,281,o),
(267,248,o),
(267,215,cs),
(267,164,o),
(210,83,o),
(132,83,cs),
(114,83,o),
(99,86,o),
(89,93,cs),
(77,101,o),
(68,110,o),
(55,110,cs),
(30,110,o),
(7,97,o),
(7,72,cs),
(7,58,o),
(13,45,o),
(27,31,cs),
(51,8,o),
(90,-3,o),
(131,-3,cs)
);
},
{
closed = 1;
nodes = (
(118,264,o),
(146,281,o),
(150,304,cs),
(189,529,l),
(161,571,l),
(139,571,o),
(118,571,o),
(107,562,cs),
(97,554,o),
(91,543,o),
(88,528,cs),
(49,312,ls),
(43,281,o),
(72,264,o),
(96,264,cs)
);
},
{
closed = 1;
nodes = (
(375,487,ls),
(407,487,o),
(424,505,o),
(424,529,cs),
(424,556,o),
(405,571,o),
(375,571,cs),
(159,571,l),
(144,487,l)
);
}
);
width = 405;
}
);
unicode = 53;
},
{
glyphname = six;
lastChange = "2022-03-17 14:23:27 +0000";
layers = (
{
layerId = m01;
shapes = (
{
closed = 1;
nodes = (
(69,209,o),
(103,288,o),
(173,387,cs),
(200,425,o),
(246,471,o),
(321,523,cs),
(332,530,o),
(336,540,o),
(336,548,cs),
(335,559,o),
(327,568,o),
(314,568,cs),
(308,568,o),
(301,566,o),
(293,562,cs),
(246,535,o),
(163,460,o),
(129,412,cs),
(61,316,o),
(20,213,o),
(20,113,c),
(69,113,l)
);
},
{
closed = 1;
nodes = (
(238,0,o),
(346,149,o),
(346,257,cs),
(346,321,o),
(308,353,o),
(236,353,cs),
(149,353,o),
(88,306,o),
(53,244,c),
(20,114,l),
(20,53,o),
(68,0,o),
(136,0,cs)
);
},
{
closed = 1;
nodes = (
(101,50,o),
(70,78,o),
(70,135,cs),
(70,215,o),
(131,303,o),
(234,303,cs),
(275,303,o),
(296,289,o),
(296,251,cs),
(296,173,o),
(204,50,o),
(134,50,cs)
);
}
);
width = 396;
},
{
layerId = "140DECC1-64C4-40C0-9C07-503DBC3F4160";
shapes = (
{
closed = 1;
nodes = (
(87,195,o),
(136,274,o),
(204,371,cs),
(230,407,o),
(271,447,o),
(338,494,cs),
(355,506,o),
(363,521,o),
(363,537,cs),
(362,559,o),
(342,576,o),
(317,576,cs),
(307,576,o),
(296,573,o),
(285,568,c),
(237,540,o),
(156,467,o),
(123,421,cs),
(51,319,o),
(20,279,o),
(6,118,c),
(101,114,l)
);
},
{
closed = 1;
nodes = (
(241,-1,o),
(343,143,o),
(343,247,cs),
(343,316,o),
(298,354,o),
(222,354,cs),
(131,354,o),
(54,308,o),
(37,243,cs),
(7,126,ls),
(-4,82,o),
(53,-1,o),
(134,-1,cs)
);
},
{
closed = 1;
nodes = (
(114,87,o),
(101,99,o),
(101,140,cs),
(101,204,o),
(143,266,o),
(220,266,cs),
(243,266,o),
(249,260,o),
(249,242,cs),
(249,180,o),
(180,87,o),
(132,87,cs)
);
}
);
width = 381;
}
);
unicode = 54;
},
{
glyphname = seven;
lastChange = "2022-03-17 14:23:52 +0000";
layers = (
{
layerId = m01;
shapes = (
{
closed = 1;
nodes = (
(193,0,o),
(207,8,o),
(210,26,cs),
(302,544,ls),
(304,556,o),
(298,568,o),
(278,568,cs),
(267,568,o),
(255,560,o),
(253,549,cs),
(160,26,ls),
(157,8,o),
(168,0,o),
(181,0,cs)
);
},
{
closed = 1;
nodes = (
(279,568,l),
(32,568,ls),
(14,568,o),
(5,557,o),
(5,546,cs),
(5,534,o),
(14,523,o),
(32,523,cs),
(279,523,l)
);
}
);
width = 334;
},
{
layerId = "140DECC1-64C4-40C0-9C07-503DBC3F4160";
shapes = (
{
closed = 1;
nodes = (
(242,0,o),
(267,15,o),
(272,42,cs),
(357,524,ls),
(362,551,o),
(353,568,o),
(310,568,cs),
(288,568,o),
(265,558,o),
(261,537,cs),
(175,50,ls),
(170,20,o),
(192,0,o),
(219,0,cs)
);
},
{
closed = 1;
nodes = (
(311,568,l),
(78,568,ls),
(48,568,o),
(28,551,o),
(28,527,cs),
(28,503,o),
(48,488,o),
(78,488,cs),
(311,488,l)
);
}
);
width = 403;
}
);
unicode = 55;
},
{
glyphname = eight;
lastChange = "2022-03-17 14:24:18 +0000";
layers = (
{
layerId = m01;
shapes = (
{
closed = 1;
nodes = (
(241,-4,o),
(297,84,o),
(297,149,cs),
(297,208,o),
(251,266,o),
(207,307,cs),
(192,321,l),
(126,325,l),
(36,259,o),
(11,185,o),
(11,132,cs),
(11,74,o),
(40,-4,o),
(137,-4,cs)
);
},
{
closed = 1;
nodes = (
(205,238,o),
(246,190,o),
(246,149,cs),
(246,105,o),
(200,45,o),
(143,45,cs),
(93,45,o),
(60,90,o),
(60,139,cs),
(60,178,o),
(81,231,o),
(158,285,c),
(170,273,ls)
);
},
{
closed = 1;
nodes = (
(275,368,o),
(356,431,o),
(356,488,cs),
(356,542,o),
(282,568,o),
(223,568,cs),
(150,568,o),
(63,529,o),
(63,442,cs),
(63,386,o),
(100,350,o),
(126,323,c),
(169,349,l),
(146,371,o),
(114,405,o),
(114,447,cs),
(114,504,o),
(172,518,o),
(213,518,cs),
(249,518,o),
(309,507,o),
(309,488,cs),
(309,462,o),
(200,369,o),
(125,322,c),
(194,312,l)
);
}
);
width = 365;
},
{
layerId = "140DECC1-64C4-40C0-9C07-503DBC3F4160";
shapes = (
{
closed = 1;
nodes = (
(278,-4,o),
(338,87,o),
(338,157,cs),
(338,219,o),
(292,280,o),
(247,321,cs),
(225,341,l),
(144,344,l),
(46,275,o),
(18,197,o),
(18,141,cs),
(18,80,o),
(52,-4,o),
(163,-4,cs)
);
},
{
closed = 1;
nodes = (
(198,236,o),
(240,191,o),
(240,148,cs),
(240,114,o),
(209,81,o),
(168,81,cs),
(135,81,o),
(115,108,o),
(115,148,cs),
(115,177,o),
(128,213,o),
(180,254,c),
(185,249,ls)
);
},
{
closed = 1;
nodes = (
(305,343,o),
(394,405,o),
(394,472,cs),
(394,539,o),
(306,569,o),
(244,569,cs),
(167,569,o),
(68,526,o),
(68,428,cs),
(68,355,o),
(126,312,o),
(147,292,c),
(231,341,l),
(212,362,o),
(166,390,o),
(166,433,cs),
(166,470,o),
(193,488,o),
(228,488,cs),
(260,488,o),
(299,486,o),
(299,471,cs),
(299,456,o),
(217,391,o),
(158,355,c),
(223,287,l)
);
}
);
width = 400;
}
);
unicode = 56;
},
{
glyphname = nine;
lastChange = "2022-03-17 14:24:51 +0000";
layers = (
{
layerId = m01;
shapes = (
{
closed = 1;
nodes = (
(151,214,o),
(203,268,o),
(244,319,cs),
(293,381,o),
(341,458,o),
(364,510,cs),
(368,519,l),
(323,519,l),
(295,472,o),
(262,423,o),
(221,371,cs),
(160,295,o),
(123,265,o),
(104,265,cs),
(90,265,o),
(90,280,o),
(90,296,cs),
(90,334,o),
(108,424,o),
(134,463,cs),
(164,508,o),
(215,518,o),
(249,518,cs),
(256,518,o),
(324,518,o),
(332,518,c),
(343,518,l),
(343,520,o),
(343,565,o),
(343,568,c),
(331,568,o),
(269,568,o),
(249,568,cs),
(192,568,o),
(133,551,o),
(95,494,cs),
(63,446,o),
(40,349,o),
(40,291,cs),
(40,240,o),
(60,214,o),
(93,214,cs)
);
},
{
closed = 1;
nodes = (
(279,0,o),
(292,8,o),
(295,24,cs),
(387,546,ls),
(389,558,o),
(383,568,o),
(371,568,c),
(323,568,l),
(323,479,l),
(245,24,ls),
(243,8,o),
(254,0,o),
(266,0,cs)
);
}
);
width = 407;
},
{
layerId = "140DECC1-64C4-40C0-9C07-503DBC3F4160";
shapes = (
{
closed = 1;
nodes = (
(176,196,o),
(231,255,o),
(270,303,cs),
(317,363,o),
(364,439,o),
(386,487,cs),
(404,527,l),
(309,527,l),
(281,479,o),
(256,431,o),
(216,380,cs),
(159,309,o),
(145,302,o),
(141,302,cs),
(136,302,o),
(135,315,o),
(135,320,cs),
(135,343,o),
(146,408,o),
(168,440,cs),
(191,476,o),
(226,481,o),
(255,481,cs),
(261,481,o),
(325,481,o),
(333,481,cs),
(368,481,l),
(368,506,o),
(368,546,o),
(368,568,c),
(345,568,o),
(276,568,o),
(255,568,cs),
(196,568,o),
(130,554,o),
(89,493,cs),
(56,443,o),
(33,348,o),
(33,291,cs),
(33,226,o),
(66,196,o),
(108,196,cs)
);
},
{
closed = 1;
nodes = (
(294,-4,o),
(321,10,o),
(326,36,cs),
(413,529,ls),
(418,555,o),
(403,568,o),
(370,568,cs),
(299,568,l),
(301,469,l),
(226,43,ls),
(220,11,o),
(249,-4,o),
(271,-4,cs)
);
}
);
width = 445;
}
);
unicode = 57;
},
{
glyphname = .notdef;
lastChange = "2022-03-17 07:39:46 +0000";
layers = (
{
layerId = "140DECC1-64C4-40C0-9C07-503DBC3F4160";
shapes = (
{
closed = 1;
nodes = (
(513,0,o),
(536,26,o),
(540,49,cs),
(647,659,ls),
(652,687,o),
(637,700,o),
(600,700,c),
(220,700,l),
(192,700,o),
(171,687,o),
(166,659,cs),
(59,49,ls),
(54,21,o),
(68,0,o),
(107,0,cs),
(488,0,ls)
);
},
{
closed = 1;
nodes = (
(259,605,l),
(536,605,l),
(446,95,l),
(169,95,l)
);
}
);
width = 697;
},
{
layerId = m01;
shapes = (
{
closed = 1;
nodes = (
(468,0,o),
(479,12,o),
(482,27,cs),
(596,673,ls),
(599,689,o),
(592,700,o),
(578,700,cs),
(182,700,ls),
(165,700,o),
(154,689,o),
(151,673,cs),
(37,27,ls),
(34,12,o),
(42,0,o),
(61,0,cs),
(457,0,ls)
);
},
{
closed = 1;
nodes = (
(199,655,l),
(542,655,l),
(435,45,l),
(91,45,l)
);
}
);
width = 625;
}
);
},
{
glyphname = period;
lastChange = "2022-03-17 07:01:36 +0000";
layers = (
{
layerId = m01;
shapes = (
{
closed = 1;
nodes = (
(94,-11,o),
(113,8,o),
(113,30,cs),
(113,51,o),
(94,69,o),
(73,69,cs),
(51,69,o),
(34,51,o),
(34,30,cs),
(34,9,o),
(51,-11,o),
(73,-11,cs)
);
}
);
width = 205;
},
{
layerId = "140DECC1-64C4-40C0-9C07-503DBC3F4160";
shapes = (
{
closed = 1;
nodes = (
(132,-11,o),
(162,19,o),
(162,54,cs),
(162,88,o),
(132,117,o),
(98,117,cs),
(62,117,o),
(34,88,o),
(34,54,cs),
(34,20,o),
(62,-11,o),
(98,-11,cs)
);
}
);
width = 328;
}
);
unicode = 46;
},
{
glyphname = comma;
lastChange = "2022-03-17 07:05:50 +0000";
layers = (
{
layerId = m01;
shapes = (
{
closed = 1;
nodes = (
(51,-103,o),
(66,-96,o),
(69,-78,cs),
(87,21,ls),
(90,39,o),
(79,49,o),
(66,50,cs),
(53,52,o),
(40,45,o),
(37,28,cs),
(20,-71,ls),
(17,-89,o),
(27,-99,o),
(39,-101,cs)
);
}
);
width = 202;
},
{
layerId = "140DECC1-64C4-40C0-9C07-503DBC3F4160";
shapes = (
{
closed = 1;
nodes = (
(103,-105,o),
(133,-90,o),
(138,-60,cs),
(156,39,ls),
(161,71,o),
(140,91,o),
(113,94,cs),
(88,97,o),
(61,83,o),
(56,54,cs),
(39,-45,ls),
(34,-76,o),
(54,-97,o),
(79,-101,cs)
);
}
);
width = 319;
}
);
unicode = 44;
},
{
glyphname = colon;
lastChange = "2022-03-17 07:04:51 +0000";
layers = (
{
layerId = m01;
shapes = (
{
closed = 1;
nodes = (
(88,-30,o),
(107,-11,o),
(107,11,cs),
(107,32,o),
(88,50,o),
(66,50,cs),
(44,50,o),
(27,32,o),
(27,11,cs),
(27,-10,o),
(44,-30,o),
(66,-30,cs)
);
},
{
closed = 1;
nodes = (
(123,175,o),
(142,195,o),
(142,216,cs),
(142,238,o),
(123,255,o),
(102,255,cs),
(80,255,o),
(63,237,o),
(63,216,cs),
(63,196,o),
(80,175,o),
(102,175,cs)
);
}
);
width = 245;
},
{
layerId = "140DECC1-64C4-40C0-9C07-503DBC3F4160";
shapes = (
{
closed = 1;
nodes = (
(162,175,o),
(192,206,o),
(192,241,cs),
(192,275,o),
(162,303,o),
(128,303,cs),
(92,303,o),
(64,273,o),
(64,240,cs),
(64,208,o),
(92,175,o),
(127,175,cs)
);
},
{
closed = 1;
nodes = (
(126,-30,o),
(156,0,o),
(156,35,cs),
(156,70,o),
(126,98,o),
(91,98,cs),
(55,98,o),
(28,69,o),
(28,35,cs),
(28,1,o),
(55,-30,o),
(91,-30,cs)
);
}
);
width = 326;
}
);
unicode = 58;
},
{
glyphname = semicolon;
lastChange = "2022-03-17 07:08:36 +0000";
layers = (
{
layerId = m01;
shapes = (
{
closed = 1;
nodes = (
(94,39,o),
(83,49,o),
(70,50,cs),
(57,52,o),
(44,45,o),
(41,28,cs),
(24,-71,ls),
(21,-90,o),
(33,-101,o),
(46,-102,cs),
(57,-103,o),
(70,-95,o),
(73,-78,cs),
(91,21,ls)
);
},
{
closed = 1;
nodes = (
(118,175,o),
(136,194,o),
(136,214,cs),
(136,235,o),
(118,251,o),
(98,251,cs),
(77,251,o),
(61,234,o),
(61,214,cs),
(61,195,o),
(77,175,o),
(98,175,cs)
);
}
);
width = 245;
},
{
layerId = "140DECC1-64C4-40C0-9C07-503DBC3F4160";
shapes = (
{
closed = 1;
nodes = (
(160,71,o),
(138,91,o),
(111,94,cs),
(86,97,o),
(59,83,o),
(54,54,cs),
(37,-45,ls),
(31,-78,o),
(55,-100,o),
(82,-102,cs),
(105,-104,o),
(131,-89,o),
(136,-60,cs),
(154,39,ls)
);
},
{
closed = 1;
nodes = (
(169,174,o),
(200,207,o),
(200,239,cs),
(200,275,o),
(169,302,o),
(136,302,cs),
(100,302,o),
(73,273,o),
(73,239,cs),
(73,208,o),
(100,174,o),
(136,174,cs)
);
}
);
width = 328;
}
);
unicode = 59;
},
{
glyphname = ellipsis;
lastChange = "2022-03-17 07:10:38 +0000";
layers = (
{
layerId = m01;
shapes = (
{
closed = 1;
nodes = (
(311,-30,o),
(329,-12,o),
(329,9,cs),
(329,29,o),
(311,46,o),
(291,46,cs),
(270,46,o),
(254,29,o),
(254,9,cs),
(254,-11,o),
(270,-30,o),
(291,-30,cs)
);
},
{
closed = 1;
nodes = (
(91,-30,o),
(109,-12,o),
(109,9,cs),
(109,29,o),
(91,46,o),
(71,46,cs),
(50,46,o),
(34,29,o),
(34,9,cs),
(34,-11,o),
(50,-30,o),
(71,-30,cs)
);
},
{
closed = 1;
nodes = (
(201,-30,o),
(219,-12,o),
(219,9,cs),
(219,29,o),
(201,46,o),
(181,46,cs),
(160,46,o),
(144,29,o),
(144,9,cs),
(144,-11,o),
(160,-30,o),
(181,-30,cs)
);
}
);
width = 474;
},
{
layerId = "140DECC1-64C4-40C0-9C07-503DBC3F4160";
shapes = (
{
closed = 1;
nodes = (
(423,-31,o),
(450,-6,o),
(450,25,cs),
(450,56,o),
(423,79,o),
(394,79,cs),
(366,79,o),
(340,57,o),
(340,25,cs),
(340,-6,o),
(366,-31,o),
(395,-31,cs)
);
},
{
closed = 1;
nodes = (
(133,-31,o),
(160,-6,o),
(160,25,cs),
(160,56,o),
(133,79,o),
(104,79,cs),
(76,79,o),
(50,57,o),
(50,25,cs),
(50,-6,o),
(76,-31,o),
(105,-31,cs)
);
},
{
closed = 1;
nodes = (
(278,-30,o),
(305,-6,o),
(305,25,cs),
(305,56,o),
(278,79,o),
(250,79,cs),
(221,79,o),
(195,56,o),
(195,25,cs),
(195,-6,o),
(221,-30,o),
(250,-30,cs)
);
}
);
width = 616;
}
);
unicode = 8230;
},
{
glyphname = exclam;
lastChange = "2022-03-17 13:49:07 +0000";
layers = (
{
layerId = m01;
shapes = (
{
closed = 1;
nodes = (
(109,174,o),
(124,183,o),
(127,202,cs),
(203,629,ls),
(205,643,o),
(195,650,o),
(183,650,cs),
(170,650,o),
(155,643,o),
(152,629,cs),
(76,202,ls),
(73,185,o),
(85,176,o),
(97,175,cs)
);
},
{
closed = 1;
nodes = (
(91,-24,o),
(111,-4,o),
(111,17,cs),
(111,38,o),
(91,57,o),
(69,57,cs),
(46,57,o),
(30,37,o),
(30,17,cs),
(30,-3,o),
(46,-24,o),
(69,-24,cs)
);
}
);
width = 247;
},
{
layerId = "140DECC1-64C4-40C0-9C07-503DBC3F4160";
shapes = (
{
closed = 1;
nodes = (
(143,173,o),
(172,191,o),
(177,220,cs),
(246,605,ls),
(251,632,o),
(224,650,o),
(200,650,cs),
(178,650,o),
(149,635,o),
(145,611,cs),
(76,226,ls),
(71,197,o),
(95,177,o),
(120,175,cs)
);
},
{
closed = 1;
nodes = (
(127,-24,o),
(160,6,o),
(160,40,cs),
(160,74,o),
(127,104,o),
(93,104,cs),
(56,104,o),
(32,71,o),
(32,40,cs),
(32,9,o),
(56,-24,o),
(93,-24,cs)
);
}
);
width = 292;
}
);
unicode = 33;
},
{
glyphname = exclamdown;
lastChange = "2022-03-17 13:49:44 +0000";
layers = (
{
layerId = m01;
shapes = (
{
closed = 1;
nodes = (
(81,0,o),
(95,7,o),
(98,21,cs),
(172,424,ls),
(175,441,o),
(163,450,o),
(151,451,cs),
(139,452,o),
(124,443,o),
(121,424,cs),
(47,21,ls),
(44,6,o),
(56,0,o),
(69,0,cs)
);
},
{
closed = 1;
nodes = (
(204,570,o),
(220,589,o),
(220,609,cs),
(220,629,o),
(204,650,o),
(181,650,cs),
(159,650,o),
(140,630,o),
(140,609,cs),
(140,588,o),
(159,570,o),
(181,570,cs)
);
}
);
width = 261;
},
{
layerId = "140DECC1-64C4-40C0-9C07-503DBC3F4160";
shapes = (
{
closed = 1;
nodes = (
(141,0,o),
(167,14,o),
(171,39,cs),
(235,399,ls),
(241,433,o),
(215,450,o),
(192,452,cs),
(168,454,o),
(140,437,o),
(135,407,cs),
(71,47,ls),
(66,17,o),
(91,0,o),
(119,0,cs)
);
},
{
closed = 1;
nodes = (
(256,522,o),
(282,552,o),
(282,585,cs),
(282,619,o),
(256,650,o),
(220,650,cs),
(185,650,o),
(154,619,o),
(154,585,cs),
(154,552,o),
(185,522,o),
(220,522,cs)
);
}
);
width = 346;
}
);
unicode = 161;
},
{
glyphname = question;
lastChange = "2022-03-17 13:50:14 +0000";
layers = (
{
layerId = m01;
shapes = (
{
closed = 1;
nodes = (
(363,272,o),
(431,364,o),
(456,503,cs),
(470,582,o),
(402,654,o),
(311,654,cs),
(196,654,o),
(132,590,o),
(115,495,cs),
(111,473,o),
(116,460,o),
(127,457,cs),
(140,454,o),
(160,463,o),
(164,485,cs),
(174,542,o),
(212,604,o),
(297,604,cs),
(363,604,o),
(417,568,o),
(406,507,cs),
(398,461,o),
(374,322,o),
(212,322,c),
(207,272,l)
);
},
{
closed = 1;
nodes = (
(179,-24,o),
(198,-6,o),
(198,14,cs),
(198,37,o),
(180,55,o),
(157,55,cs),
(136,55,o),
(119,36,o),
(119,14,cs),
(119,-5,o),
(136,-24,o),
(157,-24,cs)
);
},
{
closed = 1;
nodes = (
(200,173,o),
(214,180,o),
(218,202,cs),
(236,303,ls),
(237,310,o),
(230,322,o),
(210,322,cs),
(199,322,o),
(187,314,o),
(185,303,cs),
(167,202,ls),
(165,188,o),
(175,178,o),
(187,175,cs)
);
}
);
width = 487;
},
{
layerId = "140DECC1-64C4-40C0-9C07-503DBC3F4160";
shapes = (
{
closed = 1;
nodes = (
(351,256,o),
(426,353,o),
(452,492,cs),
(467,577,o),
(393,654,o),
(296,654,cs),
(179,654,o),
(112,586,o),
(95,493,cs),
(88,458,o),
(103,439,o),
(124,434,cs),
(149,427,o),
(184,443,o),
(189,476,cs),
(197,524,o),
(222,565,o),
(284,565,cs),
(335,565,o),
(365,545,o),
(357,504,cs),
(350,459,o),
(329,345,o),
(197,356,c),
(176,267,l)
);
},
{
closed = 1;
nodes = (
(181,-24,o),
(214,6,o),
(214,41,cs),
(214,75,o),
(184,104,o),
(149,104,cs),
(113,104,o),
(86,74,o),
(86,41,cs),
(86,9,o),
(113,-24,o),
(148,-24,cs)
);
},
{
closed = 1;
nodes = (
(200,171,o),
(224,193,o),
(230,225,cs),
(246,313,ls),
(251,338,o),
(227,356,o),
(198,356,cs),
(177,356,o),
(155,342,o),
(151,321,cs),
(135,233,ls),
(130,207,o),
(145,182,o),
(174,176,cs)
);
}
);
width = 484;
}
);
unicode = 63;
},
{
glyphname = questiondown;
lastChange = "2022-03-17 14:08:34 +0000";
layers = (
{
layerId = m01;
shapes = (
{
closed = 1;
nodes = (
(315,0,o),
(379,64,o),
(396,159,cs),
(400,181,o),
(395,194,o),
(384,197,cs),
(371,200,o),
(351,191,o),
(347,169,cs),
(337,112,o),
(299,50,o),
(214,50,cs),
(148,50,o),
(94,86,o),
(105,147,cs),
(113,193,o),
(137,332,o),
(299,332,c),
(304,382,l),
(148,382,o),
(80,290,o),
(55,151,cs),
(41,72,o),
(109,0,o),
(200,0,cs)
);
},
{
closed = 1;
nodes = (
(312,332,o),
(324,340,o),
(326,351,cs),
(344,452,ls),
(346,466,o),
(336,476,o),
(324,479,cs),
(311,481,o),
(297,474,o),
(293,452,cs),
(275,351,ls),
(274,344,o),
(281,332,o),
(301,332,cs)
);
},
{
closed = 1;
nodes = (
(368,570,o),
(386,589,o),
(386,611,cs),
(386,630,o),
(368,650,o),
(347,650,cs),
(325,650,o),
(306,631,o),
(306,611,cs),
(306,588,o),
(324,570,o),
(347,570,cs)
);
}
);
width = 488;
},
{
layerId = "140DECC1-64C4-40C0-9C07-503DBC3F4160";
shapes = (
{
closed = 1;
nodes = (
(303,1,o),
(375,67,o),
(392,159,cs),
(397,194,o),
(384,212,o),
(363,217,cs),
(339,224,o),
(304,208,o),
(298,175,cs),
(291,128,o),
(266,89,o),
(206,89,cs),
(156,89,o),
(128,108,o),
(135,148,cs),
(142,192,o),
(166,300,o),
(287,289,c),
(316,386,l),
(142,398,o),
(61,296,o),
(36,160,cs),
(22,76,o),
(93,1,o),
(188,1,cs)
);
},
{
closed = 1;
nodes = (
(309,289,o),
(332,304,o),
(336,326,cs),
(354,428,ls),
(359,454,o),
(340,473,o),
(316,479,cs),
(290,484,o),
(260,470,o),
(254,435,cs),
(236,333,ls),
(232,310,o),
(256,289,o),
(287,289,cs)
);
},
{
closed = 1;
nodes = (
(370,522,o),
(396,555,o),
(396,588,cs),
(396,621,o),
(368,650,o),
(333,650,cs),
(297,650,o),
(268,621,o),
(268,589,cs),
(268,555,o),
(297,522,o),
(334,522,cs)
);
}
);
width = 483;
}
);
unicode = 191;
},
{
glyphname = periodcentered;
lastChange = "2022-03-17 07:21:04 +0000";
layers = (
{
layerId = "140DECC1-64C4-40C0-9C07-503DBC3F4160";
shapes = (
{
closed = 1;
nodes = (
(177,121,o),
(208,154,o),
(208,187,cs),
(208,223,o),
(177,249,o),
(143,249,cs),
(107,249,o),
(80,221,o),
(80,187,cs),
(80,156,o),
(107,121,o),
(143,121,cs)
);
}
);
width = 346;
},
{
layerId = m01;
shapes = (
{
closed = 1;
nodes = (
(124,138,o),
(143,158,o),
(143,179,cs),
(143,201,o),
(124,218,o),
(103,218,cs),
(81,218,o),
(64,200,o),
(64,179,cs),
(64,159,o),
(81,138,o),
(103,138,cs)
);
}
);
width = 258;
}
);
unicode = 183;
},
{
glyphname = bullet;
lastChange = "2022-03-17 07:22:38 +0000";
layers = (
{
layerId = m01;
shapes = (
{
closed = 1;
nodes = (
(209,278,o),
(246,314,o),
(246,355,cs),
(246,396,o),
(210,430,o),
(170,430,cs),
(128,430,o),
(96,395,o),
(96,355,cs),
(96,316,o),
(127,278,o),
(169,278,cs)
);
}
);
width = 330;
},
{
layerId = "140DECC1-64C4-40C0-9C07-503DBC3F4160";
shapes = (
{
closed = 1;
nodes = (
(261,254,o),
(310,301,o),
(310,355,cs),
(310,409,o),
(262,454,o),
(208,454,cs),
(153,454,o),
(110,408,o),
(110,355,cs),
(110,304,o),
(151,254,o),
(207,254,cs)
);
}
);
width = 419;
}
);
unicode = 8226;
},
{
glyphname = asterisk;
lastChange = "2022-03-17 07:24:05 +0000";
layers = (
{
layerId = m01;
shapes = (
{
closed = 1;
nodes = (
(309,584,o),
(312,598,o),
(306,607,cs),
(301,614,o),
(289,617,o),
(274,608,cs),
(138,524,ls),
(121,513,o),
(117,499,o),
(123,491,cs),
(128,483,o),
(140,481,o),
(156,490,cs),
(292,574,ls)
);
},
{
closed = 1;
nodes = (
(269,482,o),
(282,484,o),
(289,492,cs),
(294,499,o),
(294,511,o),
(281,521,cs),
(173,606,ls),
(161,616,o),
(149,614,o),
(143,606,cs),
(136,599,o),
(136,586,o),
(149,576,cs),
(256,492,ls)
);
},
{
closed = 1;
nodes = (
(250,641,o),
(242,650,o),
(233,650,cs),
(223,650,o),
(211,641,o),
(208,623,cs),
(182,475,ls),
(179,458,o),
(186,450,o),
(195,448,cs),
(205,447,o),
(218,456,o),
(221,475,cs),
(247,623,ls)
);
}
);
width = 352;
},
{
layerId = "140DECC1-64C4-40C0-9C07-503DBC3F4160";
shapes = (
{
closed = 1;
nodes = (
(366,570,o),
(376,594,o),
(361,617,cs),
(350,633,o),
(322,639,o),
(297,625,cs),
(164,543,l),
(142,527,o),
(130,504,o),
(143,483,cs),
(153,464,o),
(184,458,o),
(211,474,cs),
(340,554,ls)
);
},
{
closed = 1;
nodes = (
(301,460,o),
(330,464,o),
(344,481,cs),
(357,499,o),
(355,521,o),
(333,538,cs),
(228,621,ls),
(206,638,o),
(177,634,o),
(164,617,cs),
(149,599,o),
(151,576,o),
(175,558,cs),
(276,477,l)
);
},
{
closed = 1;
nodes = (
(314,648,o),
(294,668,o),
(270,668,cs),
(249,668,o),
(226,651,o),
(221,624,cs),
(196,482,ls),
(191,453,o),
(207,436,o),
(228,431,cs),
(250,426,o),
(278,443,o),
(284,474,cs),
(309,616,ls)
);
}
);
width = 430;
}
);
unicode = 42;
},
{
glyphname = numbersign;
lastChange = "2022-03-17 14:09:54 +0000";
layers = (
{
layerId = m01;
shapes = (
{
closed = 1;
nodes = (
(215,-1,o),
(230,8,o),
(234,28,cs),
(325,543,ls),
(328,559,o),
(317,568,o),
(304,568,cs),
(291,568,o),
(277,560,o),
(274,543,cs),
(183,28,ls),
(180,10,o),
(190,0,o),
(202,0,cs)
);
},
{
closed = 1;
nodes = (
(634,147,ls),
(651,147,o),
(660,159,o),
(660,170,cs),
(660,181,o),
(652,192,o),
(634,192,cs),
(89,192,ls),
(71,192,o),
(63,181,o),
(63,170,cs),
(63,159,o),
(72,147,o),
(89,147,cs)
);
},
{
closed = 1;
nodes = (
(473,0,o),
(487,9,o),
(490,28,cs),
(581,543,ls),
(584,559,o),
(573,567,o),
(561,568,cs),
(548,568,o),
(533,560,o),
(530,543,cs),
(439,28,ls),
(436,9,o),
(447,-1,o),
(460,0,cs)
);
},
{
closed = 1;
nodes = (
(675,384,ls),
(693,384,o),
(702,395,o),
(702,406,cs),
(702,417,o),
(693,429,o),
(675,429,cs),
(131,429,ls),
(113,429,o),
(104,417,o),
(104,406,cs),
(104,395,o),
(113,384,o),
(131,384,cs)
);
}
);
width = 779;
},
{
layerId = "140DECC1-64C4-40C0-9C07-503DBC3F4160";
shapes = (
{
closed = 1;
nodes = (
(477,0,o),
(499,11,o),
(504,39,cs),
(589,523,ls),
(595,555,o),
(571,568,o),
(548,568,cs),
(524,568,o),
(496,558,o),
(491,531,cs),
(406,47,ls),
(400,13,o),
(426,0,o),
(453,0,cs)
);
},
{
closed = 1;
nodes = (
(614,133,ls),
(643,133,o),
(663,153,o),
(663,177,cs),
(663,200,o),
(644,218,o),
(614,218,cs),
(102,218,ls),
(72,218,o),
(52,200,o),
(52,177,cs),
(52,153,o),
(73,133,o),
(102,133,cs)
);
},
{
closed = 1;
nodes = (
(229,0,o),
(258,10,o),
(263,39,cs),
(348,523,ls),
(353,552,o),
(329,568,o),
(302,568,cs),
(277,568,o),
(256,557,o),
(251,530,cs),
(165,47,ls),
(159,16,o),
(179,0,o),
(205,0,cs)
);
},
{
closed = 1;
nodes = (
(652,357,ls),
(682,357,o),
(703,375,o),
(703,399,cs),
(703,422,o),
(682,442,o),
(652,442,cs),
(141,442,ls),
(111,442,o),
(91,422,o),
(91,399,cs),
(91,375,o),
(111,357,o),
(141,357,cs)
);
}
);
width = 756;
}
);
unicode = 35;
},
{
glyphname = slash;
lastChange = "2022-03-17 14:10:18 +0000";
layers = (
{
layerId = m01;
shapes = (
{
closed = 1;
nodes = (
(70,0,o),
(81,6,o),
(87,20,cs),
(344,616,ls),
(353,637,o),
(338,650,o),
(323,650,cs),
(312,650,o),
(301,644,o),
(294,627,cs),
(37,31,ls),
(29,12,o),
(43,0,o),
(59,0,cs)
);
}
);
width = 384;
},
{
layerId = "140DECC1-64C4-40C0-9C07-503DBC3F4160";
shapes = (
{
closed = 1;
nodes = (
(141,0,o),
(163,10,o),
(173,32,cs),
(414,588,ls),
(430,624,o),
(399,650,o),
(369,650,cs),
(349,650,o),
(327,639,o),
(316,614,cs),
(76,60,ls),
(61,25,o),
(90,0,o),
(122,0,cs)
);
}
);
width = 447;
}
);
unicode = 47;
},
{
glyphname = backslash;
lastChange = "2022-03-17 14:10:36 +0000";
layers = (
{
layerId = m01;
shapes = (
{
closed = 1;
nodes = (
(356,0,o),
(370,13,o),
(362,31,cs),
(105,627,ls),
(98,644,o),
(87,650,o),
(76,650,cs),
(61,650,o),
(46,637,o),
(55,616,cs),
(312,20,ls),
(318,5,o),
(330,0,o),
(341,0,cs)
);
}
);
width = 384;
},
{
layerId = "140DECC1-64C4-40C0-9C07-503DBC3F4160";
shapes = (
{
closed = 1;
nodes = (
(411,13,o),
(423,41,o),
(411,69,cs),
(175,614,ls),
(160,648,o),
(129,655,o),
(104,646,cs),
(82,638,o),
(68,608,o),
(83,574,cs),
(318,32,ls),
(331,1,o),
(365,-6,o),
(390,4,cs)
);
}
);
width = 431;
}
);
unicode = 92;
},
{
glyphname = hyphen;
lastChange = "2022-03-17 14:10:51 +0000";
layers = (
{
layerId = m01;
shapes = (
{
closed = 1;
nodes = (
(242,175,ls),
(260,175,o),
(269,188,o),
(269,200,cs),
(269,211,o),
(260,225,o),
(242,225,cs),
(94,225,ls),
(75,225,o),
(67,210,o),
(67,198,cs),
(67,186,o),
(77,175,o),
(94,175,cs)
);
}
);
width = 380;
},
{
layerId = "140DECC1-64C4-40C0-9C07-503DBC3F4160";
shapes = (
{
closed = 1;
nodes = (
(282,153,ls),
(313,153,o),
(334,173,o),
(334,198,cs),
(334,222,o),
(313,242,o),
(282,242,cs),
(134,242,ls),
(101,242,o),
(80,220,o),
(82,194,cs),
(84,171,o),
(105,153,o),
(134,153,cs)
);
}
);
width = 470;
}
);
unicode = 45;
},
{
glyphname = endash;
lastChange = "2022-03-17 14:11:08 +0000";
layers = (
{
layerId = m01;
shapes = (
{
closed = 1;
nodes = (
(322,175,ls),
(340,175,o),
(349,187,o),
(349,199,cs),
(349,210,o),
(340,220,o),
(322,220,cs),
(95,220,ls),
(77,220,o),
(68,210,o),
(68,199,cs),
(68,187,o),
(77,175,o),
(95,175,cs)
);
}
);
width = 460;
},
{
layerId = "140DECC1-64C4-40C0-9C07-503DBC3F4160";
shapes = (
{
closed = 1;
nodes = (
(361,153,ls),
(392,153,o),
(413,174,o),
(413,199,cs),
(413,223,o),
(392,242,o),
(361,242,cs),
(134,242,ls),
(103,242,o),
(82,223,o),
(82,199,cs),
(82,174,o),
(103,153,o),
(134,153,cs)
);
}
);
width = 548;
}
);
unicode = 8211;
},
{
glyphname = emdash;
lastChange = "2022-03-17 14:11:31 +0000";
layers = (
{
layerId = m01;
shapes = (
{
closed = 1;
nodes = (
(420,175,ls),
(440,175,o),
(451,187,o),
(451,199,cs),
(451,209,o),
(441,220,o),
(420,220,cs),
(97,220,ls),
(77,220,o),
(67,209,o),
(67,199,cs),
(67,187,o),
(78,175,o),
(97,175,cs)
);
}
);
width = 562;
},
{
layerId = "140DECC1-64C4-40C0-9C07-503DBC3F4160";
shapes = (
{
closed = 1;
nodes = (
(460,153,ls),
(493,153,o),
(516,174,o),
(516,199,cs),
(516,222,o),
(494,242,o),
(460,242,cs),
(137,242,ls),
(104,242,o),
(82,222,o),
(82,199,cs),
(82,174,o),
(105,153,o),
(137,153,cs)
);
}
);
width = 651;
}
);
unicode = 8212;
},
{
glyphname = underscore;
lastChange = "2022-03-17 14:11:48 +0000";
layers = (
{
layerId = m01;
shapes = (
{
closed = 1;
nodes = (
(339,-77,ls),
(357,-77,o),
(366,-66,o),
(366,-54,cs),
(366,-43,o),
(357,-32,o),
(339,-32,cs),
(50,-32,ls),
(31,-32,o),
(23,-43,o),
(23,-55,cs),
(23,-66,o),
(33,-77,o),
(50,-77,cs)
);
}
);
width = 522;
},
{
layerId = "140DECC1-64C4-40C0-9C07-503DBC3F4160";
shapes = (
{
closed = 1;
nodes = (
(378,-99,ls),
(409,-99,o),
(430,-79,o),
(430,-54,cs),
(430,-30,o),
(409,-10,o),
(378,-10,cs),
(89,-10,ls),
(57,-10,o),
(37,-30,o),
(37,-55,cs),
(37,-79,o),
(59,-99,o),
(89,-99,cs)
);
}
);
width = 610;
}
);
unicode = 95;
},
{
glyphname = parenleft;
lastChange = "2022-03-17 07:31:54 +0000";
layers = (
{
layerId = m01;
shapes = (
{
closed = 1;
nodes = (
(204,-292,o),
(205,-278,o),
(197,-261,cs),
(111,-81,o),
(98,77,o),
(123,219,cs),
(146,347,o),
(222,480,o),
(348,607,cs),
(366,625,o),
(368,639,o),
(361,646,cs),
(353,654,o),
(335,651,o),
(315,633,cs),
(183,506,o),
(86,329,o),
(67,219,cs),
(45,94,o),
(71,-101,o),
(161,-283,cs),
(169,-299,o),
(185,-303,o),
(196,-297,cs)
);
}
);
width = 368;
},
{
layerId = "140DECC1-64C4-40C0-9C07-503DBC3F4160";
shapes = (
{
closed = 1;
nodes = (
(277,-283,o),
(282,-264,o),
(270,-235,c),
(189,-66,o),
(177,80,o),
(201,213,cs),
(222,333,o),
(292,456,o),
(410,574,cs),
(441,605,o),
(436,628,o),
(422,643,cs),
(407,658,o),
(374,659,o),
(343,631,cs),
(211,505,o),
(116,330,o),
(97,221,cs),
(76,96,o),
(101,-95,o),
(190,-275,cs),
(205,-303,o),
(241,-310,o),
(262,-295,cs)
);
}
);
width = 452;
}
);
unicode = 40;
},
{
glyphname = parenright;
lastChange = "2022-03-17 14:12:11 +0000";
layers = (
{
layerId = m01;
shapes = (
{
closed = 1;
nodes = (
(-33,-284,o),
(-16,-285,o),
(-3,-273,cs),
(143,-133,o),
(234,42,o),
(257,167,cs),
(276,276,o),
(246,476,o),
(165,640,cs),
(152,664,o),
(137,673,o),
(126,668,cs),
(117,664,o),
(114,650,o),
(125,627,cs),
(200,465,o),
(226,314,o),
(204,186,cs),
(179,44,o),
(113,-100,o),
(-30,-240,cs),
(-43,-253,o),
(-47,-267,o),
(-41,-274,cs)
);
}
);
width = 368;
},
{
layerId = "140DECC1-64C4-40C0-9C07-503DBC3F4160";
shapes = (
{
closed = 1;
nodes = (
(-5,-289,o),
(32,-291,o),
(53,-270,cs),
(199,-132,o),
(288,41,o),
(311,164,cs),
(329,274,o),
(301,469,o),
(221,631,cs),
(200,669,o),
(171,679,o),
(149,669,cs),
(131,660,o),
(119,640,o),
(136,601,cs),
(207,448,o),
(231,309,o),
(210,190,cs),
(187,56,o),
(126,-76,o),
(-6,-207,cs),
(-26,-225,o),
(-36,-249,o),
(-21,-267,cs)
);
}
);
width = 452;
}
);
unicode = 41;
},
{
glyphname = braceleft;
lastChange = "2022-03-17 14:13:05 +0000";
layers = (
{
layerId = m01;
shapes = (
{
closed = 1;
nodes = (
(129,237,o),
(142,268,o),
(150,312,cs),
(159,365,o),
(144,476,o),
(164,535,cs),
(183,585,o),
(228,606,o),
(260,617,cs),
(273,622,o),
(277,631,o),
(273,642,cs),
(268,655,o),
(251,649,o),
(238,644,cs),
(209,630,o),
(151,603,o),
(132,551,cs),
(110,489,o),
(123,376,o),
(113,318,cs),
(106,290,o),
(94,265,o),
(69,241,cs),
(56,229,o),
(46,222,o),
(44,206,c),
(88,198,l)
);
},
{
closed = 1;
nodes = (
(127,-285,o),
(119,-276,o),
(109,-266,cs),
(82,-239,o),
(66,-211,o),
(64,-157,cs),
(62,-94,o),
(108,10,o),
(114,64,cs),
(119,108,o),
(115,145,o),
(88,198,c),
(44,206,l),
(44,188,o),
(51,179,o),
(59,163,cs),
(75,130,o),
(80,101,o),
(77,72,cs),
(70,15,o),
(25,-93,o),
(28,-159,cs),
(31,-216,o),
(63,-261,o),
(88,-288,cs),
(99,-300,o),
(111,-304,o),
(119,-294,cs)
);
}
);
width = 273;
},
{
layerId = "140DECC1-64C4-40C0-9C07-503DBC3F4160";
shapes = (
{
closed = 1;
nodes = (
(207,219,o),
(222,255,o),
(231,302,cs),
(240,357,o),
(226,459,o),
(244,511,cs),
(260,552,o),
(294,567,o),
(323,576,cs),
(346,585,o),
(358,605,o),
(348,628,cs),
(338,656,o),
(305,652,o),
(282,642,cs),
(253,629,o),
(187,599,o),
(166,540,cs),
(144,475,o),
(155,369,o),
(146,316,cs),
(140,291,o),
(130,273,o),
(111,254,cs),
(90,235,o),
(79,225,o),
(85,187,c),
(155,173,l)
);
},
{
closed = 1;
nodes = (
(214,-268,o),
(202,-252,o),
(187,-235,cs),
(163,-211,o),
(148,-187,o),
(146,-139,cs),
(145,-83,o),
(191,12,o),
(196,66,cs),
(202,114,o),
(196,155,o),
(165,216,c),
(87,224,l),
(75,182,o),
(87,172,o),
(97,153,cs),
(110,126,o),
(114,103,o),
(111,79,cs),
(104,26,o),
(59,-75,o),
(62,-143,cs),
(65,-203,o),
(102,-256,o),
(129,-285,cs),
(152,-311,o),
(183,-308,o),
(197,-289,cs)
);
}
);
width = 419;
}
);
unicode = 123;
},
{
glyphname = braceright;
lastChange = "2022-03-17 14:13:38 +0000";
layers = (
{
layerId = m01;
shapes = (
{
closed = 1;
nodes = (
(-71,-305,o),
(-58,-305,o),
(-44,-297,cs),
(-12,-280,o),
(38,-244,o),
(59,-191,cs),
(84,-130,o),
(76,-13,o),
(88,43,cs),
(95,72,o),
(109,97,o),
(135,123,cs),
(148,136,o),
(157,142,o),
(163,159,c),
(119,166,l),
(76,125,o),
(60,91,o),
(51,48,cs),
(39,-5,o),
(48,-119,o),
(26,-178,cs),
(6,-228,o),
(-22,-253,o),
(-57,-270,cs),
(-69,-276,o),
(-80,-282,o),
(-75,-293,cs)
);
},
{
closed = 1;
nodes = (
(166,175,o),
(159,185,o),
(151,200,cs),
(135,231,o),
(132,259,o),
(134,288,cs),
(144,346,o),
(193,448,o),
(192,514,cs),
(191,569,o),
(145,614,o),
(122,636,cs),
(111,645,o),
(97,657,o),
(88,646,cs),
(81,637,o),
(82,627,o),
(93,618,cs),
(119,597,o),
(155,563,o),
(157,509,cs),
(156,447,o),
(106,347,o),
(97,294,cs),
(90,250,o),
(93,216,o),
(119,166,c),
(163,159,l)
);
}
);
width = 262;
},
{
layerId = "140DECC1-64C4-40C0-9C07-503DBC3F4160";
shapes = (
{
closed = 1;
nodes = (
(13,-300,o),
(46,-309,o),
(74,-291,c),
(108,-273,o),
(160,-235,o),
(182,-179,cs),
(208,-116,o),
(203,-10,o),
(214,40,cs),
(221,66,o),
(231,85,o),
(253,107,cs),
(267,122,o),
(283,130,o),
(286,175,c),
(211,187,l),
(158,139,o),
(140,101,o),
(130,55,cs),
(118,0,o),
(123,-99,o),
(104,-151,cs),
(86,-195,o),
(66,-213,o),
(37,-227,cs),
(12,-240,o),
(-1,-254,o),
(6,-275,cs)
);
},
{
closed = 1;
nodes = (
(294,171,o),
(286,182,o),
(273,205,cs),
(260,231,o),
(257,253,o),
(259,278,c),
(269,332,o),
(316,430,o),
(315,497,cs),
(314,558,o),
(265,607,o),
(240,630,cs),
(219,648,o),
(188,662,o),
(170,637,cs),
(155,618,o),
(157,598,o),
(179,580,cs),
(202,562,o),
(229,536,o),
(231,493,cs),
(230,437,o),
(183,343,o),
(173,289,cs),
(166,241,o),
(170,202,o),
(203,143,c),
(275,132,l)
);
}
);
width = 422;
}
);
unicode = 125;
},
{
glyphname = bracketleft;
lastChange = "2022-03-17 14:14:18 +0000";
layers = (
{
layerId = m01;
shapes = (
{
closed = 1;
nodes = (
(31,-300,o),
(33,-283,o),
(35,-273,cs),
(192,618,ls),
(195,636,o),
(195,650,o),
(174,650,cs),
(153,650,o),
(145,639,o),
(142,623,cs),
(-16,-273,ls),
(-19,-288,o),
(-11,-300,o),
(9,-300,cs)
);
},
{
closed = 1;
nodes = (
(151,-300,ls),
(168,-300,o),
(177,-288,o),
(177,-277,cs),
(177,-266,o),
(169,-255,o),
(151,-255,cs),
(12,-255,l),
(6,-300,l)
);
},
{
closed = 1;
nodes = (
(310,605,ls),
(327,605,o),
(336,616,o),
(337,627,cs),
(338,638,o),
(329,650,o),
(310,650,cs),
(172,650,l),
(167,605,l)
);
}
);
width = 335;
},
{
layerId = "140DECC1-64C4-40C0-9C07-503DBC3F4160";
shapes = (
{
closed = 1;
nodes = (
(88,-300,o),
(103,-278,o),
(107,-255,cs),
(258,600,ls),
(265,640,o),
(240,650,o),
(213,650,cs),
(183,650,o),
(163,637,o),
(158,609,cs),
(6,-251,ls),
(1,-279,o),
(21,-300,o),
(55,-300,cs)
);
},
{
closed = 1;
nodes = (
(191,-300,ls),
(221,-300,o),
(238,-284,o),
(243,-258,cs),
(248,-230,o),
(222,-215,o),
(191,-215,cs),
(98,-215,l),
(53,-300,l)
);
},
{
closed = 1;
nodes = (
(344,565,ls),
(372,565,o),
(391,582,o),
(395,605,cs),
(400,633,o),
(373,650,o),
(344,650,cs),
(211,650,l),
(238,565,l)
);
}
);
width = 397;
}
);
unicode = 91;
},
{
glyphname = bracketright;
lastChange = "2022-03-17 14:16:26 +0000";
layers = (
{
layerId = m01;
shapes = (
{
closed = 1;
nodes = (
(128,-300,o),
(135,-289,o),
(138,-273,cs),
(296,623,ls),
(299,638,o),
(291,650,o),
(271,650,cs),
(249,650,o),
(247,634,o),
(245,624,cs),
(88,-268,ls),
(85,-286,o),
(85,-300,o),
(106,-300,c)
);
},
{
closed = 1;
nodes = (
(109,-300,l),
(94,-255,l),
(-29,-255,ls),
(-46,-255,o),
(-56,-266,o),
(-56,-277,cs),
(-56,-289,o),
(-48,-300,o),
(-29,-300,cs)
);
},
{
closed = 1;
nodes = (
(247,605,l),
(275,650,l),
(130,650,ls),
(112,650,o),
(103,638,o),
(103,627,cs),
(103,616,o),
(112,605,o),
(130,605,cs)
);
}
);
width = 335;
},
{
layerId = "140DECC1-64C4-40C0-9C07-503DBC3F4160";
shapes = (
{
closed = 1;
nodes = (
(157,-300,o),
(176,-287,o),
(181,-259,cs),
(333,601,ls),
(338,629,o),
(318,650,o),
(284,650,cs),
(250,650,o),
(237,632,o),
(233,610,cs),
(82,-246,ls),
(74,-291,o),
(99,-300,o),
(126,-300,cs)
);
},
{
closed = 1;
nodes = (
(127,-300,l),
(99,-215,l),
(-4,-215,ls),
(-30,-215,o),
(-51,-233,o),
(-55,-257,cs),
(-59,-281,o),
(-38,-300,o),
(-4,-300,cs)
);
},
{
closed = 1;
nodes = (
(236,565,l),
(285,650,l),
(149,650,ls),
(118,650,o),
(102,634,o),
(97,607,cs),
(93,583,o),
(118,565,o),
(149,565,cs)
);
}
);
width = 397;
}
);
unicode = 93;
},
{
glyphname = quotedbl;
lastChange = "2022-03-17 14:17:19 +0000";
layers = (
{
layerId = m01;
shapes = (
{
closed = 1;
nodes = (
(159,500,o),
(173,508,o),
(176,524,cs),
(193,620,ls),
(197,640,o),
(184,650,o),
(171,650,cs),
(159,650,o),
(145,641,o),
(142,624,cs),
(125,528,ls),
(122,510,o),
(134,500,o),
(147,500,cs)
);
},
{
closed = 1;
nodes = (
(268,500,o),
(282,507,o),
(284,521,cs),
(301,620,ls),
(304,640,o),
(292,650,o),
(278,650,cs),
(266,650,o),
(254,642,o),
(251,628,cs),
(233,528,ls),
(230,509,o),
(242,500,o),
(256,500,cs)
);
}
);
width = 340;
},
{
layerId = "140DECC1-64C4-40C0-9C07-503DBC3F4160";
shapes = (
{
closed = 1;
nodes = (
(338,456,o),
(365,470,o),
(369,496,cs),
(386,595,ls),
(392,629,o),
(366,650,o),
(338,650,cs),
(315,650,o),
(291,635,o),
(286,610,cs),
(268,510,ls),
(261,472,o),
(292,456,o),
(316,456,cs)
);
},
{
closed = 1;
nodes = (
(180,456,o),
(205,471,o),
(210,498,cs),
(227,594,ls),
(233,628,o),
(209,650,o),
(181,650,cs),
(158,650,o),
(132,634,o),
(127,606,cs),
(110,510,ls),
(104,477,o),
(129,456,o),
(157,456,cs)
);
}
);
width = 414;
}
);
unicode = 34;
},
{
glyphname = quotesingle;
lastChange = "2022-03-17 14:17:38 +0000";
layers = (
{
layerId = m01;
shapes = (
{
closed = 1;
nodes = (
(160,500,o),
(174,507,o),
(176,521,cs),
(193,620,ls),
(196,640,o),
(184,650,o),
(170,650,cs),
(158,650,o),
(146,642,o),
(143,628,cs),
(125,528,ls),
(122,509,o),
(134,500,o),
(148,500,cs)
);
}
);
width = 232;
},
{
layerId = "140DECC1-64C4-40C0-9C07-503DBC3F4160";
shapes = (
{
closed = 1;
nodes = (
(210,456,o),
(237,470,o),
(241,496,cs),
(258,595,ls),
(263,629,o),
(238,650,o),
(210,650,cs),
(187,650,o),
(164,635,o),
(158,610,cs),
(140,510,ls),
(134,472,o),
(164,456,o),
(188,456,cs)
);
}
);
width = 319;
}
);
unicode = 39;
},
{
glyphname = at;
lastChange = "2022-03-17 14:43:46 +0000";
layers = (
{
layerId = m01;
shapes = (
{
closed = 1;
nodes = (
(377,0,o),
(376,83,o),
(388,151,cs),
(423,350,l),
(453,350,ls),
(469,350,o),
(471,334,o),
(468,316,cs),
(435,132,ls),
(432,115,o),
(427,46,o),
(443,46,cs),
(487,46,o),
(556,211,o),
(563,256,cs),
(582,379,o),
(512,407,o),
(390,407,cs),
(274,407,o),
(144,375,o),
(101,155,cs),
(78,36,o),
(166,-56,o),
(227,-56,cs),
(292,-56,o),
(328,-49,o),
(358,-28,cs),
(378,-14,o),
(392,-10,o),
(400,-21,cs),
(411,-35,o),
(403,-59,o),
(365,-83,cs),
(345,-96,o),
(313,-106,o),
(231,-106,cs),
(134,-106,o),
(27,12,o),
(50,156,cs),
(89,401,o),
(251,457,o),
(392,457,cs),
(549,457,o),
(637,403,o),
(610,238,cs),
(598,166,o),
(518,0,o),
(444,0,cs)
);
},
{
closed = 1;
nodes = (
(208,-4,o),
(144,47,o),
(162,147,cs),
(178,237,o),
(227,350,o),
(393,350,c),
(427,350,l),
(419,300,l),
(396,300,l),
(262,300,o),
(223,205,o),
(213,147,cs),
(202,82,o),
(227,46,o),
(260,46,cs),
(295,46,o),
(360,139,o),
(413,270,c),
(392,113,l),
(356,49,o),
(312,-4,o),
(252,-4,cs)
);
}
);
width = 705;
},
{
layerId = "140DECC1-64C4-40C0-9C07-503DBC3F4160";
shapes = (
{
closed = 1;
nodes = (
(401,0,o),
(392,83,o),
(406,162,cs),
(439,350,l),
(487,350,ls),
(519,350,o),
(531,328,o),
(525,295,cs),
(502,160,ls),
(493,108,o),
(491,93,o),
(501,93,cs),
(528,93,o),
(573,208,o),
(580,249,cs),
(597,348,o),
(569,385,o),
(441,385,cs),
(298,385,o),
(160,339,o),
(126,139,cs),
(109,40,o),
(203,-36,o),
(249,-36,cs),
(306,-36,o),
(336,-37,o),
(372,-18,cs),
(404,-1,o),
(428,-10,o),
(438,-25,cs),
(454,-49,o),
(459,-77,o),
(406,-102,cs),
(374,-117,o),
(332,-124,o),
(253,-124,cs),
(108,-124,o),
(8,8,o),
(32,146,cs),
(74,393,o),
(251,475,o),
(443,475,cs),
(625,475,o),
(693,391,o),
(664,228,cs),
(649,138,o),
(579,0,o),
(480,0,cs)
);
},
{
closed = 1;
nodes = (
(222,-4,o),
(156,47,o),
(174,147,cs),
(194,261,o),
(264,350,o),
(430,350,cs),
(454,350,l),
(445,260,l),
(433,260,ls),
(299,260,o),
(283,193,o),
(275,147,cs),
(267,101,o),
(282,86,o),
(310,86,cs),
(339,86,o),
(392,189,o),
(451,320,c),
(429,112,l),
(393,48,o),
(349,-4,o),
(289,-4,cs)
);
}
);
width = 701;
}
);
unicode = 64;
},
{
glyphname = ampersand;
lastChange = "2022-03-17 14:42:12 +0000";
layers = (
{
layerId = m01;
shapes = (
{
closed = 1;
nodes = (
(304,-4,o),
(366,51,o),
(450,186,c),
(461,200,o),
(464,219,o),
(450,229,cs),
(435,239,o),
(419,232,o),
(407,216,c),
(338,108,o),
(289,46,o),
(203,46,cs),
(140,46,o),
(97,90,o),
(97,156,cs),
(97,227,o),
(162,297,o),
(228,336,cs),
(274,363,ls),
(385,428,o),
(437,491,o),
(437,556,cs),
(437,613,o),
(382,649,o),
(322,649,cs),
(222,650,o),
(153,585,o),
(144,520,cs),
(137,463,o),
(188,390,o),
(209,353,cs),
(395,22,ls),
(405,5,o),
(423,-9,o),
(438,1,cs),
(452,11,o),
(448,33,o),
(440,47,c),
(252,383,ls),
(235,414,o),
(191,485,o),
(195,520,cs),
(200,563,o),
(249,599,o),
(314,599,cs),
(364,599,o),
(384,574,o),
(384,546,cs),
(384,500,o),
(329,445,o),
(227,387,cs),
(206,375,ls),
(119,325,o),
(42,243,o),
(42,154,cs),
(42,77,o),
(94,-4,o),
(189,-4,cs)
);
}
);
width = 553;
},
{
layerId = "140DECC1-64C4-40C0-9C07-503DBC3F4160";
shapes = (
{
closed = 1;
nodes = (
(356,-4,o),
(425,70,o),
(505,191,cs),
(522,217,o),
(514,244,o),
(492,257,cs),
(468,272,o),
(430,263,o),
(412,238,cs),
(357,160,o),
(320,97,o),
(261,97,cs),
(218,97,o),
(182,119,o),
(182,172,cs),
(182,218,o),
(215,262,o),
(276,301,cs),
(312,324,l),
(414,393,o),
(508,469,o),
(488,560,cs),
(475,622,o),
(417,650,o),
(351,650,cs),
(243,650,o),
(157,577,o),
(152,502,cs),
(147,441,o),
(196,383,o),
(229,329,c),
(413,24,l),
(427,1,o),
(469,-14,o),
(496,7,cs),
(525,30,o),
(523,59,o),
(508,83,cs),
(317,393,ls),
(285,445,o),
(259,479,o),
(261,504,cs),
(262,526,o),
(293,547,o),
(344,547,cs),
(374,547,o),
(382,541,o),
(384,532,cs),
(388,504,o),
(346,468,o),
(259,413,cs),
(227,393,ls),
(147,343,o),
(73,254,o),
(73,170,cs),
(73,86,o),
(121,-4,o),
(243,-4,cs)
);
}
);
width = 644;
}
);
unicode = 38;
},
{
glyphname = degree;
lastChange = "2022-03-17 10:03:00 +0000";
layers = (
{
layerId = m01;
shapes = (
{
closed = 1;
nodes = (
(233,465,o),
(271,516,o),
(293,571,o),
(293,595,qs),
(293,624,o),
(259,655,o),
(225,655,qs),
(197,655,o),
(158,624,o),
(147,604,qs),
(139,588,o),
(119,531,o),
(119,496,qs),
(119,473,o),
(130,445,o),
(150,433,o),
(163,433,qs),
(187,433,o)
);
},
{
closed = 1;
nodes = (
(158,490,o),
(158,503,qs),
(158,523,o),
(174,566,o),
(184,588,q),
(193,603,o),
(210,615,o),
(223,615,qs),
(240,615,o),
(253,604,o),
(253,588,qs),
(253,574,o),
(236,535,o),
(210,497,o),
(182,472,o),
(170,472,qs),
(161,472,o)
);
}
);
width = 310;
},
{
layerId = "140DECC1-64C4-40C0-9C07-503DBC3F4160";
shapes = (
{
closed = 1;
nodes = (
(294,434,o),
(336,490,o),
(360,551,o),
(360,577,q),
(360,613,o),
(314,654,o),
(272,654,q),
(235,654,o),
(187,614,o),
(175,593,q),
(166,578,o),
(146,516,o),
(146,478,q),
(146,444,o),
(166,410,o),
(196,398,o),
(210,398,q),
(240,398,o)
);
},
{
closed = 1;
nodes = (
(221,495,o),
(222,504,q),
(224,519,o),
(234,548,o),
(241,562,q),
(247,573,o),
(262,580,o),
(269,580,q),
(277,580,o),
(280,567,o),
(279,555,q),
(278,543,o),
(267,516,o),
(251,491,o),
(234,476,o),
(227,476,q),
(224,476,o)
);
}
);
width = 422;
}
);
unicode = 176;
},
{
glyphname = bar;
lastChange = "2022-03-17 10:03:11 +0000";
layers = (
{
layerId = m01;
shapes = (
{
closed = 1;
nodes = (
(205,690,o),
(194,700,o),
(181,700,cs),
(169,700,o),
(154,690,o),
(151,672,cs),
(-16,-273,ls),
(-19,-288,o),
(-10,-300,o),
(8,-300,cs),
(30,-300,o),
(33,-285,o),
(35,-275,cs),
(201,668,ls)
);
}
);
width = 231;
},
{
layerId = "140DECC1-64C4-40C0-9C07-503DBC3F4160";
shapes = (
{
closed = 1;
nodes = (
(271,681,o),
(248,702,o),
(220,702,cs),
(198,702,o),
(172,685,o),
(167,657,cs),
(6,-250,ls),
(0,-278,o),
(22,-302,o),
(54,-302,cs),
(88,-302,o),
(100,-281,o),
(105,-260,c),
(265,645,ls)
);
}
);
width = 317;
}
);
unicode = 124;
},
{
glyphname = brokenbar;
lastChange = "2022-03-17 10:03:23 +0000";
layers = (
{
layerId = m01;
shapes = (
{
closed = 1;
nodes = (
(110,152,o),
(99,162,o),
(87,162,cs),
(74,162,o),
(59,152,o),
(56,135,cs),
(-16,-273,ls),
(-19,-288,o),
(-10,-300,o),
(8,-300,cs),
(30,-300,o),
(33,-285,o),
(35,-275,cs),
(107,135,ls)
);
},
{
closed = 1;
nodes = (
(205,690,o),
(194,700,o),
(181,700,cs),
(169,700,o),
(154,690,o),
(151,672,cs),
(79,266,ls),
(76,249,o),
(87,238,o),
(100,239,cs),
(113,239,o),
(127,249,o),
(130,266,cs),
(201,668,ls)
);
}
);
width = 231;
},
{
layerId = "140DECC1-64C4-40C0-9C07-503DBC3F4160";
shapes = (
{
closed = 1;
nodes = (
(175,141,o),
(153,163,o),
(126,163,cs),
(103,163,o),
(76,146,o),
(71,119,cs),
(6,-248,ls),
(1,-276,o),
(22,-300,o),
(54,-300,cs),
(88,-300,o),
(101,-279,o),
(105,-258,cs),
(170,111,ls)
);
},
{
closed = 1;
nodes = (
(270,679,o),
(247,700,o),
(219,700,cs),
(197,700,o),
(171,683,o),
(166,655,cs),
(101,290,ls),
(95,259,o),
(119,236,o),
(147,238,cs),
(170,239,o),
(195,256,o),
(200,282,cs),
(264,643,ls)
);
}
);
width = 316;
}
);
unicode = 166;
},
{
glyphname = dollar;
lastChange = "2022-03-17 10:03:32 +0000";
layers = (
{
layerId = m01;
shapes = (
{
closed = 1;
nodes = (
(257,-4,o),
(344,28,o),
(364,141,cs),
(381,237,o),
(323,279,o),
(246,325,cs),
(167,372,o),
(117,390,o),
(128,447,cs),
(137,499,o),
(194,523,o),
(289,523,cs),
(340,523,o),
(369,498,o),
(380,462,cs),
(384,449,o),
(397,443,o),
(411,447,cs),
(425,451,o),
(428,467,o),
(423,485,cs),
(411,532,o),
(368,569,o),
(290,569,cs),
(162,569,o),
(93,520,o),
(80,451,cs),
(65,371,o),
(130,335,o),
(206,289,cs),
(290,238,o),
(326,212,o),
(316,148,cs),
(302,61,o),
(230,42,o),
(160,42,cs),
(97,42,o),
(62,68,o),
(56,99,cs),
(54,116,o),
(39,122,o),
(25,118,cs),
(9,114,o),
(6,98,o),
(9,82,cs),
(18,30,o),
(72,-4,o),
(141,-4,cs)
);
},
{
closed = 1;
nodes = (
(318,639,o),
(308,650,o),
(296,650,cs),
(285,650,o),
(272,641,o),
(269,622,cs),
(150,-52,ls),
(147,-71,o),
(157,-80,o),
(168,-80,cs),
(179,-80,o),
(192,-71,o),
(195,-54,cs),
(314,618,ls)
);
}
);
width = 437;
},
{
layerId = "140DECC1-64C4-40C0-9C07-503DBC3F4160";
shapes = (
{
closed = 1;
nodes = (
(274,-3,o),
(386,33,o),
(407,145,cs),
(429,262,o),
(355,303,o),
(290,343,cs),
(232,379,o),
(162,400,o),
(170,441,cs),
(176,474,o),
(218,479,o),
(279,479,cs),
(337,479,o),
(361,467,o),
(368,444,cs),
(377,415,o),
(402,404,o),
(432,413,cs),
(457,421,o),
(468,442,o),
(463,466,cs),
(448,538,o),
(400,568,o),
(301,568,cs),
(163,568,o),
(82,532,o),
(67,444,cs),
(50,348,o),
(157,303,o),
(220,266,cs),
(288,226,o),
(323,204,o),
(312,149,cs),
(303,104,o),
(252,93,o),
(181,93,cs),
(119,93,o),
(102,102,o),
(95,123,cs),
(84,153,o),
(51,162,o),
(26,154,cs),
(3,147,o),
(-15,125,o),
(-10,101,cs),
(2,33,o),
(63,-3,o),
(175,-3,cs)
);
},
{
closed = 1;
nodes = (
(355,629,o),
(332,650,o),
(306,650,cs),
(284,650,o),
(259,635,o),
(254,606,cs),
(143,-28,ls),
(137,-61,o),
(160,-80,o),
(185,-80,cs),
(207,-80,o),
(232,-65,o),
(237,-38,cs),
(349,594,ls)
);
}
);
width = 474;
}
);
unicode = 36;
},
{
glyphname = plus;
lastChange = "2022-03-17 10:13:38 +0000";
layers = (
{
layerId = m01;
shapes = (
{
closed = 1;
nodes = (
(252,323,o),
(240,334,o),
(228,334,cs),
(218,334,o),
(208,327,o),
(205,311,cs),
(166,87,ls),
(163,68,o),
(175,57,o),
(187,57,cs),
(197,57,o),
(207,64,o),
(210,80,cs),
(249,304,ls)
);
},
{
closed = 1;
nodes = (
(339,175,o),
(348,187,o),
(348,198,cs),
(348,209,o),
(339,220,o),
(321,220,cs),
(94,220,ls),
(76,220,o),
(67,209,o),
(67,198,cs),
(67,187,o),
(76,175,o),
(94,175,cs),
(321,175,ls)
);
}
);
width = 459;
},
{
layerId = "140DECC1-64C4-40C0-9C07-503DBC3F4160";
shapes = (
{
closed = 1;
nodes = (
(311,329,o),
(288,350,o),
(261,350,cs),
(241,350,o),
(219,337,o),
(214,310,cs),
(177,95,ls),
(172,62,o),
(195,41,o),
(222,41,cs),
(242,41,o),
(264,54,o),
(269,81,cs),
(306,296,ls)
);
},
{
closed = 1;
nodes = (
(381,154,o),
(401,174,o),
(401,198,cs),
(401,221,o),
(381,241,o),
(350,241,cs),
(133,241,ls),
(102,241,o),
(82,221,o),
(82,198,cs),
(82,174,o),
(102,154,o),
(133,154,cs),
(350,154,ls)
);
}
);
width = 537;
}
);
unicode = 43;
},
{
glyphname = minus;
lastChange = "2022-03-17 10:13:50 +0000";
layers = (
{
layerId = m01;
shapes = (
{
closed = 1;
nodes = (
(339,175,o),
(348,187,o),
(348,198,cs),
(348,209,o),
(339,220,o),
(321,220,cs),
(94,220,ls),
(76,220,o),
(67,209,o),
(67,198,cs),
(67,186,o),
(76,175,o),
(94,175,cs),
(321,175,ls)
);
}
);
width = 459;
},
{
layerId = "140DECC1-64C4-40C0-9C07-503DBC3F4160";
shapes = (
{
closed = 1;
nodes = (
(381,154,o),
(401,174,o),
(401,198,cs),
(401,222,o),
(381,241,o),
(350,241,cs),
(133,241,ls),
(102,241,o),
(82,222,o),
(82,198,cs),
(82,173,o),
(102,154,o),
(133,154,cs),
(350,154,ls)
);
}
);
width = 537;
}
);
unicode = 8722;
},
{
glyphname = multiply;
lastChange = "2022-03-17 10:13:50 +0000";
layers = (
{
layerId = m01;
shapes = (
{
closed = 1;
nodes = (
(372,302,o),
(370,317,o),
(361,325,cs),
(352,334,o),
(336,337,o),
(322,325,cs),
(56,101,ls),
(44,91,o),
(46,76,o),
(54,67,cs),
(63,58,o),
(78,54,o),
(94,67,cs),
(358,290,ls)
);
},
{
closed = 1;
nodes = (
(121,336,o),
(106,335,o),
(97,327,cs),
(88,318,o),
(84,303,o),
(94,291,cs),
(283,69,ls),
(294,56,o),
(309,58,o),
(318,66,cs),
(328,74,o),
(332,89,o),
(321,102,cs),
(134,321,ls)
);
}
);
width = 460;
},
{
layerId = "140DECC1-64C4-40C0-9C07-503DBC3F4160";
shapes = (
{
closed = 1;
nodes = (
(426,292,o),
(425,319,o),
(405,336,cs),
(388,351,o),
(357,355,o),
(334,337,cs),
(79,122,ls),
(57,102,o),
(57,78,o),
(73,59,cs),
(91,40,o),
(123,36,o),
(149,56,cs),
(403,270,l)
);
},
{
closed = 1;
nodes = (
(166,355,o),
(131,353,o),
(114,335,cs),
(99,317,o),
(95,294,o),
(113,273,cs),
(294,59,l),
(314,38,o),
(347,40,o),
(364,55,cs),
(383,72,o),
(388,97,o),
(368,120,cs),
(189,331,l)
);
}
);
width = 537;
}
);
unicode = 215;
},
{
glyphname = divide;
lastChange = "2022-03-17 10:13:50 +0000";
layers = (
{
layerId = m01;
shapes = (
{
closed = 1;
nodes = (
(356,175,o),
(358,220,o),
(321,220,cs),
(94,220,ls),
(57,220,o),
(59,175,o),
(94,175,cs),
(321,175,ls)
);
},
{
closed = 1;
nodes = (
(205,57,o),
(221,73,o),
(221,90,cs),
(221,108,o),
(204,122,o),
(187,122,cs),
(168,122,o),
(156,106,o),
(156,90,cs),
(156,73,o),
(169,57,o),
(187,57,cs)
);
},
{
closed = 1;
nodes = (
(243,273,o),
(259,289,o),
(259,306,cs),
(259,323,o),
(243,338,o),
(226,338,cs),
(208,338,o),
(194,322,o),
(194,306,cs),
(194,290,o),
(208,273,o),
(226,273,cs)
);
}
);
width = 459;
},
{
layerId = "140DECC1-64C4-40C0-9C07-503DBC3F4160";
shapes = (
{
closed = 1;
nodes = (
(415,154,o),
(418,241,o),
(349,241,cs),
(132,241,ls),
(63,241,o),
(66,154,o),
(132,154,cs),
(349,154,ls)
);
},
{
closed = 1;
nodes = (
(248,16,o),
(275,40,o),
(275,69,cs),
(275,100,o),
(247,122,o),
(218,122,cs),
(187,122,o),
(163,98,o),
(163,69,cs),
(163,40,o),
(188,16,o),
(218,16,cs)
);
},
{
closed = 1;
nodes = (
(294,273,o),
(321,297,o),
(321,327,cs),
(321,356,o),
(294,379,o),
(264,379,cs),
(234,379,o),
(209,355,o),
(209,327,cs),
(209,298,o),
(234,273,o),
(264,273,cs)
);
}
);
width = 535;
}
);
unicode = 247;
},
{
glyphname = equal;
lastChange = "2022-03-17 10:13:50 +0000";
layers = (
{
layerId = m01;
shapes = (
{
closed = 1;
nodes = (
(352,248,o),
(361,260,o),
(361,271,cs),
(361,282,o),
(352,293,o),
(334,293,cs),
(107,293,ls),
(89,293,o),
(80,282,o),
(80,271,cs),
(80,260,o),
(89,248,o),
(107,248,cs),
(334,248,ls)
);
},
{
closed = 1;
nodes = (
(326,97,o),
(335,108,o),
(335,120,cs),
(335,131,o),
(326,142,o),
(308,142,cs),
(81,142,ls),
(63,142,o),
(54,131,o),
(54,120,cs),
(54,109,o),
(63,97,o),
(81,97,cs),
(308,97,ls)
);
}
);
width = 460;
},
{
layerId = "140DECC1-64C4-40C0-9C07-503DBC3F4160";
shapes = (
{
closed = 1;
nodes = (
(397,248,o),
(418,266,o),
(418,290,cs),
(418,314,o),
(397,333,o),
(367,333,cs),
(149,333,ls),
(119,333,o),
(98,314,o),
(98,290,cs),
(98,266,o),
(119,248,o),
(149,248,cs),
(367,248,ls)
);
},
{
closed = 1;
nodes = (
(371,97,o),
(392,116,o),
(392,141,cs),
(392,165,o),
(371,182,o),
(341,182,cs),
(123,182,ls),
(93,182,o),
(72,165,o),
(72,141,cs),
(72,117,o),
(93,97,o),
(123,97,cs),
(341,97,ls)
);
}
);
width = 538;
}
);
unicode = 61;
},
{
glyphname = notequal;
lastChange = "2022-03-17 10:13:50 +0000";
layers = (
{
layerId = m01;
shapes = (
{
closed = 1;
nodes = (
(299,337,o),
(287,350,o),
(273,350,cs),
(263,350,o),
(253,345,o),
(247,333,cs),
(126,72,ls),
(118,54,o),
(126,42,o),
(137,38,cs),
(147,35,o),
(160,38,o),
(166,51,cs),
(287,312,ls)
);
},
{
closed = 1;
nodes = (
(326,97,o),
(335,108,o),
(335,120,cs),
(335,131,o),
(326,142,o),
(308,142,cs),
(81,142,ls),
(63,142,o),
(54,131,o),
(54,120,cs),
(54,109,o),
(63,97,o),
(81,97,cs),
(308,97,ls)
);
},
{
closed = 1;
nodes = (
(352,248,o),
(361,260,o),
(361,271,cs),
(361,282,o),
(352,293,o),
(334,293,cs),
(107,293,ls),
(89,293,o),
(80,282,o),
(80,271,cs),
(80,260,o),
(89,248,o),
(107,248,cs),
(334,248,ls)
);
}
);
width = 460;
},
{
layerId = "140DECC1-64C4-40C0-9C07-503DBC3F4160";
shapes = (
{
closed = 1;
nodes = (
(379,376,o),
(351,401,o),
(322,401,cs),
(305,401,o),
(283,391,o),
(274,372,cs),
(129,60,ls),
(115,30,o),
(130,8,o),
(155,-1,cs),
(175,-7,o),
(203,-1,o),
(214,22,cs),
(359,333,ls)
);
},
{
closed = 1;
nodes = (
(371,97,o),
(392,116,o),
(392,141,cs),
(392,165,o),
(371,182,o),
(341,182,cs),
(123,182,ls),
(93,182,o),
(72,165,o),
(72,141,cs),
(72,117,o),
(93,97,o),
(123,97,cs),
(341,97,ls)
);
},
{
closed = 1;
nodes = (
(397,248,o),
(418,266,o),
(418,290,cs),
(418,314,o),
(397,333,o),
(367,333,cs),
(149,333,ls),
(119,333,o),
(98,314,o),
(98,290,cs),
(98,266,o),
(119,248,o),
(149,248,cs),
(367,248,ls)
);
}
);
width = 538;
}
);
unicode = 8800;
},
{
glyphname = greater;
lastChange = "2022-03-17 10:15:04 +0000";
layers = (
{
layerId = m01;
shapes = (
{
closed = 1;
nodes = (
(282,216,l),
(67,103,ls),
(47,93,o),
(44,81,o),
(48,70,cs),
(52,60,o),
(63,50,o),
(82,60,cs),
(308,179,l)
);
},
{
closed = 1;
nodes = (
(296,171,o),
(307,176,o),
(314,186,cs),
(322,197,o),
(322,207,o),
(307,217,cs),
(130,330,ls),
(114,340,o),
(101,339,o),
(93,329,cs),
(85,318,o),
(88,304,o),
(103,294,cs),
(281,181,ls)
);
}
);
width = 430;
},
{
layerId = "140DECC1-64C4-40C0-9C07-503DBC3F4160";
shapes = (
{
closed = 1;
nodes = (
(320,245,l),
(95,127,ls),
(65,112,o),
(57,92,o),
(63,70,cs),
(70,46,o),
(100,30,o),
(131,45,cs),
(372,173,l)
);
},
{
closed = 1;
nodes = (
(320,147,o),
(351,154,o),
(365,176,cs),
(378,198,o),
(375,218,o),
(350,235,cs),
(179,344,ls),
(154,359,o),
(125,355,o),
(111,337,cs),
(95,315,o),
(100,291,o),
(125,272,c),
(296,164,l)
);
}
);
width = 511;
}
);
unicode = 62;
},
{
glyphname = less;
lastChange = "2022-03-17 10:15:04 +0000";
layers = (
{
layerId = m01;
shapes = (
{
closed = 1;
nodes = (
(319,290,ls),
(339,300,o),
(342,312,o),
(338,323,cs),
(334,333,o),
(323,343,o),
(304,333,cs),
(78,214,l),
(104,177,l)
);
},
{
closed = 1;
nodes = (
(272,53,o),
(285,54,o),
(293,64,cs),
(301,75,o),
(298,89,o),
(283,99,cs),
(105,212,ls),
(90,222,o),
(79,217,o),
(72,207,cs),
(64,196,o),
(64,186,o),
(79,176,cs),
(256,63,ls)
);
}
);
width = 430;
},
{
layerId = "140DECC1-64C4-40C0-9C07-503DBC3F4160";
shapes = (
{
closed = 1;
nodes = (
(362,266,ls),
(392,281,o),
(400,301,o),
(394,323,cs),
(387,347,o),
(357,363,o),
(326,348,cs),
(85,220,l),
(137,148,l)
);
},
{
closed = 1;
nodes = (
(303,34,o),
(332,38,o),
(346,56,cs),
(362,78,o),
(357,102,o),
(332,121,c),
(161,229,l),
(137,246,o),
(106,239,o),
(92,217,cs),
(79,195,o),
(82,175,o),
(107,158,cs),
(278,49,ls)
);
}
);
width = 512;
}
);
unicode = 60;
},
{
glyphname = greaterequal;
lastChange = "2022-03-17 10:16:18 +0000";
layers = (
{
layerId = m01;
shapes = (
{
closed = 1;
nodes = (
(307,198,o),
(318,202,o),
(325,212,cs),
(333,223,o),
(333,233,o),
(318,243,cs),
(135,360,ls),
(119,370,o),
(106,369,o),
(98,359,cs),
(90,348,o),
(93,334,o),
(108,324,cs),
(292,207,ls)
);
},
{
closed = 1;
nodes = (
(305,97,o),
(314,108,o),
(314,120,cs),
(314,131,o),
(305,142,o),
(287,142,cs),
(83,142,ls),
(65,142,o),
(56,131,o),
(56,120,cs),
(56,109,o),
(65,97,o),
(83,97,cs),
(287,97,ls)
);
},
{
closed = 1;
nodes = (
(310,248,l),
(104,248,ls),
(82,248,o),
(74,239,o),
(72,227,cs),
(71,216,o),
(76,202,o),
(98,202,cs),
(311,202,l)
);
}
);
width = 439;
},
{
layerId = "140DECC1-64C4-40C0-9C07-503DBC3F4160";
shapes = (
{
closed = 1;
nodes = (
(339,197,o),
(366,200,o),
(379,219,cs),
(394,241,o),
(392,261,o),
(367,279,c),
(189,393,ls),
(161,411,o),
(133,403,o),
(121,386,cs),
(105,364,o),
(112,344,o),
(137,325,c),
(316,212,ls)
);
},
{
closed = 1;
nodes = (
(342,57,o),
(362,75,o),
(362,99,cs),
(362,123,o),
(342,142,o),
(311,142,cs),
(115,142,ls),
(85,142,o),
(64,122,o),
(64,98,cs),
(64,75,o),
(85,57,o),
(115,57,cs),
(311,57,ls)
);
},
{
closed = 1;
nodes = (
(345,287,l),
(146,287,ls),
(112,287,o),
(93,271,o),
(90,247,cs),
(88,223,o),
(105,202,o),
(140,202,cs),
(347,202,l)
);
}
);
width = 516;
}
);
unicode = 8805;
},
{
glyphname = lessequal;
lastChange = "2022-03-17 10:16:18 +0000";
layers = (
{
layerId = m01;
shapes = (
{
closed = 1;
nodes = (
(354,332,o),
(356,348,o),
(348,359,cs),
(340,369,o),
(328,369,o),
(311,360,cs),
(85,243,ls),
(70,235,o),
(70,223,o),
(78,212,cs),
(85,202,o),
(96,199,o),
(111,207,cs),
(338,324,ls)
);
},
{
closed = 1;
nodes = (
(304,97,o),
(313,109,o),
(313,120,cs),
(313,131,o),
(304,142,o),
(286,142,cs),
(82,142,ls),
(64,142,o),
(55,131,o),
(55,120,cs),
(55,108,o),
(64,97,o),
(82,97,cs),
(286,97,ls)
);
},
{
closed = 1;
nodes = (
(305,202,ls),
(321,202,o),
(331,213,o),
(331,225,cs),
(332,236,o),
(322,248,o),
(299,248,cs),
(93,248,l),
(92,202,l)
);
}
);
width = 438;
},
{
layerId = "140DECC1-64C4-40C0-9C07-503DBC3F4160";
shapes = (
{
closed = 1;
nodes = (
(410,337,o),
(418,362,o),
(401,386,cs),
(389,403,o),
(363,408,o),
(334,393,cs),
(117,281,ls),
(89,266,o),
(85,242,o),
(101,221,cs),
(114,201,o),
(139,197,o),
(164,210,cs),
(382,322,ls)
);
},
{
closed = 1;
nodes = (
(341,57,o),
(362,75,o),
(362,98,cs),
(362,122,o),
(341,142,o),
(311,142,cs),
(115,142,ls),
(85,142,o),
(64,122,o),
(64,98,cs),
(64,74,o),
(85,57,o),
(115,57,cs),
(311,57,ls)
);
},
{
closed = 1;
nodes = (
(339,202,ls),
(367,202,o),
(389,222,o),
(389,245,cs),
(391,272,o),
(365,287,o),
(333,287,cs),
(140,287,l),
(138,202,l)
);
}
);
width = 517;
}
);
unicode = 8804;
},
{
glyphname = plusminus;
lastChange = "2022-03-17 10:16:18 +0000";
layers = (
{
layerId = m01;
shapes = (
{
closed = 1;
nodes = (
(246,364,o),
(234,375,o),
(222,375,cs),
(212,375,o),
(202,368,o),
(199,352,cs),
(171,196,ls),
(168,177,o),
(180,166,o),
(192,166,cs),
(202,166,o),
(212,173,o),
(215,189,cs),
(243,345,ls)
);
},
{
closed = 1;
nodes = (
(296,97,o),
(305,108,o),
(305,120,cs),
(305,131,o),
(296,142,o),
(278,142,cs),
(81,142,ls),
(63,142,o),
(54,131,o),
(54,120,cs),
(54,109,o),
(63,97,o),
(81,97,cs),
(278,97,ls)
);
},
{
closed = 1;
nodes = (
(322,248,o),
(331,260,o),
(331,271,cs),
(331,282,o),
(322,293,o),
(304,293,cs),
(107,293,ls),
(89,293,o),
(80,282,o),
(80,271,cs),
(80,260,o),
(89,248,o),
(107,248,cs),
(304,248,ls)
);
}
);
width = 430;
},
{
layerId = "140DECC1-64C4-40C0-9C07-503DBC3F4160";
shapes = (
{
closed = 1;
nodes = (
(310,390,o),
(285,411,o),
(259,411,cs),
(238,411,o),
(217,398,o),
(212,371,cs),
(185,222,ls),
(179,188,o),
(204,167,o),
(230,167,cs),
(251,167,o),
(272,181,o),
(277,207,cs),
(304,357,ls)
);
},
{
closed = 1;
nodes = (
(337,57,o),
(358,74,o),
(358,99,cs),
(358,122,o),
(337,142,o),
(307,142,cs),
(117,142,ls),
(87,142,o),
(67,122,o),
(67,99,cs),
(67,75,o),
(87,57,o),
(117,57,cs),
(307,57,ls)
);
},
{
closed = 1;
nodes = (
(368,248,o),
(388,266,o),
(388,290,cs),
(388,313,o),
(368,333,o),
(338,333,cs),
(148,333,ls),
(118,333,o),
(98,313,o),
(98,290,cs),
(98,266,o),
(118,248,o),
(148,248,cs),
(338,248,ls)
);
}
);
width = 511;
}
);
unicode = 177;
},
{
glyphname = approxequal;
lastChange = "2022-03-17 10:16:18 +0000";
layers = (
{
layerId = m01;
shapes = (
{
closed = 1;
nodes = (
(294,227,o),
(314,237,o),
(335,246,cs),
(353,254,o),
(361,260,o),
(361,271,cs),
(361,282,o),
(349,302,o),
(332,294,cs),
(313,285,o),
(300,272,o),
(270,272,cs),
(242,272,o),
(199,310,o),
(168,310,cs),
(142,310,o),
(125,301,o),
(107,294,cs),
(89,287,o),
(80,282,o),
(80,271,cs),
(80,259,o),
(90,238,o),
(108,246,cs),
(123,253,o),
(137,265,o),
(160,265,cs),
(191,265,o),
(234,227,o),
(262,227,cs)
);
},
{
closed = 1;
nodes = (
(268,76,o),
(288,86,o),
(309,95,cs),
(327,103,o),
(335,109,o),
(335,120,cs),
(335,131,o),
(323,151,o),
(306,143,cs),
(287,134,o),
(274,121,o),
(244,121,cs),
(216,121,o),
(173,159,o),
(142,159,cs),
(116,159,o),
(99,150,o),
(81,143,cs),
(63,136,o),
(54,131,o),
(54,120,cs),
(54,108,o),
(64,87,o),
(82,95,cs),
(97,102,o),
(111,114,o),
(134,114,cs),
(165,114,o),
(208,76,o),
(236,76,cs)
);
}
);
width = 460;
},
{
layerId = "140DECC1-64C4-40C0-9C07-503DBC3F4160";
shapes = (
{
closed = 1;
nodes = (
(335,229,o),
(360,241,o),
(378,249,cs),
(406,262,o),
(418,273,o),
(418,293,cs),
(418,321,o),
(386,351,o),
(354,335,cs),
(330,323,o),
(325,316,o),
(306,316,cs),
(289,316,o),
(247,352,o),
(208,352,cs),
(177,352,o),
(155,342,o),
(139,335,cs),
(112,324,o),
(98,313,o),
(98,293,cs),
(98,261,o),
(130,234,o),
(161,249,cs),
(179,258,o),
(187,265,o),
(200,265,cs),
(220,265,o),
(261,229,o),
(298,229,cs)
);
},
{
closed = 1;
nodes = (
(301,35,o),
(326,47,o),
(344,55,cs),
(372,68,o),
(384,79,o),
(384,99,cs),
(384,127,o),
(352,157,o),
(320,141,cs),
(296,129,o),
(291,122,o),
(272,122,cs),
(255,122,o),
(213,158,o),
(174,158,cs),
(143,158,o),
(121,148,o),
(105,141,cs),
(78,130,o),
(64,119,o),
(64,99,cs),
(64,67,o),
(96,40,o),
(127,55,cs),
(145,64,o),
(153,71,o),
(166,71,cs),
(186,71,o),
(227,35,o),
(264,35,cs)
);
}
);
width = 537;
}
);
unicode = 8776;
},
{
glyphname = asciicircum;
lastChange = "2022-03-17 10:17:42 +0000";
layers = (
{
layerId = m01;
shapes = (
{
closed = 1;
nodes = (
(315,619,o),
(313,634,o),
(304,642,cs),
(295,651,o),
(279,654,o),
(265,642,cs),
(132,531,ls),
(120,521,o),
(122,506,o),
(130,497,cs),
(139,488,o),
(154,484,o),
(170,497,cs),
(301,607,ls)
);
},
{
closed = 1;
nodes = (
(266,609,l),
(359,499,ls),
(370,486,o),
(385,488,o),
(394,496,cs),
(404,504,o),
(407,520,o),
(397,532,cs),
(305,641,l)
);
}
);
width = 461;
},
{
layerId = "140DECC1-64C4-40C0-9C07-503DBC3F4160";
shapes = (
{
closed = 1;
nodes = (
(381,590,o),
(379,617,o),
(361,635,cs),
(344,653,o),
(310,657,o),
(287,638,cs),
(154,527,ls),
(130,507,o),
(134,481,o),
(147,464,cs),
(165,442,o),
(200,439,o),
(224,459,cs),
(355,569,ls)
);
},
{
closed = 1;
nodes = (
(286,573,l),
(378,464,ls),
(397,441,o),
(432,443,o),
(450,460,cs),
(469,477,o),
(473,502,o),
(454,525,cs),
(361,635,l)
);
}
);
width = 547;
}
);
unicode = 94;
},
{
glyphname = infinity;
lastChange = "2022-03-17 10:18:34 +0000";
layers = (
{
layerId = m01;
shapes = (
{
closed = 1;
nodes = (
(322,196,ls),
(355,146,o),
(404,90,o),
(462,80,cs),
(526,69,o),
(622,109,o),
(640,211,cs),
(657,307,o),
(585,349,o),
(528,359,cs),
(476,368,o),
(399,356,o),
(318,279,c),
(311,213,l)
);
},
{
closed = 1;
nodes = (
(262,214,o),
(151,123,o),
(126,127,cs),
(107,130,o),
(107,191,o),
(113,227,cs),
(120,267,o),
(144,322,o),
(200,312,cs),
(241,305,o),
(269,267,o),
(287,241,c),
(320,279,l),
(298,309,o),
(269,352,o),
(214,361,cs),
(128,377,o),
(75,298,o),
(62,226,cs),
(52,168,o),
(64,90,o),
(118,81,cs),
(174,71,o),
(250,140,o),
(319,210,c),
(321,280,l)
);
},
{
closed = 1;
nodes = (
(419,307,o),
(474,319,o),
(513,312,cs),
(561,303,o),
(600,263,o),
(591,214,cs),
(581,158,o),
(514,123,o),
(471,130,cs),
(430,137,o),
(390,186,o),
(362,227,cs),
(352,241,l)
);
}
);
width = 745;
},
{
layerId = "140DECC1-64C4-40C0-9C07-503DBC3F4160";
shapes = (
{
closed = 1;
nodes = (
(310,179,ls),
(343,127,o),
(395,71,o),
(456,61,cs),
(525,49,o),
(625,92,o),
(645,205,cs),
(664,314,o),
(587,362,o),
(527,373,cs),
(472,383,o),
(390,369,o),
(305,284,c),
(294,204,l)
);
},
{
closed = 1;
nodes = (
(246,221,o),
(168,151,o),
(153,154,cs),
(138,156,o),
(143,195,o),
(149,227,cs),
(155,261,o),
(177,284,o),
(214,278,cs),
(256,271,o),
(276,220,o),
(293,198,c),
(356,272,l),
(340,296,o),
(308,361,o),
(236,374,cs),
(139,391,o),
(80,301,o),
(66,225,cs),
(55,164,o),
(70,72,o),
(136,60,cs),
(202,49,o),
(278,126,o),
(348,197,c),
(292,272,l)
);
},
{
closed = 1;
nodes = (
(437,277,o),
(475,284,o),
(503,279,cs),
(543,272,o),
(566,247,o),
(560,215,cs),
(553,175,o),
(515,150,o),
(482,156,cs),
(439,163,o),
(402,212,o),
(392,227,cs),
(388,233,l)
);
}
);
width = 753;
}
);
unicode = 8734;
},
{
glyphname = percent;
lastChange = "2022-03-17 10:19:29 +0000";
layers = (
{
layerId = m01;
shapes = (
{
closed = 1;
nodes = (
(377,637,o),
(362,650,o),
(347,650,cs),
(336,650,o),
(325,644,o),
(318,627,cs),
(61,31,ls),
(53,12,o),
(67,0,o),
(83,0,cs),
(94,0,o),
(105,6,o),
(111,20,cs),
(368,616,ls)
);
},
{
closed = 1;
nodes = (
(312,-4,o),
(378,95,o),
(378,158,cs),
(378,197,o),
(355,218,o),
(310,218,cs),
(273,218,o),
(247,193,o),
(232,167,cs),
(221,146,o),
(204,106,o),
(204,59,cs),
(204,12,o),
(221,-4,o),
(248,-4,cs)
);
},
{
closed = 1;
nodes = (
(243,35,o),
(243,49,o),
(243,66,cs),
(243,93,o),
(255,122,o),
(269,151,c),
(281,171,o),
(291,178,o),
(308,178,cs),
(330,178,o),
(338,172,o),
(338,151,cs),
(338,113,o),
(286,35,o),
(255,35,cs)
);
},
{
closed = 1;
nodes = (
(169,432,o),
(235,531,o),
(235,594,cs),
(235,633,o),
(212,654,o),
(167,654,cs),
(130,654,o),
(104,629,o),
(89,603,cs),
(78,582,o),
(61,542,o),
(61,495,cs),
(61,448,o),
(78,432,o),
(105,432,cs)
);
},
{
closed = 1;
nodes = (
(100,471,o),
(100,485,o),
(100,502,cs),
(100,529,o),
(112,558,o),
(126,587,c),
(138,607,o),
(148,614,o),
(165,614,cs),
(187,614,o),
(195,608,o),
(195,587,cs),
(195,549,o),
(143,471,o),
(112,471,cs)
);
}
